<svg width="20" height="11" viewBox="0 0 20 11" fill="none" xmlns="http://www.w3.org/2000/svg">
<path d="M10.5453 0.292045L19.2519 8.44318C19.4534 8.63171 19.5645 8.88338 19.5645 9.15172C19.5645 9.42006 19.4534 9.67173 19.2519 9.86026L18.6109 10.4605C18.1931 10.8511 17.5143 10.8511 17.0972 10.4605L9.7859 3.61582L2.4665 10.4681C2.26497 10.6567 1.9963 10.7607 1.70983 10.7607C1.42303 10.7607 1.15437 10.6567 0.952673 10.4681L0.3118 9.86785C0.110264 9.67918 -0.000762924 9.42766 -0.00076292 9.15931C-0.000762917 8.89097 0.110264 8.6393 0.3118 8.45078L9.02636 0.292045C9.22854 0.103072 9.49847 -0.000720144 9.78542 -0.000124094C10.0735 -0.000720137 10.3433 0.103072 10.5453 0.292045Z" fill="#244595"/>
</svg>
