<svg width="309" height="345" viewBox="0 0 309 345" fill="none" xmlns="http://www.w3.org/2000/svg">
<g opacity="0.1">
<path d="M136.985 0.133311C180.053 0.133311 220.813 17.3304 251.704 48.5252C252.986 49.725 253.627 51.4581 253.627 53.3244C253.627 55.0575 252.986 56.7905 251.832 58.1236L237.092 73.9876C234.528 76.6539 230.427 76.7872 227.863 73.9876C225.3 71.3214 225.3 67.1888 227.863 64.5226L237.989 53.591C211.713 29.3284 178.643 15.3308 143.522 13.731V155.041L209.021 84.6525C211.584 81.9863 215.686 81.853 218.25 84.6525C220.813 87.3187 220.813 91.4514 218.25 94.1176L141.599 176.371C140.317 177.704 138.651 178.37 136.985 178.37C135.959 178.37 134.806 178.104 133.78 177.57C131.729 176.371 130.448 173.971 130.448 171.438V6.79886C130.448 3.06615 133.396 0 136.985 0V0.133311Z" fill="white"/>
<path d="M139.42 201.566L249.653 83.1861C250.807 81.853 252.473 81.1864 254.14 81.1864C255.806 81.1864 257.472 81.853 258.754 83.0528C291.183 115.714 309 159.44 309 206.232C309 241.96 298.489 276.221 278.622 305.416C277.34 307.282 275.417 308.215 273.366 308.215C272.085 308.215 270.803 307.815 269.649 307.015L230.939 278.487C227.991 276.354 227.35 272.221 229.401 269.155C231.452 266.089 235.554 265.289 238.502 267.555L271.828 292.085C287.851 266.489 296.182 237.027 296.182 206.366C296.182 165.439 281.442 127.179 254.524 97.717L154.161 205.432L216.455 251.291C219.403 253.424 220.044 257.557 217.993 260.623C215.943 263.689 211.841 264.489 208.893 262.223L140.445 211.831C138.907 210.631 137.882 208.898 137.754 206.899C137.626 204.899 138.266 203.033 139.548 201.566H139.42Z" fill="white"/>
<path d="M-57.59 200.9C-57.2055 198.1 -56.821 195.301 -56.3083 192.634C-55.2828 186.635 -53.8729 180.637 -52.3347 175.171C-51.6938 172.638 -50.9248 170.238 -50.1557 167.839C-48.4894 162.64 -46.4385 157.307 -44.2595 152.375C-43.3622 150.108 -42.3368 147.975 -41.3114 145.842C-39.0042 141.176 -36.5688 136.511 -33.8771 131.978C-32.7234 129.978 -31.4417 128.112 -30.288 126.112C-27.2118 121.446 -23.8791 116.78 -20.2901 112.381C-18.8802 110.648 -17.4702 108.915 -15.9321 107.182C-12.7276 103.449 -9.26681 99.85 -5.54964 96.2506C-4.0115 94.6509 -2.34518 93.1844 -0.678864 91.718C3.03831 88.3852 7.01184 85.1858 10.9854 82.1196C12.7799 80.7865 14.5744 79.4534 16.497 78.1203C20.8551 75.1874 25.2132 72.3879 29.5712 69.9883C31.6221 68.9218 33.6729 67.722 35.7238 66.7888C40.9791 64.1226 46.4908 61.723 52.0024 59.59C54.3097 58.7902 56.6169 57.857 58.9241 57.1904C64.3076 55.4574 69.9474 53.991 75.4591 52.7912C78.0226 52.2579 80.7144 51.7247 83.2779 51.3248C89.4305 50.3916 95.8394 49.725 102.248 49.4584C104.556 49.4584 106.735 49.3251 109.042 49.3251C114.297 49.3251 118.655 53.8577 118.655 59.3234V218.897L243.757 311.148C245.808 312.614 247.346 315.014 247.731 317.68C248.115 320.346 247.603 322.879 246.064 325.146L245.424 325.946C244.014 327.945 241.706 330.878 239.784 333.544C237.605 336.344 233.887 336.877 231.068 334.877C227.991 332.611 227.35 328.079 229.786 325.012C231.196 323.146 232.734 321.28 233.631 320.08L108.529 227.829C106.863 226.629 105.837 224.496 105.837 222.363V62.6562C104.812 62.6562 103.915 62.6562 102.889 62.6562C96.8648 62.9228 90.9686 63.4561 85.3288 64.3892C82.8934 64.7892 80.458 65.1891 78.0226 65.7224C72.8955 66.7888 67.6402 68.2553 62.7694 69.855C60.5904 70.5216 58.5395 71.3214 56.3605 72.1213C51.2334 73.9876 46.2344 76.2539 41.3636 78.7868C39.4409 79.72 37.5183 80.7865 35.7238 81.853C31.7503 84.1193 27.7767 86.5189 23.675 89.3184C22.0087 90.5182 20.3424 91.718 18.6761 92.9178C14.9589 95.7173 11.3699 98.6502 7.90908 101.716C6.37094 103.049 4.83281 104.516 3.42284 105.849C0.0902061 109.048 -3.11425 112.515 -6.19053 115.981C-7.60049 117.58 -8.88228 119.18 -10.1641 120.78C-13.3685 124.779 -16.4448 129.045 -19.3929 133.444C-20.5465 135.177 -21.7001 137.044 -22.7255 138.777C-25.1609 142.909 -27.5963 147.309 -29.6472 151.575C-30.5444 153.574 -31.5698 155.574 -32.3389 157.574C-34.3898 162.24 -36.1843 167.039 -37.8506 171.838C-38.6196 174.104 -39.2605 176.371 -39.9014 178.637C-41.3114 183.836 -42.5932 189.168 -43.6186 194.767C-44.1313 197.3 -44.5158 199.833 -44.7722 202.5C-45.6695 209.565 -46.1822 216.631 -46.1822 223.296V223.696C-46.1822 226.629 -46.1822 229.562 -45.9258 232.361C-45.5413 239.96 -44.644 247.692 -43.1059 255.291C-42.3368 259.023 -41.4396 262.889 -40.4141 267.022C-37.2097 278.753 -32.8516 290.085 -27.34 300.616C-21.8283 311.148 -15.0348 321.146 -7.21596 330.345C-2.98607 335.411 1.75652 340.21 6.6273 344.742C15.4716 352.874 25.085 359.807 35.2111 365.672C45.3372 371.405 56.2323 375.937 67.512 379.27C71.4855 380.47 75.0745 381.403 78.7917 382.07C86.0979 383.536 93.404 384.602 100.838 385.002C103.53 385.136 106.35 385.269 109.17 385.269H109.555C116.092 385.269 122.757 384.736 129.55 383.803C131.986 383.403 134.549 383.136 136.985 382.603C141.984 381.67 147.111 380.336 152.494 378.737C154.673 378.07 156.852 377.404 158.903 376.604C164.03 374.737 168.517 373.004 172.746 371.005C174.669 370.072 176.592 369.138 178.514 368.205C182.616 366.072 186.846 363.539 190.82 361.006L191.717 360.34C193.127 359.407 194.665 358.473 195.947 357.54C199.792 354.741 203.766 351.675 208.124 347.942C208.765 347.275 210.174 346.076 211.584 344.876C213.763 342.876 217.096 342.609 219.531 344.342C222.992 346.875 223.249 351.941 220.172 354.874C218.506 356.34 217.096 357.674 216.455 358.34C211.841 362.34 207.483 365.672 203.253 368.738C201.715 369.805 200.177 370.871 198.51 371.805L197.613 372.471C193.255 375.271 188.769 377.937 184.282 380.336C182.232 381.403 180.181 382.469 178.002 383.403C173.387 385.536 168.517 387.535 163.005 389.535C160.698 390.335 158.39 391.135 155.955 391.801C150.059 393.534 144.675 395.001 139.164 396.067C136.472 396.6 133.78 397 131.217 397.4C123.91 398.467 116.604 399 109.683 399C109.683 399 109.17 399 109.042 399C105.966 399 103.017 399 100.069 398.733C92.1223 398.333 84.047 397.267 76.2281 395.667C72.2546 394.867 68.2811 393.801 64.0512 392.601C51.8743 389.135 40.0818 384.069 29.0585 377.937C18.0352 371.671 7.65273 364.073 -1.96065 355.274C-7.34414 350.341 -12.3431 345.142 -16.9575 339.677C-25.4173 329.678 -32.7234 318.88 -38.7478 307.415C-44.7722 296.084 -49.5148 283.819 -52.8474 271.021C-54.001 266.489 -55.0265 262.356 -55.7955 258.357C-57.3337 250.225 -58.3591 241.826 -58.7436 233.561C-58.8718 230.495 -59 227.295 -59 224.229V223.696C-59 216.364 -58.4873 208.765 -57.4619 201.166L-57.59 200.9Z" fill="white"/>
<path d="M114.938 269.022L194.28 327.145C197.485 329.412 201.843 328.745 204.15 325.412C206.329 322.08 205.688 317.547 202.484 315.147L123.398 257.157C120.321 254.891 115.963 255.291 113.656 258.357C112.374 260.09 111.862 262.223 112.246 264.223C112.503 266.089 113.528 267.822 115.066 269.022H114.938Z" fill="white"/>
</g>
</svg>
