<svg width="352" height="508" viewBox="0 0 352 508" fill="none" xmlns="http://www.w3.org/2000/svg">
<g opacity="0.75">
<path d="M152.085 272.087C146.622 270.155 142.65 267.273 140.434 263.293C138.209 259.417 137.574 254.305 138.532 247.956L120.304 243.416C117.983 253.849 118.883 262.762 123.139 270.23C127.343 277.545 135.184 283.299 146.491 287.298C154.315 290.065 161.224 291.246 167.169 290.905C173.113 290.563 178.367 288.607 182.776 285.171C187.185 281.734 190.324 277.338 192.13 272.229C194.131 266.571 194.62 261.319 193.593 256.712C192.565 252.105 190.379 247.813 186.901 244.139C183.424 240.465 177.68 235.989 169.66 230.816C161.64 225.643 156.759 221.688 155.064 218.967C153.807 216.83 153.581 214.736 154.254 212.53C155.09 210.166 156.677 208.713 159.06 207.971C162.762 206.836 167.276 207.278 172.548 209.142C177.82 211.007 181.179 213.269 182.973 216.24C184.825 219.125 185.354 223.018 184.479 227.919L202.855 233.558C205.473 225.245 204.806 217.569 200.859 210.667C196.913 203.766 189.314 198.312 178.079 194.338C171.185 191.9 164.977 190.86 159.353 191.207C153.8 191.58 148.967 193.255 144.933 196.314C140.979 199.374 138.164 203.16 136.526 207.791C134.019 214.881 134.626 221.891 138.453 228.751C141.085 233.603 146.94 238.977 155.779 244.87C162.65 249.422 167.005 252.439 168.939 253.875C171.643 256.094 173.375 258.103 174.083 260.045C174.768 261.98 174.803 264.006 174.068 266.083C172.903 269.378 170.362 271.783 166.558 273.204C162.755 274.625 157.911 274.282 152.043 272.206L152.085 272.087Z" fill="url(#paint0_linear_585_2004)"/>
<path d="M195.092 304.379L250.252 219.514L237.419 214.975L182.415 300.003L195.092 304.379Z" fill="url(#paint1_linear_585_2004)"/>
<path d="M187.132 463.71C178.83 460.774 171.869 458.527 163.086 455.206L16.0368 403.845C3.47338 398.542 -11.3866 377.575 -6.11076 360.532L41.8032 219.36C41.3701 215.5 40.3998 209.517 39.4466 206.521L39.2954 206.038C35.4183 193.628 20.8923 153.655 -1.5704 160.483C-10.0127 163.03 -9.41567 173.635 -4.62126 197.946C-2.12957 210.403 0.417855 223.31 -1.42604 233.912C-3.86255 248.01 -8.18114 263.485 -12.7097 279.932C-25.2617 325.289 -39.5189 376.757 -21.3506 423.202C-5.45091 463.768 57.8042 503.006 114.054 507.187C126.458 508.083 179.872 501.994 214.623 466.718L197.143 466.364C191.961 465.686 190.933 465.027 187.068 463.661L187.164 463.694L187.132 463.71Z" fill="url(#paint2_linear_585_2004)"/>
<path d="M242.436 277.585C243.246 288.803 253.078 297.276 264.313 296.468L317.566 292.579C328.778 291.763 337.25 281.921 336.449 270.68C335.648 259.438 325.807 250.989 314.572 251.796L261.319 255.685C250.107 256.501 241.635 266.343 242.436 277.585Z" fill="url(#paint3_linear_585_2004)"/>
<path d="M317.889 322.856C317.079 311.638 307.247 303.165 296.012 303.972L242.759 307.861C231.547 308.677 223.075 318.519 223.876 329.761C224.678 341.003 234.518 349.452 245.753 348.644L299.006 344.755C310.218 343.94 318.69 334.097 317.889 322.856Z" fill="url(#paint4_linear_585_2004)"/>
<path d="M277.242 357.122L223.989 361.011C212.777 361.826 204.305 371.668 205.106 382.91C205.908 394.152 215.748 402.601 226.983 401.794L280.236 397.905C291.448 397.089 299.92 387.247 299.119 376.005C298.318 364.763 288.477 356.314 277.242 357.122Z" fill="url(#paint5_linear_585_2004)"/>
<path d="M279.938 430.164C279.129 418.946 269.297 410.473 258.061 411.281L204.808 415.17C193.597 415.985 185.124 425.827 185.926 437.069C186.727 448.311 196.567 456.76 207.803 455.953L261.056 452.064C272.267 451.248 280.74 441.406 279.938 430.164Z" fill="url(#paint6_linear_585_2004)"/>
<path d="M68.0971 183.107L9.68106 348.283C2.904 367.749 13.1009 389.001 32.5421 395.877L179.103 447.71C176.546 444.468 174.81 440.041 174.424 437.567L173.75 432.871C172.716 419.022 182.92 405.119 196.736 404.15L204.342 403.966C194.526 401.139 190.739 387.793 192.449 381.818L193.319 379.359L36.3663 325.114L137.073 40.359L329.457 108.398L281.19 244.879L300.134 243.521L349.002 105.345C355.779 85.879 345.582 64.6266 326.14 57.751L171.183 2.94878C151.732 -3.82288 130.487 6.39052 123.606 25.8468L67.9933 183.097L68.0887 183.131L68.0971 183.107ZM130.061 371.545C139.675 374.945 144.729 385.542 141.327 395.163C137.925 404.784 127.331 409.847 117.718 406.447C108.105 403.047 103.05 392.45 106.452 382.829C109.854 373.208 120.448 368.145 130.061 371.545ZM207.605 35.571L285.609 63.1577C288.256 64.0941 289.563 67.0005 288.66 69.5549C287.757 72.1093 284.818 73.514 282.265 72.6113L204.262 45.0246C201.614 44.0882 200.273 41.2773 201.21 38.6274C202.147 35.9775 205.053 34.6683 207.605 35.571Z" fill="url(#paint7_linear_585_2004)"/>
</g>
<defs>
<linearGradient id="paint0_linear_585_2004" x1="404.083" y1="260.395" x2="-102.831" y2="260.395" gradientUnits="userSpaceOnUse">
<stop stop-color="#4CAD36" stop-opacity="0"/>
<stop offset="1" stop-color="white"/>
</linearGradient>
<linearGradient id="paint1_linear_585_2004" x1="404.083" y1="260.395" x2="-102.831" y2="260.395" gradientUnits="userSpaceOnUse">
<stop stop-color="#4CAD36" stop-opacity="0"/>
<stop offset="1" stop-color="white"/>
</linearGradient>
<linearGradient id="paint2_linear_585_2004" x1="404.083" y1="260.395" x2="-102.831" y2="260.395" gradientUnits="userSpaceOnUse">
<stop stop-color="#4CAD36" stop-opacity="0"/>
<stop offset="1" stop-color="white"/>
</linearGradient>
<linearGradient id="paint3_linear_585_2004" x1="404.083" y1="260.395" x2="-102.831" y2="260.395" gradientUnits="userSpaceOnUse">
<stop stop-color="#4CAD36" stop-opacity="0"/>
<stop offset="1" stop-color="white"/>
</linearGradient>
<linearGradient id="paint4_linear_585_2004" x1="404.083" y1="260.395" x2="-102.831" y2="260.395" gradientUnits="userSpaceOnUse">
<stop stop-color="#4CAD36" stop-opacity="0"/>
<stop offset="1" stop-color="white"/>
</linearGradient>
<linearGradient id="paint5_linear_585_2004" x1="404.083" y1="260.395" x2="-102.831" y2="260.395" gradientUnits="userSpaceOnUse">
<stop stop-color="#4CAD36" stop-opacity="0"/>
<stop offset="1" stop-color="white"/>
</linearGradient>
<linearGradient id="paint6_linear_585_2004" x1="404.083" y1="260.395" x2="-102.831" y2="260.395" gradientUnits="userSpaceOnUse">
<stop stop-color="#4CAD36" stop-opacity="0"/>
<stop offset="1" stop-color="white"/>
</linearGradient>
<linearGradient id="paint7_linear_585_2004" x1="404.083" y1="260.395" x2="-102.831" y2="260.395" gradientUnits="userSpaceOnUse">
<stop stop-color="#4CAD36" stop-opacity="0"/>
<stop offset="1" stop-color="white"/>
</linearGradient>
</defs>
</svg>
