<svg version="1.2" xmlns="http://www.w3.org/2000/svg" viewBox="0 0 88 100" width="88" height="100">
	<style>
		.s0 { fill: #0865d8 } 
	</style>
	<path class="s0" d="m20.83 100h4.17c2.3 0 4.17-1.86 4.17-4.17 0-2.3-1.86-4.17-4.17-4.17h-4.17c-6.9 0-12.49-5.59-12.49-12.49v-58.34c0-6.9 5.59-12.49 12.49-12.49h33.34c6.9 0 12.49 5.59 12.49 12.49v16.67c0 2.3 1.87 4.17 4.17 4.17 2.31 0 4.17-1.87 4.17-4.17v-16.67c-0.02-11.5-9.33-20.81-20.83-20.83h-33.34c-11.5 0.02-20.81 9.33-20.83 20.83v58.34c0.02 11.5 9.33 20.81 20.83 20.83z"/>
	<path class="s0" d="m54.17 20.83h-33.34c-2.3 0-4.16 1.87-4.16 4.17 0 2.31 1.86 4.17 4.16 4.17h33.34c2.29 0 4.16-1.86 4.16-4.17 0-2.3-1.86-4.17-4.16-4.17z"/>
	<path class="s0" d="m58.33 41.67c0-2.3-1.86-4.17-4.16-4.17h-33.34c-2.3 0-4.16 1.86-4.16 4.17 0 2.3 1.86 4.16 4.16 4.16h33.34c2.29 0 4.16-1.86 4.16-4.16z"/>
	<path class="s0" d="m20.83 54.17c-2.3 0-4.16 1.86-4.16 4.16 0 2.31 1.86 4.17 4.16 4.17h16.67c2.3 0 4.17-1.86 4.17-4.17 0-2.3-1.87-4.16-4.17-4.16z"/>
	<path class="s0" d="m66.16 53.66l-23.57 23.58c-0.54 0.53-0.92 1.21-1.1 1.94l-3.87 15.65c-0.35 1.42 0.07 2.92 1.1 3.95 1.04 1.02 2.53 1.44 3.94 1.1l15.67-3.87c0.74-0.18 1.42-0.56 1.95-1.1l23.57-23.57c4.92-4.84 4.98-12.75 0.14-17.68-4.84-4.92-12.75-4.98-17.68-0.14q-0.07 0.07-0.14 0.14h-0.01zm-10.96 34.53l-7.83 1.94 1.94-7.83 13.91-13.91 5.89 5.89zm22.75-22.75l-2.95 2.95-5.89-5.89 2.95-2.95c1.62-1.62 4.26-1.62 5.89 0 1.6 1.64 1.6 4.26 0 5.89z"/>
</svg>