<svg width="370" height="377" viewBox="0 0 370 377" fill="none" xmlns="http://www.w3.org/2000/svg">
<g opacity="0.75">
<path d="M342.038 0H32.9625C14.7825 0 0 14.8608 0 33.1372V66.2743H375V33.1372C375 14.8684 360.217 0 342.038 0ZM55.665 44.1754C49.5975 44.1754 44.6775 39.2293 44.6775 33.1296C44.6775 27.03 49.5975 22.0839 55.665 22.0839C61.7325 22.0839 66.6525 27.03 66.6525 33.1296C66.6525 39.2293 61.7325 44.1754 55.665 44.1754ZM99.6075 44.1754C93.54 44.1754 88.62 39.2293 88.62 33.1296C88.62 27.03 93.54 22.0839 99.6075 22.0839C105.675 22.0839 110.595 27.03 110.595 33.1296C110.595 39.2293 105.675 44.1754 99.6075 44.1754ZM143.557 44.1754C137.49 44.1754 132.57 39.2293 132.57 33.1296C132.57 27.03 137.49 22.0839 143.557 22.0839C149.625 22.0839 154.545 27.03 154.545 33.1296C154.545 39.2293 149.625 44.1754 143.557 44.1754Z" fill="url(#paint0_linear_695_2552)"/>
<path d="M0 88.3583V254.029C0 272.298 14.7825 287.166 32.9625 287.166H249.758V202.495C249.758 199.788 250.087 197.081 250.74 194.45L265.387 135.55C269.062 120.772 282.21 110.45 297.36 110.45C312.51 110.45 325.657 120.772 329.332 135.55L343.98 194.45C344.633 197.074 344.962 199.781 344.962 202.487V287.023C361.77 285.53 374.992 271.303 374.992 254.029V88.3583H0ZM224.122 242.983H48.3375C42.27 242.983 37.35 238.037 37.35 231.938C37.35 225.838 42.27 220.892 48.3375 220.892H224.122C230.19 220.892 235.11 225.838 235.11 231.938C235.11 238.037 230.19 242.983 224.122 242.983ZM224.122 198.8H48.3375C42.27 198.8 37.35 193.854 37.35 187.755C37.35 181.655 42.27 176.709 48.3375 176.709H224.122C230.19 176.709 235.11 181.655 235.11 187.755C235.11 193.854 230.19 198.8 224.122 198.8ZM224.122 154.625H48.3375C42.27 154.625 37.35 149.679 37.35 143.579C37.35 137.48 42.27 132.534 48.3375 132.534H224.122C230.19 132.534 235.11 137.48 235.11 143.579C235.11 149.679 230.19 154.625 224.122 154.625Z" fill="url(#paint1_linear_695_2552)"/>
<path d="M271.725 213.526H322.995V310.72H271.725V213.526Z" fill="url(#paint2_linear_695_2552)"/>
<path d="M320.588 191.442L308.017 140.903C306.795 135.987 302.4 132.534 297.36 132.534C292.32 132.534 287.925 135.987 286.703 140.903L274.133 191.442H320.588Z" fill="url(#paint3_linear_695_2552)"/>
<path d="M271.725 332.812V351.224C271.725 365.436 283.223 376.995 297.36 376.995C311.498 376.995 322.995 365.436 322.995 351.224V332.812H271.725Z" fill="url(#paint4_linear_695_2552)"/>
</g>
<defs>
<linearGradient id="paint0_linear_695_2552" x1="0" y1="188.915" x2="308.897" y2="188.915" gradientUnits="userSpaceOnUse">
<stop stop-color="#69D850"/>
<stop offset="1" stop-color="white"/>
</linearGradient>
<linearGradient id="paint1_linear_695_2552" x1="0" y1="188.915" x2="308.897" y2="188.915" gradientUnits="userSpaceOnUse">
<stop stop-color="#69D850"/>
<stop offset="1" stop-color="white"/>
</linearGradient>
<linearGradient id="paint2_linear_695_2552" x1="0" y1="188.915" x2="308.897" y2="188.915" gradientUnits="userSpaceOnUse">
<stop stop-color="#69D850"/>
<stop offset="1" stop-color="white"/>
</linearGradient>
<linearGradient id="paint3_linear_695_2552" x1="0" y1="188.915" x2="308.897" y2="188.915" gradientUnits="userSpaceOnUse">
<stop stop-color="#69D850"/>
<stop offset="1" stop-color="white"/>
</linearGradient>
<linearGradient id="paint4_linear_695_2552" x1="0" y1="188.915" x2="308.897" y2="188.915" gradientUnits="userSpaceOnUse">
<stop stop-color="#69D850"/>
<stop offset="1" stop-color="white"/>
</linearGradient>
</defs>
</svg>
