<svg width="220" height="57" viewBox="0 0 220 57" fill="none" xmlns="http://www.w3.org/2000/svg">
<path d="M19.7305 42.1497C19.7305 41.7633 19.8499 41.3857 20.0735 41.0644C20.2972 40.7432 20.6151 40.4928 20.9871 40.345C21.3591 40.1971 21.7684 40.1585 22.1632 40.2338C22.5581 40.3092 22.9208 40.4952 23.2055 40.7684C23.4902 41.0416 23.6841 41.3897 23.7626 41.7686C23.8412 42.1475 23.8008 42.5403 23.6468 42.8972C23.4927 43.2541 23.2318 43.5592 22.897 43.7738C22.5623 43.9885 22.1687 44.1031 21.7661 44.1031C21.2267 44.1015 20.7099 43.8951 20.3285 43.5292C19.9471 43.1632 19.7321 42.6672 19.7305 42.1497Z" fill="white"/>
<path d="M70.1048 18.3556L70.117 27.1515L79.8769 27.1381L79.8647 18.3354H82.9695L83 38.5956H79.8952L79.883 30.2019L70.117 30.222L70.1292 38.6157H67.0244L67 18.3623L70.1048 18.3556Z" fill="#4CAD36"/>
<path d="M94.4322 18.3688C99.7499 18.3688 102.994 21.6088 103 26.8422V38.6157H99.7693V33.229H89.2889V38.6091H86V26.8356C86 21.5955 89.2307 18.3421 94.4645 18.3354M94.4968 21.3822C91.2337 21.3822 89.2566 23.4622 89.2889 26.8356V30.169L99.7176 30.209V26.8756C99.6853 23.5089 97.7339 21.4422 94.4451 21.4422" fill="#4CAD36"/>
<path d="M122 25.2544C122 29.8312 119.11 32.4954 114.057 32.5088H109.396V38.6157H106V18.3354H113.99C119.044 18.3354 121.947 20.8386 121.98 25.2477M118.737 25.3349C118.737 22.6505 116.98 21.3956 113.877 21.4023H109.416V29.4554H113.89C116.993 29.4554 118.744 28.1132 118.744 25.3617" fill="#4CAD36"/>
<path d="M132.448 18.3555C137.763 18.3555 140.994 21.5966 141 26.8384V38.6091H137.743V33.2339H127.283V38.6157H124V26.845C124 21.6032 127.225 18.3421 132.448 18.3354M132.481 21.3898C129.224 21.3898 127.25 23.4705 127.283 26.8384V30.2062H137.769V26.8384C137.769 23.5039 135.789 21.4032 132.506 21.4098" fill="#4CAD36"/>
<path d="M57.9115 21.3393C56.1569 21.3393 54.4741 22.0827 53.2334 23.4058C51.9926 24.729 51.2956 26.5236 51.2956 28.3948C51.2956 30.266 51.9926 32.0606 53.2334 33.3837C54.4741 34.7069 56.1569 35.4502 57.9115 35.4502C59.8725 35.3911 61.7393 34.5403 63.1346 33.0697L65 35.2977C63.0631 37.3524 60.4623 38.5387 57.7312 38.6132C56.4602 38.6434 55.1965 38.4017 54.0145 37.9025C52.8325 37.4033 51.7563 36.6567 50.8493 35.7068C49.9423 34.7568 49.2229 33.6227 48.7335 32.3714C48.2442 31.1202 47.9948 29.777 48.0001 28.4213C48.0001 22.7252 52.3029 18.3421 57.8556 18.3354C60.517 18.3398 63.0742 19.4396 64.9938 21.4056L63.1284 23.8724C62.462 23.0936 61.6545 22.467 60.7546 22.0305C59.8547 21.594 58.8812 21.3566 57.8929 21.3327" fill="#4CAD36"/>
<path d="M154.313 22.7099C153.615 22.7102 152.924 22.8571 152.282 23.1416C151.639 23.4261 151.059 23.8425 150.575 24.3658C150.091 24.8891 149.714 25.5086 149.466 26.1871C149.218 26.8655 149.104 27.5891 149.131 28.3144C149.131 31.5246 151.377 33.965 154.325 33.9584C156.136 33.8404 157.835 33.0046 159.071 31.6232L162 34.9123C159.924 37.1833 157.072 38.5136 154.06 38.6157C148.302 38.6157 144.013 34.2545 144 28.4065C144 22.6704 148.385 18.3486 154.224 18.3354C157.131 18.3624 159.908 19.5852 161.949 21.7363L159.064 25.3411C158.498 24.5766 157.781 23.9464 156.962 23.4927C156.142 23.0389 155.239 22.7721 154.313 22.7099Z" fill="#4CAD36"/>
<path d="M172.427 18.3487C177.693 18.3487 180.994 21.7376 181 27.01V38.6025H176.207V33.8872H168.787V38.6157H164V27.0232C164 21.7177 167.258 18.3421 172.439 18.3354M172.5 22.7987C170.201 22.7987 168.787 24.4368 168.787 27.01V29.8749H176.219V27.0431C176.219 24.4633 174.775 22.8319 172.494 22.8385" fill="#4CAD36"/>
<path d="M191.666 22.5676C190.428 22.5676 189.614 23.0277 189.62 23.9345C189.62 27.2204 199.993 25.3343 200 32.4778C200 36.5325 196.468 38.6092 192.083 38.6157C188.791 38.6105 185.595 37.4981 183 35.4548L184.987 31.3934C187.014 33.1481 190.083 34.3967 192.155 34.3901C193.673 34.3901 194.624 33.8184 194.624 32.7735C194.624 29.3956 184.251 31.4592 184.238 24.4143C184.238 20.7013 187.353 18.342 192.103 18.3355C194.88 18.3342 197.603 19.105 199.974 20.5633L198.019 24.6772C195.934 23.4942 193.289 22.5611 191.66 22.5611" fill="#4CAD36"/>
<path d="M207.065 18.3555L207.078 26.6149L214.916 26.6082L214.903 18.3421L219.974 18.3354L220 38.589L214.935 38.5957L214.922 30.8249L207.084 30.8383L207.097 38.6091L202.026 38.6157L202 18.3622L207.065 18.3555Z" fill="#4CAD36"/>
<path d="M40.6937 40.8042V40.7255C40.4252 40.1423 40.0025 39.6513 39.4754 39.3104C39.9796 38.8056 40.3181 38.1475 40.4425 37.43C40.5581 36.7083 40.4572 35.9669 40.1536 35.3073C39.989 34.9162 39.7472 34.5657 39.444 34.2787C39.2859 34.1341 39.1157 34.0047 38.9353 33.8921C39.3827 33.3975 39.6779 32.7746 39.7831 32.1035C39.8976 31.3867 39.799 30.6504 39.5005 29.9938C39.2135 29.3379 38.7341 28.7941 38.1315 28.4411C38.2809 28.2385 38.4073 28.0187 38.5083 27.7859C38.7084 27.3364 38.812 26.8467 38.812 26.3511C38.812 25.8554 38.7084 25.3658 38.5083 24.9163V24.8376C38.315 24.3805 38.0283 23.9729 37.6681 23.6436C37.308 23.3142 36.8832 23.0711 36.4234 22.9311C35.8359 22.7607 35.2149 22.7607 34.6274 22.9311V4.18008C34.6141 3.06213 34.1774 1.99506 33.4127 1.21189C32.6479 0.428722 31.6171 -0.00692501 30.5455 8.32655e-05H12.6732C11.6001 0.00181913 10.5714 0.447808 9.81317 1.24012C9.05492 2.03244 8.62903 3.10631 8.62903 4.22594V23.1276C8.01587 22.3303 7.32096 21.6053 6.5567 20.9656C4.04478 18.8821 2.19224 19.4194 1.10584 20.2383C-1.06069 21.8632 0.42134 24.5559 1.6145 26.7114C2.2281 27.675 2.69618 28.7312 3.00234 29.8431C3.23469 31.35 3.33517 33.119 3.44192 35.0059C3.76847 40.3455 4.10758 46.9759 7.98221 51.7586C10.8458 55.29 16.4913 57 21.6157 57C23.2974 56.9993 24.9724 56.7792 26.6018 56.3448C28.7768 55.7185 30.7771 54.5594 32.4362 52.964C34.0953 51.3687 35.3654 49.3831 36.1408 47.1724C36.2036 47.0152 36.2476 46.8448 36.2978 46.6745L38.9353 45.4035C39.698 45.0603 40.3205 44.4479 40.6937 43.6738C40.8954 43.2248 41 42.7349 41 42.239C41 41.7431 40.8954 41.2532 40.6937 40.8042ZM38.6025 36.0345L38.6339 36.1066C38.7496 36.374 38.7943 36.6689 38.7633 36.9605C38.7324 37.2521 38.627 37.5296 38.4581 37.7642C38.2943 37.9896 38.0782 38.1677 37.8301 38.2817L32.0715 41.0073C31.8433 41.1237 31.5905 41.1778 31.3368 41.1645C31.0488 41.1485 30.7703 41.0511 30.5314 40.8826C30.2924 40.714 30.1019 40.4808 29.9803 40.208L29.9364 40.1031C29.7698 39.7206 29.7548 39.2849 29.8948 38.891C30.0348 38.497 30.3183 38.1768 30.6837 38L32.0338 37.3449H32.0841L36.5616 35.2287C36.7592 35.1369 36.9732 35.09 37.1895 35.0911C37.4866 35.092 37.7773 35.1813 38.0276 35.3484C38.2778 35.5155 38.4772 35.7535 38.6025 36.0345ZM37.9745 30.7145V30.7866C38.0899 31.0526 38.135 31.3459 38.1051 31.6362C38.0753 31.9265 37.9717 32.2032 37.805 32.4376C37.6309 32.669 37.4043 32.8514 37.1456 32.9683L35.8896 33.5711H35.852L31.3745 35.6873C31.1561 35.7911 30.917 35.8383 30.6774 35.8249C30.3912 35.808 30.1148 35.71 29.878 35.5414C29.6412 35.3729 29.453 35.1402 29.3335 34.8683L29.3021 34.7962C29.1868 34.5302 29.1417 34.2369 29.1715 33.9466C29.2013 33.6564 29.3049 33.3797 29.4717 33.1452C29.6341 32.9152 29.8503 32.7325 30.0997 32.6145L35.8708 29.8825C36.0677 29.7876 36.2819 29.7385 36.4988 29.7383C36.6896 29.7375 36.879 29.773 37.0577 29.8431C37.2499 29.9178 37.4261 30.0316 37.5759 30.1778C37.7257 30.324 37.8463 30.4997 37.9306 30.6949M34.8535 24.7197C35.0504 24.6251 35.2646 24.5759 35.4814 24.5756C35.7884 24.5718 36.0896 24.6623 36.3476 24.8359C36.6055 25.0095 36.8088 25.2585 36.9321 25.5518V25.6238C37.0343 25.8433 37.0874 26.0841 37.0874 26.3281C37.0874 26.5722 37.0343 26.813 36.9321 27.0325C36.743 27.3927 36.4417 27.6747 36.078 27.8318L30.4262 30.4918C30.1041 30.6601 29.7384 30.7152 29.3838 30.649C29.1423 30.5961 28.916 30.485 28.723 30.3246C28.53 30.1642 28.3757 29.9589 28.2722 29.7252L28.2597 29.6793C28.1637 29.457 28.1167 29.2151 28.1221 28.9713C28.1275 28.7275 28.1853 28.4882 28.2911 28.2707C28.4797 27.9102 28.7812 27.6281 29.1451 27.4714L34.8535 24.7197ZM10.5255 5.29387H32.7058V23.8287L28.4669 25.84C27.7151 26.1693 27.0975 26.7627 26.7211 27.5173C26.5197 27.9676 26.4153 28.4585 26.4153 28.9554C26.4153 29.4523 26.5197 29.9432 26.7211 30.3935V30.4656C27.0084 31.1288 27.4929 31.6779 28.1027 32.0314C27.7811 32.4791 27.5659 33.0001 27.4747 33.5514C27.3653 34.2689 27.466 35.0042 27.7636 35.6611C27.935 36.068 28.1876 36.432 28.5046 36.729C28.6516 36.8627 28.8092 36.9832 28.9756 37.0893C28.6711 37.4223 28.4349 37.8165 28.2816 38.248C28.1282 38.6795 28.061 39.1391 28.0838 39.5986H10.5569L10.5255 5.29387ZM26.1685 54.6479C20.2404 56.2597 12.353 54.3662 9.29469 50.5924C5.79057 46.2748 5.45774 40.2342 5.15631 34.9076C5.08933 33.1187 4.93633 31.3344 4.69788 29.5614C4.3839 28.234 3.85737 26.9715 3.14049 25.8269C1.79661 23.3963 1.36331 22.289 2.142 21.6994C4.22062 20.1401 7.1156 23.9007 7.95082 25.0866L7.98221 25.139C8.24782 25.5556 8.48093 25.9938 8.67927 26.4494V43.0055C8.67927 43.5602 8.78409 44.1094 8.98772 44.6217C9.19135 45.134 9.4898 45.5995 9.86601 45.9914C10.2422 46.3832 10.6888 46.6939 11.1802 46.9056C11.6716 47.1172 12.1981 47.2257 12.7297 47.2248L29.39 47.1724C29.7004 47.5508 30.0856 47.8545 30.5193 48.0626C30.9529 48.2707 31.4246 48.3783 31.902 48.3779C32.368 48.378 32.8286 48.273 33.2521 48.07L34.0434 47.6966C33.2857 49.3769 32.1903 50.8675 30.8315 52.0669C29.4727 53.2664 27.8823 54.1466 26.1685 54.6479ZM38.9667 43.1759C38.7902 43.4219 38.5539 43.6141 38.2822 43.7328L32.599 46.419C32.2856 46.579 31.9318 46.6317 31.588 46.5697C31.344 46.5191 31.115 46.4091 30.9197 46.2485C30.7243 46.088 30.5681 45.8815 30.4639 45.6459V45.5673C30.3484 45.3054 30.3021 45.0161 30.3297 44.7293C30.3573 44.4425 30.4578 44.1686 30.6209 43.9359C30.8001 43.6927 31.0356 43.501 31.3054 43.379L37.0514 40.66C37.2481 40.5646 37.4625 40.5154 37.6794 40.5159C37.9802 40.5145 38.2751 40.6033 38.5289 40.7717C38.7827 40.9401 38.9848 41.1811 39.1112 41.4659L39.1426 41.5445C39.2552 41.8074 39.2994 42.0966 39.2708 42.3831C39.2421 42.6695 39.1416 42.9429 38.9793 43.1759" fill="#00246B"/>
<path d="M16.5416 2.69285C16.5432 2.54108 16.6022 2.3961 16.7056 2.28939C16.8091 2.18268 16.9487 2.12284 17.0942 2.12285H26.1497C26.2268 2.11424 26.3047 2.12265 26.3785 2.14753C26.4523 2.17242 26.5202 2.21322 26.5779 2.26729C26.6355 2.32136 26.6817 2.38748 26.7132 2.46136C26.7448 2.53525 26.7611 2.61523 26.7611 2.69612C26.7611 2.77701 26.7448 2.857 26.7132 2.93088C26.6817 3.00476 26.6355 3.07089 26.5779 3.12496C26.5202 3.17903 26.4523 3.21983 26.3785 3.24471C26.3047 3.2696 26.2268 3.27801 26.1497 3.2694H17.0942C16.9476 3.2694 16.8071 3.20866 16.7034 3.10053C16.5998 2.99241 16.5416 2.84576 16.5416 2.69285Z" fill="white"/>
<path d="M10.5255 5.29387H32.7058V23.8287L28.4669 25.84C27.7151 26.1693 27.0975 26.7627 26.7211 27.5173C26.5197 27.9676 26.4153 28.4585 26.4153 28.9554C26.4153 29.4523 26.5197 29.9432 26.7211 30.3935V30.4656C27.0084 31.1288 27.4929 31.6779 28.1027 32.0314C27.7811 32.4791 27.5659 33.0001 27.4747 33.5514C27.3653 34.2689 27.466 35.0042 27.7636 35.6611C27.935 36.068 28.1876 36.432 28.5046 36.729C28.6516 36.8627 28.8092 36.9832 28.9756 37.0893C28.6711 37.4223 28.4349 37.8165 28.2816 38.248C28.1282 38.6795 28.061 39.1391 28.0838 39.5986H10.5569L10.5255 5.29387Z" fill="#4CAD36"/>
<path d="M23.33 22.9704C23.0595 22.5212 22.6776 22.1568 22.2248 21.9156C21.5304 21.5805 20.8013 21.3299 20.052 21.1687C19.403 21.0568 18.7793 20.8214 18.212 20.4742C18.1165 20.3973 18.0399 20.2977 17.9886 20.1838C17.9372 20.0699 17.9127 19.9448 17.9169 19.819C17.912 19.691 17.9383 19.5639 17.9932 19.4494C18.0481 19.3348 18.1298 19.2366 18.2308 19.1638C18.6406 18.8926 19.1216 18.762 19.6061 18.7904C20.0503 18.7558 20.4926 18.8781 20.8621 19.1376C21.1856 19.4401 21.3875 19.859 21.4273 20.3104L23.4368 20.2187C23.4383 19.784 23.3499 19.3541 23.1776 18.9583C23.0053 18.5626 22.7531 18.2103 22.4383 17.9256C21.6253 17.2955 20.6225 16.9909 19.6124 17.0673C18.9422 17.0497 18.2756 17.1745 17.6531 17.4342C17.1402 17.6423 16.7016 18.0107 16.3971 18.489C16.114 18.9287 15.9631 19.4465 15.9638 19.9762C15.9606 20.3741 16.0416 20.7677 16.2012 21.129C16.3608 21.4903 16.595 21.8104 16.887 22.0662C17.5582 22.5839 18.3334 22.9357 19.154 23.0949C19.9955 23.3111 20.5355 23.4618 20.7679 23.5469C21.0445 23.6284 21.2957 23.7843 21.4963 23.999C21.6428 24.1819 21.7169 24.4162 21.7036 24.6542C21.6986 24.8504 21.6514 25.0429 21.5656 25.2175C21.4797 25.3922 21.3573 25.5445 21.2075 25.6631C20.7814 25.9769 20.2645 26.1274 19.7443 26.089C19.2189 26.1206 18.7007 25.9505 18.2874 25.6107C17.8874 25.2019 17.6383 24.6591 17.584 24.0776L15.6247 24.2807C15.6926 25.2839 16.1263 26.2217 16.8367 26.9014C17.6684 27.5619 18.7014 27.8855 19.7443 27.8121C20.4835 27.8366 21.2199 27.7074 21.9108 27.4321C22.4513 27.2045 22.9133 26.8117 23.2358 26.3052C23.5335 25.8073 23.6976 25.2352 23.7108 24.6486C23.7241 24.0619 23.5861 23.4823 23.3112 22.9704" fill="white"/>
<path d="M26.1874 17.0804L23.732 27.8318H25.1386L27.6254 17.0739L26.1874 17.0804Z" fill="white"/>
<path d="M38.6025 36.0345L38.6339 36.1066C38.7496 36.374 38.7943 36.6689 38.7633 36.9605C38.7324 37.2521 38.627 37.5296 38.4581 37.7642C38.2943 37.9896 38.0782 38.1677 37.8301 38.2817L32.0715 41.0073C31.8433 41.1237 31.5905 41.1778 31.3368 41.1645C31.0488 41.1485 30.7703 41.0511 30.5314 40.8826C30.2924 40.714 30.1019 40.4808 29.9803 40.208L29.9364 40.1031C29.7698 39.7206 29.7548 39.2849 29.8948 38.891C30.0348 38.497 30.3183 38.1768 30.6837 38L32.0338 37.3449H32.0841L36.5616 35.2287C36.7592 35.1369 36.9732 35.09 37.1895 35.0911C37.4866 35.092 37.7773 35.1813 38.0276 35.3484C38.2778 35.5155 38.4772 35.7535 38.6025 36.0345Z" fill="#E7BD95"/>
<path d="M37.9431 30.7407V30.8128C38.0585 31.0788 38.1036 31.3721 38.0737 31.6624C38.0439 31.9527 37.9403 32.2294 37.7736 32.4638C37.5995 32.6952 37.3728 32.8776 37.1142 32.9945L35.8582 33.5973H35.8206L31.3431 35.7135C31.1247 35.8173 30.8856 35.8645 30.646 35.8511C30.3598 35.8342 30.0834 35.7362 29.8466 35.5677C29.6098 35.3991 29.4216 35.1664 29.3021 34.8945L29.2707 34.8224C29.1554 34.5565 29.1103 34.2631 29.1401 33.9729C29.1699 33.6826 29.2736 33.4059 29.4403 33.1714C29.6027 32.9414 29.8189 32.7587 30.0683 32.6407L35.8394 29.9087C36.0363 29.8139 36.2505 29.7647 36.4674 29.7645C36.6582 29.7637 36.8476 29.7993 37.0263 29.8694C37.2185 29.944 37.3947 30.0578 37.5445 30.204C37.6943 30.3502 37.8149 30.5259 37.8992 30.7211" fill="#E7BD95"/>
<path d="M34.866 24.7656C35.063 24.6709 35.2772 24.6218 35.494 24.6214C35.794 24.6162 36.0891 24.7012 36.3441 24.8661C36.5991 25.0311 36.8032 25.2691 36.9321 25.5518V25.6238C37.0343 25.8433 37.0874 26.0841 37.0874 26.3281C37.0874 26.5722 37.0343 26.813 36.9321 27.0325C36.743 27.3927 36.4417 27.6747 36.078 27.8318L30.4262 30.4918C30.1041 30.6601 29.7384 30.7152 29.3838 30.649C29.1423 30.5961 28.916 30.485 28.723 30.3246C28.53 30.1642 28.3757 29.9589 28.2722 29.7252L28.2597 29.6793C28.1637 29.457 28.1167 29.2151 28.1221 28.9713C28.1275 28.7275 28.1853 28.4882 28.2911 28.2707C28.4797 27.9102 28.7812 27.6281 29.1451 27.4714L34.866 24.7656Z" fill="#E7BD95"/>
<path d="M26.1685 54.6479C20.2404 56.2597 12.353 54.3662 9.29469 50.5924C5.79057 46.2748 5.45774 40.2342 5.15631 34.9076C5.08933 33.1187 4.93633 31.3344 4.69788 29.5614C4.3839 28.234 3.85737 26.9715 3.14049 25.8269C1.79661 23.3963 1.36331 22.289 2.142 21.6994C4.22062 20.1401 7.1156 23.9007 7.95082 25.0866L7.98221 25.139C8.24782 25.5556 8.48093 25.9938 8.67927 26.4494V43.0055C8.67927 43.5602 8.78409 44.1094 8.98772 44.6217C9.19135 45.134 9.4898 45.5995 9.86601 45.9914C10.2422 46.3832 10.6888 46.6939 11.1802 46.9056C11.6716 47.1172 12.1981 47.2257 12.7297 47.2248L29.39 47.1724C29.7004 47.5508 30.0856 47.8545 30.5193 48.0626C30.9529 48.2707 31.4246 48.3783 31.902 48.3779C32.368 48.378 32.8286 48.273 33.2521 48.07L34.0434 47.6966C33.2857 49.3769 32.1903 50.8675 30.8315 52.0669C29.4727 53.2664 27.8823 54.1466 26.1685 54.6479Z" fill="#E7BD95"/>
<path d="M38.9667 43.1759C38.7902 43.4219 38.5539 43.6141 38.2822 43.7328L32.599 46.419C32.2856 46.579 31.9318 46.6317 31.588 46.5697C31.344 46.5191 31.115 46.4091 30.9197 46.2485C30.7243 46.088 30.5681 45.8815 30.4639 45.6459V45.5673C30.3484 45.3054 30.3021 45.0161 30.3297 44.7293C30.3573 44.4425 30.4578 44.1686 30.6209 43.9359C30.8001 43.6927 31.0356 43.501 31.3054 43.379L37.0514 40.66C37.2481 40.5646 37.4625 40.5154 37.6794 40.5159C37.9802 40.5145 38.2751 40.6033 38.5289 40.7717C38.7827 40.9401 38.9848 41.1811 39.1112 41.4659L39.1426 41.5445C39.2552 41.8074 39.2994 42.0966 39.2708 42.3831C39.2421 42.6695 39.1416 42.9429 38.9793 43.1759" fill="#E7BD95"/>
</svg>
