<svg width="178" height="45" viewBox="0 0 178 45" fill="none" xmlns="http://www.w3.org/2000/svg">
<g clip-path="url(#clip0_1237_2213)">
<path d="M55.714 14.7953L55.7231 21.5811L63.9504 21.5719L63.9417 14.7836L66.556 14.7773L66.5796 30.4094L63.9624 30.4123L63.9537 23.9357L55.7289 23.9478L55.738 30.4244L53.1207 30.4273L53.0996 14.7986L55.714 14.7953Z" fill="white"/>
<path d="M75.7118 14.6753C79.948 14.6695 82.5234 17.1891 82.5263 21.2541L82.5383 30.3853L79.9447 30.3882L79.9389 26.2124L71.6039 26.2245L71.6097 30.4003L68.9925 30.4032L68.9805 21.272C68.9747 17.2074 71.5443 14.6816 75.7118 14.6753ZM75.7383 17.0424C73.1446 17.0453 71.5737 18.6561 71.5977 21.2691L71.5799 23.882L79.9385 23.8699L79.9356 21.257C79.9087 18.6441 78.3526 17.0391 75.7383 17.0424Z" fill="white"/>
<path d="M97.5465 20.0692C97.5523 23.5971 95.3168 25.655 91.4114 25.6608L87.8431 25.6667L87.8489 30.3792L85.2316 30.3821L85.2109 14.7533L91.3965 14.7442C95.3015 14.735 97.5432 16.6758 97.5465 20.0688M95.0423 20.1413C95.0394 18.0863 93.6858 17.1054 91.2922 17.1113L87.8344 17.1171L87.8435 23.3025L91.3013 23.2967C93.695 23.2908 95.0456 22.2617 95.0423 20.1408" fill="white"/>
<path d="M106.602 14.6304C110.839 14.6245 113.414 17.1441 113.417 21.2091L113.429 30.3404L110.835 30.3433L110.83 26.1675L102.495 26.1795L102.5 30.3554L99.8831 30.3583L99.8711 21.227C99.8653 17.1625 102.435 14.6366 106.602 14.6304ZM106.629 16.9975C104.036 17.0004 102.465 18.6112 102.489 21.2241L102.471 23.837L110.83 23.825L110.827 21.212C110.8 18.5991 109.244 16.9941 106.629 16.9975Z" fill="white"/>
<path d="M46.0349 17.0875C42.9315 17.0933 40.496 19.5083 40.4989 22.5891C40.5018 25.67 42.9464 28.1 46.0498 28.0966C47.6029 28.0937 49.1978 27.3766 50.3721 26.2366L51.9252 27.9766C50.3543 29.5425 48.1155 30.5504 45.9214 30.5533C41.3755 30.5591 37.8461 27.1037 37.8399 22.6158C37.8341 18.1733 41.3991 14.7504 45.9868 14.7441C48.1809 14.7412 50.3779 15.6529 51.8892 17.1471L50.363 19.07C49.2272 17.84 47.6087 17.0841 46.0344 17.0871" fill="white"/>
<path d="M123.994 18.0203C121.601 18.0232 119.785 19.9253 119.788 22.424C119.791 24.9469 121.612 26.8636 124.006 26.8607C125.291 26.8578 126.775 26.1407 127.86 25.0249L130.236 27.5899C128.576 29.3569 126.093 30.4999 123.788 30.5028C119.111 30.5086 115.623 27.0769 115.617 22.4782C115.611 17.9665 119.176 14.5678 123.919 14.5615C126.227 14.5586 128.644 15.5815 130.197 17.2315L127.851 20.0694C126.832 18.8215 125.347 18.0178 123.994 18.0207" fill="white"/>
<path d="M138.842 14.4921C143.299 14.4863 146.095 17.1379 146.104 21.2475L146.116 30.2888L142.058 30.2946L142.053 26.6109L135.757 26.62L135.763 30.3038L131.705 30.3096L131.693 21.2684C131.684 17.1617 134.451 14.5009 138.842 14.4917M138.89 17.9779C136.94 17.9809 135.742 19.2559 135.745 21.2659L135.748 23.4975L142.044 23.4884L142.041 21.2567C142.041 19.2438 140.821 17.975 138.89 17.9779Z" fill="white"/>
<path d="M154.541 17.7739C153.566 17.7739 152.922 18.1339 152.925 18.8477C152.928 21.4364 161.108 19.9514 161.117 25.5794C161.123 28.771 158.329 30.406 154.872 30.4119C152.278 30.4148 149.571 29.461 147.705 27.9219L149.276 24.7273C150.874 26.1102 153.292 27.0881 154.91 27.0852C156.108 27.0823 156.859 26.6352 156.859 25.8102C156.857 23.1523 148.676 24.7723 148.668 19.2348C148.665 16.3098 151.121 14.4531 154.868 14.4473C157.152 14.4444 159.459 15.1552 161.078 16.2023L159.552 19.4419C157.912 18.506 155.828 17.7739 154.541 17.7739Z" fill="white"/>
<path d="M167.215 14.6092L167.227 20.9959L173.499 20.9838L173.49 14.6001L177.55 14.5942L177.571 30.2442L173.514 30.2501L173.505 24.2447L167.23 24.2534L167.239 30.2592L163.182 30.2651L163.158 14.6151L167.215 14.6092Z" fill="white"/>
<path d="M19.6439 20.8631C19.417 20.4948 19.1032 20.2056 18.7028 19.9931C18.302 19.7814 17.683 19.5764 16.847 19.3781C16.011 19.1806 15.4843 18.9906 15.2669 18.8069C15.0963 18.6631 15.0115 18.4898 15.0106 18.2873C15.0106 18.0652 15.1013 17.8881 15.2831 17.7552C15.5659 17.5481 15.9568 17.4444 16.4557 17.4444C16.9401 17.4435 17.3024 17.5398 17.5451 17.7331C17.7869 17.9256 17.9455 18.2419 18.0192 18.6814L19.7375 18.6044C19.7098 17.8173 19.4253 17.1885 18.885 16.7177C18.3446 16.2469 17.5401 16.0119 16.4718 16.0127C15.8176 16.0135 15.2595 16.1131 14.7966 16.3123C14.3349 16.511 13.9805 16.8002 13.7353 17.181C13.4894 17.5602 13.3672 17.9685 13.3681 18.4052C13.3681 19.0827 13.6302 19.6573 14.1527 20.1281C14.5249 20.4627 15.1717 20.7448 16.093 20.9735C16.8089 21.1523 17.2677 21.2764 17.4693 21.3469C17.7637 21.4519 17.9691 21.5752 18.0879 21.7173C18.2059 21.8594 18.2647 22.0319 18.2655 22.2339C18.2655 22.5494 18.1256 22.8252 17.8448 23.0606C17.5649 23.2973 17.1476 23.4152 16.5944 23.4152C16.0719 23.416 15.6566 23.2839 15.3485 23.0194C15.0404 22.7548 14.8355 22.3398 14.7345 21.7752L13.0625 21.9402C13.176 22.8985 13.5209 23.6277 14.0981 24.1273C14.6752 24.6277 15.5017 24.8773 16.5778 24.8764C17.3169 24.8756 17.9343 24.7714 18.4295 24.5623C18.9255 24.3535 19.3077 24.0344 19.5789 23.6056C19.8493 23.1773 19.9847 22.7177 19.9839 22.2269C19.9839 21.6852 19.8704 21.2302 19.6431 20.8623" fill="white"/>
<path d="M22.0884 16.0077L19.9883 24.8682L21.1895 24.8669L23.3136 16.0073L22.0884 16.0077Z" fill="white"/>
<path d="M20.4092 44.4983C15.5399 45.8329 9.0305 44.4008 6.47867 41.4338C3.55709 38.0358 3.22626 33.2417 2.93394 29.0117C2.82835 27.4821 2.72857 26.0371 2.50994 24.7713C2.34556 23.8196 1.74643 22.8008 1.16757 21.8154C0.0425845 19.8983 -0.325511 19.0213 0.310479 18.5488C2.00894 17.2883 4.4233 20.2488 5.12264 21.1863L5.15204 21.2258C5.3218 21.4508 5.57686 21.9233 5.73379 22.2438L5.90106 35.6596C5.95696 37.27 7.84092 38.6 9.05824 38.6733L22.9983 38.6183C23.8388 38.6404 24.4947 38.6275 25.2793 38.6183C25.6515 38.6133 25.7513 38.6429 26.213 38.5446L27.6945 38.0458C25.8076 42.0867 21.4849 44.2042 20.4096 44.4988" fill="white"/>
<path d="M25.3212 18.746L29.6978 16.8127C30.6215 16.4048 31.6989 16.8273 32.1043 17.7568C32.5096 18.686 32.0893 19.7702 31.166 20.1785L26.7894 22.1118C25.8657 22.5198 24.7883 22.0973 24.3829 21.1677C23.9776 20.2385 24.3978 19.1543 25.3212 18.746Z" fill="white"/>
<path d="M25.3212 23.7319L29.6978 21.7985C30.6215 21.3906 31.6989 21.8131 32.1043 22.7427C32.5096 23.6719 32.0893 24.756 31.166 25.1644L26.7894 27.0977C25.8657 27.5056 24.7883 27.0831 24.3829 26.1535C23.9776 25.2244 24.3978 24.1402 25.3212 23.7319Z" fill="white"/>
<path d="M25.3212 28.8061L29.6978 26.8727C30.6215 26.4648 31.6989 26.8873 32.1043 27.8169C32.5096 28.7461 32.0893 29.8302 31.166 30.2386L26.7894 32.1719C25.8657 32.5798 24.7883 32.1573 24.3829 31.2277C23.9776 30.2986 24.3978 29.2144 25.3212 28.8061Z" fill="white"/>
<path d="M25.3212 33.9779L29.6978 32.0446C30.6215 31.6367 31.6989 32.0592 32.1043 32.9888C32.5096 33.9179 32.0893 35.0021 31.166 35.4104L26.7894 37.3438C25.8657 37.7517 24.7883 37.3292 24.3829 36.3996C23.9776 35.4704 24.3978 34.3863 25.3212 33.9779Z" fill="white"/>
<path d="M28.2318 3.35208C28.2306 1.49958 26.7362 -0.00124922 24.8949 7.80249e-07L10.1748 0.0120841C8.33352 0.0133341 6.84251 1.51708 6.84375 3.36917L6.85576 18.3833C6.85576 18.3833 6.85327 18.3804 6.85203 18.3788V20.9813C6.85369 20.985 6.85617 20.9896 6.85783 20.9929L6.86818 34.1479C6.86942 36.0008 8.36375 37.5021 10.2051 37.5004H24.1219C23.8118 37.3054 23.531 36.975 23.4217 36.7821L23.2217 36.3996C22.7232 35.2567 23.1667 33.77 24.302 33.2688L24.9372 33.0221C24.0263 33.0758 23.3104 32.0608 23.2706 31.4979L23.2681 31.265L8.40267 31.3767V4.20292L26.6733 4.18833L26.6833 17.2333L28.2418 16.5492L28.2314 3.35167L28.2318 3.35208ZM17.7011 32.5133C18.6158 32.5133 19.3569 33.2596 19.3569 34.1796C19.3569 35.0996 18.6154 35.8458 17.7011 35.8458C16.7869 35.8458 16.0453 35.0996 16.0453 34.1796C16.0453 33.2596 16.7869 32.5133 17.7011 32.5133ZM21.6343 2.57375L14.2235 2.58292C13.9759 2.58292 13.7734 2.37875 13.7734 2.12708C13.7734 1.87542 13.9763 1.67417 14.2235 1.67417L21.6343 1.66833C21.8819 1.66833 22.0843 1.8725 22.0843 2.12125C22.0843 2.37 21.8814 2.57417 21.6343 2.57417V2.57375Z" fill="white"/>
</g>
<defs>
<clipPath id="clip0_1237_2213">
<rect width="177.568" height="45" fill="white"/>
</clipPath>
</defs>
</svg>
