<svg width="35" height="35" viewBox="0 0 35 35" fill="none" xmlns="http://www.w3.org/2000/svg">
<path d="M34.202 12.306C34.202 5.92025 29.0063 0.72625 22.6222 0.72625C16.6215 0.72625 11.7513 5.1835 11.1265 11.0372C5.32875 11.6637 0.798 16.5865 0.798 22.5487C0.798 28.9345 5.99375 34.1302 12.3795 34.1302C18.3417 34.1302 23.2645 29.6012 23.891 23.8017C29.743 23.177 34.202 18.3067 34.202 12.306ZM22.6205 2.84025C27.839 2.84025 32.0863 7.08575 32.0863 12.306C32.0863 17.122 28.574 21.049 23.9155 21.6737C23.4868 15.9862 18.9403 11.4397 13.2528 11.011C13.8758 6.3525 17.8045 2.84025 22.6205 2.84025ZM12.3778 32.0145C7.1575 32.0145 2.91025 27.7672 2.91025 22.547C2.91025 17.3267 7.1575 13.0795 12.3778 13.0795C17.598 13.0795 21.8452 17.3267 21.8452 22.547C21.8452 27.7672 17.598 32.0145 12.3778 32.0145Z" fill="#4CAD36"/>
<path d="M2.114 9.54975V7.9555C2.114 6.06725 3.6505 4.53075 5.53875 4.53075H7.1435L6.53275 5.1415C6.11975 5.5545 6.11975 6.22475 6.53275 6.636C6.73925 6.8425 7.00875 6.94575 7.28 6.94575C7.55125 6.94575 7.82075 6.8425 8.02725 6.636L10.4423 4.221C10.5403 4.123 10.6173 4.0075 10.6698 3.87625C10.7765 3.61725 10.7765 3.32675 10.6698 3.06775C10.6155 2.93825 10.5403 2.821 10.4423 2.723L8.02725 0.30975C7.61425 -0.10325 6.94575 -0.10325 6.53275 0.30975C6.11975 0.72275 6.11975 1.393 6.53275 1.80425L7.1435 2.415H5.53875C2.48325 2.415 0 4.9 0 7.9555V9.54975C0 10.1342 0.4725 10.6067 1.057 10.6067C1.6415 10.6067 2.114 10.1342 2.114 9.54975Z" fill="#4CAD36"/>
<path d="M33.9412 24.2462C33.3568 24.2462 32.8843 24.7187 32.8843 25.3032V26.8975C32.8843 28.7857 31.3478 30.3222 29.4613 30.3222H27.8565L28.4673 29.7115C28.8803 29.2985 28.8803 28.6283 28.4673 28.217C28.0543 27.804 27.384 27.804 26.9728 28.217L24.5578 30.632C24.5578 30.632 24.549 30.6477 24.542 30.6547C24.4545 30.7475 24.3792 30.8542 24.3302 30.975C24.2235 31.234 24.2235 31.5262 24.3302 31.7835C24.381 31.9042 24.4545 32.011 24.542 32.1037C24.549 32.1107 24.5508 32.1195 24.5578 32.1265L26.9728 34.5415C27.1793 34.748 27.4487 34.8512 27.72 34.8512C27.9912 34.8512 28.2608 34.748 28.4673 34.5415C28.8803 34.1285 28.8803 33.4582 28.4673 33.047L27.8565 32.4362H29.4613C32.515 32.4362 35 29.9512 35 26.8957V25.3015C34.9982 24.7153 34.524 24.2427 33.9412 24.2427V24.2462Z" fill="#4CAD36"/>
<path d="M15.568 24.2795C15.568 25.473 14.7193 26.3917 13.363 26.6717C13.2493 26.6945 13.1687 26.796 13.1687 26.9132C13.1687 27.0567 13.1687 27.251 13.1687 27.4277C13.1687 27.6692 12.9728 27.8635 12.733 27.8635H12.1713C11.9298 27.8635 11.7355 27.6675 11.7355 27.4277V26.9272C11.7355 26.8065 11.648 26.7067 11.5308 26.6822C10.619 26.4967 9.90325 26.033 9.4395 25.3802C9.289 25.1685 9.35725 24.871 9.58475 24.745L10.1448 24.4352C10.4073 24.29 10.6365 24.3425 10.7747 24.507C11.137 24.9445 11.7303 25.2402 12.4653 25.2402C13.2825 25.2402 13.8898 24.8832 13.8898 24.3617C13.8898 23.8403 13.5188 23.5883 12.5335 23.3223L11.5798 23.0685C10.2008 22.6975 9.46225 21.9345 9.46225 20.8145C9.46225 19.6227 10.2568 18.7057 11.5465 18.424C11.6585 18.3995 11.7373 18.298 11.7373 18.1825V17.6698C11.7373 17.4282 11.9332 17.234 12.173 17.234H12.7348C12.9763 17.234 13.1705 17.43 13.1705 17.6698V18.2035C13.1705 18.319 13.251 18.4135 13.363 18.4397C14.14 18.6182 14.798 19.0295 15.218 19.6035C15.372 19.8117 15.3003 20.111 15.0745 20.237L14.4638 20.5782C14.28 20.6815 14.0438 20.65 13.9073 20.489C13.5748 20.097 13.0148 19.845 12.3935 19.845C11.6655 19.845 11.1265 20.1915 11.1265 20.7358C11.1265 21.21 11.4975 21.4515 12.495 21.7297L13.4487 21.9852C14.826 22.3545 15.5662 23.128 15.5662 24.283L15.568 24.2795Z" fill="#4CAD36"/>
</svg>
