<svg width="33" height="35" viewBox="0 0 33 35" fill="none" xmlns="http://www.w3.org/2000/svg">
<path d="M23.3227 27.8206C23.1034 28.0063 22.7778 28.0974 22.3461 28.0974C21.937 28.0974 21.6133 27.994 21.373 27.7873C21.2024 27.6419 21.0736 27.4369 20.9848 27.1741C20.9152 26.9692 20.7203 26.8308 20.5061 26.8535L20.0849 26.8956C19.8098 26.9219 19.6131 27.1899 19.6845 27.458C19.8185 27.959 20.0553 28.3584 20.3982 28.6545C20.8491 29.0452 21.4949 29.2414 22.3357 29.2397C22.9136 29.2397 23.3958 29.1573 23.7822 28.9944C24.1704 28.8315 24.4681 28.5827 24.6805 28.2463C24.8911 27.9117 24.9973 27.5526 24.9973 27.1689C24.9973 26.7449 24.9085 26.3893 24.731 26.102C24.5534 25.8146 24.308 25.5886 23.9964 25.4222C23.683 25.2575 23.1991 25.0964 22.5463 24.9422C21.8935 24.788 21.481 24.6391 21.3121 24.4954C21.1781 24.3833 21.1119 24.2484 21.1119 24.089C21.1119 23.9156 21.1833 23.7772 21.3243 23.6738C21.5454 23.5126 21.85 23.4303 22.2399 23.4303C22.6177 23.4303 22.9014 23.5056 23.0912 23.6563C23.2165 23.7561 23.314 23.8998 23.3819 24.0855C23.4515 24.2765 23.6465 24.3886 23.8484 24.3798L24.2975 24.3588C24.59 24.3465 24.8006 24.0592 24.7205 23.7754C24.6178 23.4145 24.4246 23.1097 24.1391 22.8609C23.7161 22.493 23.0877 22.309 22.2539 22.3108C21.7421 22.3108 21.3069 22.3896 20.9448 22.5456C20.5845 22.7015 20.3077 22.9275 20.1162 23.2253C19.9247 23.5214 19.829 23.8402 19.829 24.1819C19.829 24.7109 20.0344 25.1594 20.4417 25.5273C20.7324 25.7884 21.2373 26.0091 21.9579 26.1878C22.5167 26.328 22.8753 26.4243 23.0337 26.4804C23.2635 26.5627 23.4237 26.6591 23.5177 26.7694C23.6099 26.8798 23.6552 27.0147 23.6569 27.1724C23.6569 27.4194 23.5472 27.6349 23.3279 27.8189L23.3227 27.8206Z" fill="#4CAD36"/>
<path d="M26.9992 22.309C26.7885 22.309 26.604 22.4545 26.5553 22.6629L25.1331 28.6668C25.0652 28.9559 25.2828 29.2327 25.5787 29.2327C25.7893 29.2327 25.9721 29.0872 26.0226 28.8805L27.4622 22.8767C27.5318 22.5876 27.3142 22.309 27.0183 22.309H26.9992Z" fill="#4CAD36"/>
<path d="M5.09346 6.15277H13.1775C13.7398 6.15277 14.1959 5.69376 14.1959 5.12789C14.1959 4.56202 13.7398 4.10301 13.1775 4.10301H5.09346C4.5312 4.10301 4.07512 4.56202 4.07512 5.12789C4.07512 5.69376 4.5312 6.15277 5.09346 6.15277Z" fill="#4CAD36"/>
<path d="M5.09346 10.2558H19.97C20.5323 10.2558 20.9883 9.79678 20.9883 9.2309C20.9883 8.66503 20.5323 8.20603 19.97 8.20603H5.09346C4.5312 8.20603 4.07512 8.66503 4.07512 9.2309C4.07512 9.79678 4.5312 10.2558 5.09346 10.2558Z" fill="#4CAD36"/>
<path d="M25.3367 16.7169V1.02488C25.3367 0.459005 24.8807 0 24.3184 0H1.01834C0.456079 0 0 0.459005 0 1.02488V29.7372C0 30.3031 0.456079 30.7621 1.01834 30.7621H15.8026C15.8218 30.7621 15.8409 30.7603 15.8618 30.7586C17.5469 33.3935 20.4348 35 23.5716 35C28.6285 35 32.7419 30.8602 32.7419 25.7708C32.7419 21.2894 29.5511 17.5456 25.3367 16.7134V16.7169ZM2.03669 2.05151H23.2983V16.5487C22.6212 16.568 21.9614 16.6626 21.3278 16.8238V13.3322C21.3278 12.7663 20.8717 12.3073 20.3094 12.3073C20.2868 12.3073 20.2659 12.309 20.245 12.3108C20.2207 12.3108 20.198 12.3073 20.1737 12.3073H5.22924C4.83235 12.3073 4.48768 12.5368 4.32056 12.8714C4.16738 13.0501 4.07512 13.2831 4.07512 13.5389V25.6395C4.07512 26.2053 4.5312 26.6643 5.09346 26.6643H14.4431C14.511 27.3616 14.6572 28.0519 14.88 28.7158H2.03669V2.05151ZM14.4727 24.6111H10.1887V22.5596H14.974C14.732 23.2113 14.5614 23.898 14.4727 24.6111ZM19.2911 16.4121C19.2685 16.4121 19.2458 16.4086 19.2232 16.4086H10.1887V14.357H19.2911V16.4121ZM8.15023 16.4086H6.1118V14.357H8.15023V16.4086ZM6.11355 18.4583H8.15197V20.5098H6.11355V18.4583ZM6.11355 22.5613H8.15197V24.6128H6.11355V22.5613ZM16.0428 20.5098H10.1887V18.4583H17.9855C17.2387 19.0382 16.5825 19.7302 16.0428 20.5098ZM23.5699 32.952C20.9309 32.952 18.5165 31.4874 17.2683 29.1293C16.7252 28.1027 16.438 26.9411 16.438 25.7744C16.4432 25.7288 16.4484 25.6833 16.4484 25.6377C16.4484 25.6009 16.4467 25.5659 16.4432 25.5308C16.572 21.6854 19.7193 18.5967 23.5716 18.5967C27.4239 18.5967 30.7035 21.8167 30.7035 25.7744C30.7035 29.732 27.504 32.952 23.5716 32.952H23.5699Z" fill="#4CAD36"/>
</svg>
