<svg width="38" height="38" viewBox="0 0 38 38" fill="none" xmlns="http://www.w3.org/2000/svg">
<path d="M18.6965 0.39209C8.40535 0.39209 0.0566406 8.72292 0.0566406 19.0001C0.0566406 29.2774 8.40173 37.6082 18.6965 37.6082C28.9913 37.6082 37.3364 29.2774 37.3364 19.0001C37.3364 8.72292 28.9913 0.39209 18.6965 0.39209ZM28.0472 14.6307V17.1513C26.8571 17.1513 25.6996 16.9201 24.6108 16.4579C23.9091 16.1618 23.2579 15.7826 22.6575 15.3204L22.6756 23.0735C22.6683 24.8213 21.9774 26.4607 20.7222 27.6957C19.7021 28.7032 18.4108 29.3424 17.0109 29.5482C16.6817 29.5951 16.3489 29.6204 16.0089 29.6204C14.5113 29.6204 13.0861 29.1365 11.925 28.241C11.7043 28.0713 11.4981 27.8907 11.2956 27.6921C9.93908 26.3524 9.23732 24.536 9.35669 22.6293C9.44712 21.174 10.0295 19.791 11.0026 18.704C12.2867 17.2668 14.0881 16.4688 16.0089 16.4688C16.3489 16.4688 16.6817 16.494 17.0109 16.541V20.0654C16.6998 19.9643 16.367 19.9065 16.0197 19.9065C14.2617 19.9065 12.8401 21.3365 12.8691 23.0915C12.8872 24.2146 13.5021 25.1968 14.4064 25.7385C14.8333 25.9913 15.3216 26.1501 15.8461 26.179C16.2549 26.2007 16.6492 26.1429 17.0145 26.0238C18.2697 25.6085 19.174 24.4313 19.174 23.0446V17.8518L19.1776 8.37264H22.6539C22.6539 8.7157 22.6936 9.05153 22.7588 9.37653C23.0228 10.691 23.7644 11.8321 24.7989 12.6121C25.6996 13.291 26.8246 13.6918 28.04 13.6918H28.0508V14.6271L28.0472 14.6307Z" fill="white"/>
</svg>
