<svg width="38" height="38" viewBox="0 0 38 38" fill="none" xmlns="http://www.w3.org/2000/svg">
<path d="M18.6399 0.39209C8.3487 0.39209 0 8.72292 0 19.0001C0 29.2774 8.34509 37.6082 18.6399 37.6082C28.9347 37.6082 37.2798 29.2774 37.2798 19.0001C37.2798 8.72292 28.9347 0.39209 18.6399 0.39209ZM13.2248 28.5226H8.68512V14.8907H13.2248V28.5226ZM10.9568 13.0274H10.9278C9.40496 13.0274 8.42105 11.9801 8.42105 10.6729C8.42105 9.3657 9.43751 8.31848 10.9893 8.31848C12.5411 8.31848 13.4961 9.33681 13.5287 10.6729C13.5287 11.9801 12.5448 13.0274 10.9604 13.0274H10.9568ZM29.5931 28.5226H25.0534V21.2282C25.0534 19.3938 24.395 18.1443 22.7528 18.1443C21.4976 18.1443 20.7524 18.9893 20.4232 19.8018C20.3039 20.0943 20.2749 20.4988 20.2749 20.9068V28.519H15.7352C15.7352 28.519 15.7931 16.1654 15.7352 14.8871H20.2749V16.819C20.879 15.891 21.957 14.5693 24.3661 14.5693C27.354 14.5693 29.5931 16.5193 29.5931 20.7046V28.5226Z" fill="white"/>
</svg>
