<svg width="100" height="100" viewBox="0 0 100 100" fill="none" xmlns="http://www.w3.org/2000/svg">
<g clip-path="url(#clip0_40_185)">
<path d="M83.8333 67.7333C80.1333 67.7333 76.5 69.0333 73.6333 71.3667L68.1667 65.9C76.1667 56.8333 76.1667 43.2 68.1667 34.1333L73.6333 28.6667C80.5333 34.3 90.7 33.3 96.3333 26.4C101.967 19.5 100.967 9.33334 94.0667 3.70001C87.1667 -1.93332 77 -0.933324 71.3667 5.96668C66.5 11.9 66.5 20.4667 71.3667 26.4L65.9 31.8667C56.8333 23.8667 43.2 23.8667 34.1333 31.8667L28.6667 26.4C34.3 19.5 33.3 9.33334 26.4 3.70001C19.4667 -1.99999 9.3 -0.966657 3.63334 5.93334C-2 12.8333 -0.966664 23 5.93334 28.6333C11.8667 33.5 20.4333 33.5 26.3667 28.6333L31.8333 34.1C23.8333 43.1667 23.8333 56.8 31.8333 65.8667L26.3667 71.3333C19.4667 65.7 9.3 66.7 3.66667 73.6C-1.96666 80.5 -0.966664 90.6667 5.93334 96.3C12.8333 101.933 23 100.933 28.6333 94.0333C33.5 88.1 33.5 79.5333 28.6333 73.6L34.1 68.1333C43.1667 76.1333 56.8 76.1333 65.8667 68.1333L71.3333 73.6C65.7 80.5 66.7333 90.6333 73.6333 96.2667C80.5333 101.9 90.6667 100.867 96.3 93.9667C101.933 87.0667 100.9 76.9333 94 71.3C91.1333 68.9667 87.5333 67.6667 83.8 67.6667L83.8333 67.7333ZM77.4 27.3V25.8333C77.4 22.2667 80.3 19.4 83.8333 19.4C87.3667 19.4 90.2667 22.3 90.2667 25.8333V27.3C86.3 29.6333 81.3667 29.6333 77.3667 27.3H77.4ZM80.6 12.9333C80.6 11.1667 82.0333 9.70001 83.8333 9.70001C85.6333 9.70001 87.0667 11.1333 87.0667 12.9333C87.0667 14.7333 85.6333 16.1667 83.8333 16.1667C82.0333 16.1667 80.6 14.7333 80.6 12.9333ZM83.8333 3.26668C90.9333 3.26668 96.7 9.00001 96.7333 16.1C96.7333 19.2667 95.5667 22.3333 93.4333 24.7C93.0667 21.6 91.2333 18.8333 88.5 17.3333C90.9667 14.7667 90.8667 10.6667 88.3 8.23334C85.7333 5.76668 81.6333 5.86668 79.2 8.43334C76.8333 10.9333 76.8333 14.8333 79.2 17.3333C76.4667 18.8333 74.6333 21.6 74.2667 24.7C69.5333 19.4 69.9667 11.2667 75.2667 6.53334C77.6333 4.40001 80.7 3.23334 83.8667 3.23334L83.8333 3.26668ZM3.26667 16.1667C3.26667 9.03334 9 3.26668 16.1333 3.23334C23.2667 3.23334 29.0333 8.96668 29.0667 16.1C29.0667 19.3 27.9 22.3667 25.7667 24.7333C25.4 21.6333 23.5667 18.8667 20.8333 17.3667C23.3 14.8 23.2 10.7 20.6333 8.26668C18.0667 5.80001 13.9667 5.90001 11.5333 8.46668C9.16667 10.9667 9.16667 14.8667 11.5333 17.3667C8.8 18.8667 6.96667 21.6333 6.6 24.7333C4.5 22.3667 3.3 19.3333 3.3 16.1667H3.26667ZM12.9333 12.9333C12.9333 11.1667 14.3667 9.70001 16.1667 9.70001C17.9667 9.70001 19.4 11.1333 19.4 12.9333C19.4 14.7333 17.9667 16.1667 16.1667 16.1667C14.3667 16.1667 12.9333 14.7333 12.9333 12.9333ZM9.7 27.3V25.8333C9.7 22.2667 12.6 19.4 16.1333 19.4C19.6667 19.4 22.5667 22.3 22.5667 25.8333V27.3C18.6 29.6333 13.6667 29.6333 9.66667 27.3H9.7ZM9.7 94.9667V93.5C9.7 89.9333 12.6 87.0667 16.1333 87.0667C19.6667 87.0667 22.5667 89.9667 22.5667 93.5V94.9667C18.6 97.3 13.6667 97.3 9.66667 94.9667H9.7ZM12.9333 80.6C12.9333 78.8333 14.3667 77.3667 16.1667 77.3667C17.9667 77.3667 19.4 78.8 19.4 80.6C19.4 82.4 17.9667 83.8333 16.1667 83.8333C14.3667 83.8333 12.9333 82.4 12.9333 80.6ZM25.7667 92.4C25.4 89.3 23.5667 86.5333 20.8333 85.0333C23.3 82.4667 23.2 78.3667 20.6333 75.9333C18.0667 73.4667 13.9667 73.5667 11.5333 76.1333C9.16667 78.6333 9.16667 82.5333 11.5333 85.0333C8.8 86.5333 6.96667 89.3 6.6 92.4C1.86667 87.1 2.3 78.9333 7.6 74.2C12.9 69.4667 21.0667 69.9 25.8 75.2C30.2 80.1 30.2 87.5 25.8 92.4H25.7667ZM50 70.9333C38.4333 70.9333 29.0667 61.5667 29.0667 50C29.0667 38.4333 38.4333 29.0667 50 29.0667C61.5667 29.0667 70.9333 38.4333 70.9333 50C70.9333 61.5667 61.5333 70.9333 50 70.9333ZM77.4 94.9667V93.5C77.4 89.9333 80.3 87.0667 83.8333 87.0667C87.3667 87.0667 90.2667 89.9667 90.2667 93.5V94.9667C86.3 97.3 81.3667 97.3 77.3667 94.9667H77.4ZM80.6 80.6C80.6 78.8333 82.0333 77.3667 83.8333 77.3667C85.6333 77.3667 87.0667 78.8 87.0667 80.6C87.0667 82.4 85.6333 83.8333 83.8333 83.8333C82.0333 83.8333 80.6 82.4 80.6 80.6ZM93.4333 92.4C93.0667 89.3 91.2333 86.5333 88.5 85.0333C90.9667 82.4667 90.8667 78.3667 88.3 75.9333C85.7333 73.5 81.6333 73.5667 79.2 76.1333C76.8333 78.6333 76.8333 82.5333 79.2 85.0333C76.4667 86.5333 74.6333 89.3 74.2667 92.4C69.5333 87.1 69.9667 78.9333 75.2667 74.2C80.5667 69.4667 88.7333 69.9 93.4667 75.2C97.8667 80.1 97.8667 87.5 93.4667 92.4H93.4333Z" fill="white"/>
<path d="M8.23334 37.8L11.3333 38.7C11.6333 37.6333 12 36.6 12.3667 35.6L9.36667 34.4333C8.96667 35.5333 8.56667 36.6334 8.23334 37.8Z" fill="white"/>
<path d="M6.8 44.7334L10 45.1334C10.1333 44.0667 10.3 42.9667 10.5333 41.9001L7.36667 41.2667C7.13334 42.4001 6.93334 43.6001 6.8 44.7334Z" fill="white"/>
<path d="M6.5 50.0001C6.5 50.6001 6.5 51.2001 6.53333 51.7667L9.76667 51.6334C9.76667 51.1001 9.73333 50.5334 9.73333 50.0001C9.73333 49.4667 9.73333 48.9001 9.73333 48.3667L6.5 48.2334C6.5 48.8001 6.5 49.4001 6.5 49.9667V50.0001Z" fill="white"/>
<path d="M6.8 55.3C6.93334 56.4667 7.13334 57.6333 7.36667 58.8L10.5333 58.1667C10.3 57.1 10.1333 56.0333 10 54.9333L6.8 55.3Z" fill="white"/>
<path d="M12.3667 64.4C11.9667 63.3667 11.6333 62.3334 11.3333 61.3L8.23334 62.2001C8.56667 63.3334 8.93334 64.4334 9.36667 65.5334L12.3667 64.3667V64.4Z" fill="white"/>
<path d="M48.3667 90.2333L48.2333 93.4666C48.8 93.4666 49.4 93.4666 49.9667 93.4666C50.5333 93.4666 51.1333 93.4666 51.7333 93.4333L51.6 90.2C50.5 90.2333 49.4 90.2333 48.3333 90.2L48.3667 90.2333Z" fill="white"/>
<path d="M54.9 90L55.3 93.2C56.4667 93.0667 57.6333 92.8667 58.8 92.6333L58.1667 89.4667C57.1 89.7 56.0333 89.8667 54.9333 90H54.9Z" fill="white"/>
<path d="M41.2333 92.6333C42.4 92.8667 43.5667 93.0667 44.7333 93.2L45.1333 90C44.0667 89.8667 42.9667 89.7 41.9 89.4667L41.2333 92.6333Z" fill="white"/>
<path d="M61.3 88.6666L62.2 91.7666C63.3333 91.4333 64.4333 91.0666 65.5333 90.6333L64.3667 87.6333C63.3333 88.0333 62.3 88.3666 61.2667 88.6666H61.3Z" fill="white"/>
<path d="M34.4667 90.6333C35.5667 91.0333 36.6667 91.4333 37.8333 91.7666L38.7333 88.6666C37.6667 88.3666 36.6333 88 35.6333 87.6333L34.4667 90.6333Z" fill="white"/>
<path d="M93.2 55.2667L90 54.8667C89.8667 55.9334 89.7 57.0334 89.4667 58.1L92.6333 58.7334C92.8667 57.6 93.0667 56.4 93.2 55.2667Z" fill="white"/>
<path d="M93.1667 44.7C93.0333 43.5333 92.8333 42.3666 92.6 41.2L89.4333 41.8333C89.6667 42.9 89.8333 43.9666 89.9667 45.0666L93.1667 44.7Z" fill="white"/>
<path d="M91.7667 62.2001L88.6667 61.3C88.3667 62.3667 88 63.4 87.6333 64.4L90.6333 65.5667C91.0333 64.4667 91.4333 63.3667 91.7667 62.2001Z" fill="white"/>
<path d="M87.6333 35.6C88.0333 36.6333 88.3667 37.6667 88.6667 38.7L91.7667 37.8C91.4333 36.6667 91.0667 35.5667 90.6333 34.4667L87.6333 35.6333V35.6Z" fill="white"/>
<path d="M93.5 50.0001C93.5 49.4001 93.5 48.8001 93.4667 48.2334L90.2333 48.3667C90.2333 48.9001 90.2667 49.4667 90.2667 50.0001C90.2667 50.5334 90.2667 51.1001 90.2667 51.6334L93.5 51.7667C93.5 51.2001 93.5333 50.6001 93.5333 50.0334L93.5 50.0001Z" fill="white"/>
<path d="M51.6333 9.73331L51.7667 6.49998C50.6 6.46664 49.4 6.46664 48.2333 6.49998L48.3667 9.73331C49.4667 9.69998 50.5667 9.69998 51.6333 9.73331Z" fill="white"/>
<path d="M65.5333 9.36673C64.4333 8.96673 63.3333 8.56673 62.1667 8.2334L61.2667 11.3334C62.3333 11.6334 63.3667 12.0001 64.3667 12.3667L65.5333 9.36673Z" fill="white"/>
<path d="M58.7667 7.36672C57.6 7.13338 56.4333 6.93338 55.2667 6.80005L54.8667 10C55.9333 10.1334 57.0333 10.3 58.1 10.5334L58.7667 7.36672Z" fill="white"/>
<path d="M45.1 10L44.7 6.80005C43.5333 6.93338 42.3667 7.13338 41.2 7.36672L41.8333 10.5334C42.9 10.3 43.9667 10.1334 45.0667 10H45.1Z" fill="white"/>
<path d="M38.6667 11.3334L37.7667 8.2334C36.6333 8.56673 35.5333 8.9334 34.4333 9.36673L35.6 12.3667C36.6333 11.9667 37.6667 11.6334 38.7 11.3334H38.6667Z" fill="white"/>
<path d="M58.0667 56.4333H54.8333V45.1667C54.8333 44.2667 54.1 43.5667 53.2333 43.5667H41.9667C41.0667 43.5667 40.3667 44.3 40.3667 45.1667V51.6C40.3667 52.5 41.1 53.2 41.9667 53.2H45.2V56.4333H41.9667C41.0667 56.4333 40.3667 57.1667 40.3667 58.0333V64.4667C40.3667 65.3667 41.1 66.0667 41.9667 66.0667H58.0667C58.9667 66.0667 59.6667 65.3333 59.6667 64.4667V58.0333C59.6667 57.1333 58.9333 56.4333 58.0667 56.4333ZM56.4333 62.9H43.5333V59.6666H46.7667C47.6667 59.6666 48.3667 58.9333 48.3667 58.0667V51.6333C48.3667 50.7333 47.6333 50.0333 46.7667 50.0333H43.5333V46.8H51.6V58.0667C51.6 58.9667 52.3333 59.6666 53.2 59.6666H56.4333V62.9Z" fill="white"/>
<path d="M50 41.9334C52.6667 41.9334 54.8333 39.7667 54.8333 37.1001C54.8333 34.4334 52.6667 32.2667 50 32.2667C47.3333 32.2667 45.1667 34.4334 45.1667 37.1001C45.1667 39.7667 47.3333 41.9334 50 41.9334ZM50 35.5001C50.9 35.5001 51.6 36.2334 51.6 37.1001C51.6 37.9667 50.8667 38.7001 50 38.7001C49.1333 38.7001 48.4 37.9667 48.4 37.1001C48.4 36.2334 49.1333 35.5001 50 35.5001Z" fill="white"/>
</g>
<defs>
<clipPath id="clip0_40_185">
<rect width="100" height="100" fill="white"/>
</clipPath>
</defs>
</svg>
