<svg width="100" height="100" viewBox="0 0 100 100" fill="none" xmlns="http://www.w3.org/2000/svg">
<g clip-path="url(#clip0_40_181)">
<path d="M50 41.6667C51.8333 41.6667 53.3333 43.1667 53.3333 45C53.3333 45.9333 54.0667 46.6667 55 46.6667C55.9333 46.6667 56.6667 45.9333 56.6667 45C56.6667 41.9667 54.6 39.3333 51.6667 38.5667V36.6667C51.6667 35.7333 50.9333 35 50 35C49.0667 35 48.3333 35.7333 48.3333 36.6667V38.5667C44.7667 39.4667 42.6333 43.1 43.5333 46.6667C44.3 49.6 46.9333 51.6667 50 51.6667C51.8333 51.6667 53.3333 53.1667 53.3333 55C53.3333 56.8333 51.8333 58.3333 50 58.3333C48.1667 58.3333 46.6667 56.8333 46.6667 55C46.6667 54.0667 45.9333 53.3333 45 53.3333C44.0667 53.3333 43.3333 54.0667 43.3333 55C43.3333 58.0333 45.4 60.6667 48.3333 61.4333V63.3333C48.3333 64.2667 49.0667 65 50 65C50.9333 65 51.6667 64.2667 51.6667 63.3333V61.4333C55.2333 60.5333 57.3667 56.9 56.4667 53.3333C55.7 50.4 53.0667 48.3333 50 48.3333C48.1667 48.3333 46.6667 46.8333 46.6667 45C46.6667 43.1667 48.1667 41.6667 50 41.6667Z" fill="white"/>
<path d="M93.3333 41.2667C92.2333 40.0667 90.5333 39.6667 89.0333 40.2667C87.6333 40.8 86.6667 42.1333 86.6667 43.6333V45H72.7667C72.1667 42.3 71.1 39.7667 69.6333 37.4333L79.4667 27.6L80.4333 28.5667C81.5 29.6333 83.1 29.9 84.4667 29.2667C85.9667 28.6333 86.9 27.1333 86.8 25.5L86.3667 16.9667C86.3333 15.1333 84.8667 13.6667 83.0333 13.6L74.5 13.1667C72.8667 13.1 71.4 14.0333 70.7333 15.5C70.1 16.8667 70.4 18.4667 71.4333 19.5333L72.4 20.5L62.5667 30.3333C60.2667 28.8333 57.7 27.7667 55 27.2V13.3H56.3667C57.8667 13.3 59.2 12.3333 59.7333 10.9333C60.3333 9.43335 59.9333 7.73335 58.7333 6.63335L52.4 0.900012C51.0667 -0.366654 49 -0.366654 47.6667 0.900012L41.3 6.63335C40.1 7.73335 39.7 9.43335 40.3 10.9333C40.8333 12.3333 42.1667 13.3 43.6667 13.3H45.0333V27.2C42.3333 27.8 39.8 28.8667 37.4667 30.3333L27.6333 20.5L28.6 19.5333C29.6667 18.4667 29.9333 16.8667 29.3 15.5C28.6667 14 27.1667 13.0667 25.5333 13.1667L17 13.6C15.1667 13.6333 13.7 15.1 13.6333 16.9333L13.2 25.4667C13.1 27.1 14.0333 28.5667 15.5333 29.2333C16.9 29.8667 18.5 29.5667 19.5667 28.5333L20.5333 27.5667L30.3667 37.4C28.8667 39.7 27.8 42.2667 27.2333 44.9667H13.3333V43.6C13.3333 42.1 12.3667 40.7667 10.9667 40.2333C9.46666 39.6333 7.76666 40.0333 6.66666 41.2333L0.966663 47.5667C-0.300004 48.9 -0.300004 50.9667 0.966663 52.3333L6.7 58.7C7.43333 59.5 8.46666 59.9667 9.56666 59.9667C10.0667 59.9667 10.5667 59.8667 11 59.7C12.4 59.1667 13.3667 57.8333 13.3667 56.3333V54.9667H27.2667C27.8667 57.6667 28.9333 60.2 30.4 62.5333L20.5667 72.3667L19.6 71.4C18.5333 70.3333 16.9333 70.0667 15.5667 70.7C14.0667 71.3333 13.1333 72.8333 13.2333 74.4667L13.6667 83C13.7 84.8333 15.1667 86.3 17 86.3667L25.5333 86.8H25.7333C27.2667 86.8 28.6667 85.8667 29.3 84.4667C29.9333 83.1 29.6333 81.5 28.6 80.4333L27.6333 79.4667L37.4667 69.6333C39.7667 71.1333 42.3333 72.2 45.0333 72.8V86.7H43.6667C42.1667 86.7 40.8333 87.6667 40.3 89.0667C39.7 90.5667 40.1 92.3 41.3 93.3667L47.6333 99.0667C48.2667 99.6667 49.1333 100 50 100C50.8667 100 51.7333 99.6667 52.3667 99.0667L58.7333 93.3333C59.9333 92.2333 60.3333 90.5333 59.7333 89.0333C59.2 87.6333 57.8667 86.6667 56.3667 86.6667H55V72.7667C57.7 72.1667 60.2333 71.1 62.5667 69.6333L72.4 79.4667L71.4333 80.4333C70.3667 81.5 70.1 83.1 70.7333 84.4667C71.3333 85.9 72.7333 86.8 74.3 86.8H74.5L83.0333 86.3667C84.8667 86.3333 86.3333 84.8667 86.4 83.0333L86.8333 74.5C86.9333 72.8667 86 71.3667 84.5 70.7333C83.1333 70.1 81.5333 70.4 80.4667 71.4333L79.5 72.4L69.6667 62.5667C71.1667 60.2667 72.2333 57.7 72.8 55H86.7V56.3667C86.7 57.8667 87.6667 59.2 89.0667 59.7333C89.5333 59.9 90 60 90.5 60C91.6 60 92.6333 59.5333 93.3667 58.7333L99.0667 52.4C100.333 51.0667 100.333 49 99.0667 47.6667L93.3333 41.3V41.2667ZM75.9333 21.7C76.6 21.0333 76.6 20 75.9333 19.3333L73.7667 17.1667C73.7667 17.1667 73.7 17 73.7667 16.8333C73.8 16.6 74.0667 16.4333 74.3 16.4667L82.8667 16.9C82.8667 16.9 83.0333 16.9667 83.0333 17.1L83.4667 25.6333C83.4667 25.8667 83.3333 26.0667 83.1 26.1667C82.9667 26.2333 82.8333 26.2333 82.7667 26.1667L80.6333 24.0333C79.9667 23.3667 78.9333 23.3667 78.2667 24.0333L67.6 34.7C66.8667 33.8667 66.0667 33.0667 65.2333 32.3333L75.9 21.6667L75.9333 21.7ZM46.6667 10H43.6333C43.6333 10 43.4333 9.93335 43.3667 9.76668C43.2667 9.56668 43.3333 9.30001 43.5 9.13335L49.9 3.36668C49.9 3.36668 50.0667 3.30001 50.1333 3.36668L56.5 9.10001C56.5 9.10001 56.7 9.50001 56.6333 9.73335C56.5667 9.90001 56.5 9.96668 56.3667 9.96668H53.3333C52.4 9.96668 51.6667 10.7 51.6667 11.6333V26.7333C51.1 26.7 50.5667 26.6333 50 26.6333C49.4333 26.6333 48.9 26.6667 48.3333 26.7333V11.6667C48.3333 10.7333 47.6 10 46.6667 10ZM21.7 24.0667C21.0333 23.4 20 23.4 19.3333 24.0667L17.1667 26.2333C17.1667 26.2333 17 26.3 16.8333 26.2333C16.6 26.1333 16.4667 25.9333 16.4667 25.7L16.9333 17.1333C16.9333 17.1333 16.9667 16.9667 17.1333 16.9667L25.7 16.5333C26.0333 16.4667 26.2 16.8333 26.2333 16.9C26.3 17.0333 26.3 17.1667 26.2333 17.2333L24.1 19.3667C23.4333 20.0333 23.4333 21.0667 24.1 21.7333L34.7667 32.4C33.9333 33.1333 33.1333 33.9333 32.4 34.7667L21.7333 24.1L21.7 24.0667ZM11.6667 51.6667C10.7333 51.6667 10 52.4 10 53.3333V56.3667C10 56.3667 9.93333 56.5667 9.76666 56.6333C9.56666 56.7333 9.3 56.6667 9.13333 56.5L3.36666 50.1C3.36666 50.1 3.3 49.9333 3.36666 49.8667L9.1 43.5C9.26666 43.3333 9.5 43.3 9.73333 43.3667C9.9 43.4333 9.96666 43.5 9.96666 43.6333V46.6667C9.96666 47.6 10.7 48.3333 11.6333 48.3333H26.7333C26.7 48.9 26.6333 49.4333 26.6333 50C26.6333 50.5667 26.6667 51.1 26.7333 51.6667H11.6667ZM24.0667 78.3C23.4 78.9667 23.4 80 24.0667 80.6667L26.2333 82.8333C26.2333 82.8333 26.3 83 26.2333 83.1667C26.1667 83.4 25.9333 83.5667 25.7 83.5333L17.1333 83.1C17.1333 83.1 16.9667 83.0333 16.9667 82.9L16.5333 74.3667C16.5333 74.1333 16.6667 73.9333 16.9 73.8333C17.0333 73.7667 17.1667 73.7667 17.2333 73.8333L19.3667 75.9667C20.0333 76.6333 21.0667 76.6333 21.7333 75.9667L32.4 65.3C33.1333 66.1333 33.9333 66.9333 34.7667 67.6667L24.1 78.3333L24.0667 78.3ZM53.3333 90H56.3667C56.3667 90 56.5667 90.0667 56.6333 90.2333C56.7333 90.4333 56.6667 90.7 56.5 90.8667L50.1 96.6333C50.1 96.6333 49.9333 96.7 49.8667 96.6333L43.5 90.9C43.5 90.9 43.3 90.5 43.3667 90.2667C43.4333 90.1 43.5 90.0333 43.6333 90.0333H46.6667C47.6 90.0333 48.3333 89.3 48.3333 88.3667V73.2667C48.9 73.3 49.4333 73.3667 50 73.3667C50.5667 73.3667 51.1 73.3333 51.6667 73.2667V88.3667C51.6667 89.3 52.4 90.0333 53.3333 90.0333V90ZM78.3 75.9333C78.9667 76.6 80 76.6 80.6667 75.9333L82.8333 73.7667C82.8333 73.7667 83 73.7 83.1667 73.7667C83.4 73.8667 83.5333 74.0667 83.5333 74.3L83.1 82.8667C83.1 82.8667 83.0333 83.0333 82.9 83.0333L74.3667 83.4667C74.0333 83.5 73.8667 83.1667 73.8333 83.1C73.7667 82.9667 73.7667 82.8333 73.8333 82.7667L75.9667 80.6333C76.6333 79.9667 76.6333 78.9333 75.9667 78.2667L65.3 67.6C66.1333 66.8667 66.9333 66.0667 67.6667 65.2333L78.3333 75.9L78.3 75.9333ZM50 70C38.9667 70 30 61.0333 30 50C30 38.9667 38.9667 30 50 30C61.0333 30 70 38.9667 70 50C70 61.0333 61.0333 70 50 70ZM96.6 50.1333L90.8667 56.5C90.7 56.6667 90.4667 56.7 90.2333 56.6333C90.0667 56.5667 90 56.5 90 56.3667V53.3333C90 52.4 89.2667 51.6667 88.3333 51.6667H73.2333C73.2667 51.1 73.3333 50.5667 73.3333 50C73.3333 49.4333 73.3 48.9 73.2333 48.3333H88.3333C89.2667 48.3333 90 47.6 90 46.6667V43.6333C90 43.6333 90.0667 43.4333 90.2333 43.3667C90.4333 43.2667 90.7 43.3333 90.8667 43.5L96.6333 49.9C96.6333 49.9 96.7 50.0667 96.6333 50.1333H96.6Z" fill="white"/>
</g>
<defs>
<clipPath id="clip0_40_181">
<rect width="100" height="100" fill="white"/>
</clipPath>
</defs>
</svg>
