<svg width="100" height="100" viewBox="0 0 100 100" fill="none" xmlns="http://www.w3.org/2000/svg">
<g clip-path="url(#clip0_40_162)">
<path d="M21.5 40.5H13.8667C13 40.5 12.3 41.2 12.3 42.0667V51.7667C12.3 52.6333 13 53.3333 13.8667 53.3333H21.5C22.3667 53.3333 23.0667 52.6333 23.0667 51.7667V42.0667C23.0667 41.2 22.3667 40.5 21.5 40.5ZM19.9333 50.2H15.4333V43.6H19.9333V50.2Z" fill="white"/>
<path d="M35.6333 33.9333H28C27.1333 33.9333 26.4333 34.6333 26.4333 35.5V51.7667C26.4333 52.6333 27.1333 53.3333 28 53.3333H35.6333C36.5 53.3333 37.2 52.6333 37.2 51.7667V35.5C37.2 34.6333 36.5 33.9333 35.6333 33.9333ZM34.0667 50.2H29.5667V37.0667H34.0667V50.2Z" fill="white"/>
<path d="M49.7667 42.6666H42.1333C41.2667 42.6666 40.5667 43.3666 40.5667 44.2333V51.7666C40.5667 52.6333 41.2667 53.3333 42.1333 53.3333H49.7667C50.6333 53.3333 51.3333 52.6333 51.3333 51.7666V44.2333C51.3333 43.3666 50.6333 42.6666 49.7667 42.6666ZM48.2 50.2H43.7V45.8H48.2V50.2Z" fill="white"/>
<path d="M45.9667 28.5C44.7 28.5 43.5667 28.9333 42.6333 29.6666L35.8333 25.3667C35.9667 24.9333 36.0333 24.4667 36.0333 23.9667C36.0333 21 33.6 18.5667 30.6333 18.5667C27.6667 18.5667 25.2333 21 25.2333 23.9667C25.2333 24.3666 25.2667 24.7333 25.3667 25.1333L20.6 27.1333C19.7667 26.6 18.7667 26.2667 17.6667 26.2667C14.7 26.2667 12.2667 28.7 12.2667 31.6666C12.2667 34.6333 14.7 37.0666 17.6667 37.0666C20.6333 37.0666 23.0667 34.6333 23.0667 31.6666C23.0667 30.9667 22.9333 30.2666 22.6667 29.6666L26.9333 27.9C27.9 28.8333 29.2 29.4 30.6667 29.4C32.0333 29.4 33.2667 28.8666 34.2333 28.0333L40.8667 32.2333C40.7 32.7666 40.5667 33.3333 40.5667 33.9C40.5667 36.8666 43 39.3 45.9667 39.3C48.9333 39.3 51.3667 36.8666 51.3667 33.9C51.3667 30.9333 48.9333 28.5 45.9667 28.5ZM17.7 33.9333C16.4333 33.9333 15.4333 32.9 15.4333 31.6666C15.4333 30.4333 16.4667 29.4 17.7 29.4C18.9333 29.4 19.9667 30.4333 19.9667 31.6666C19.9667 32.9 18.9333 33.9333 17.7 33.9333ZM30.6667 26.2667C29.4 26.2667 28.4 25.2333 28.4 24C28.4 22.7666 29.4333 21.7333 30.6667 21.7333C31.9 21.7333 32.9333 22.7666 32.9333 24C32.9333 25.2333 31.9 26.2667 30.6667 26.2667ZM45.9667 36.1667C44.7 36.1667 43.7 35.1333 43.7 33.9C43.7 32.6666 44.7333 31.6333 45.9667 31.6333C47.2 31.6333 48.2333 32.6666 48.2333 33.9C48.2333 35.1333 47.2 36.1667 45.9667 36.1667Z" fill="white"/>
<path d="M78.5667 10.9001H91C91.8667 10.9001 92.5667 10.2001 92.5667 9.33339C92.5667 8.46672 91.8667 7.76672 91 7.76672H78.5667C77.7 7.76672 77 8.46672 77 9.33339C77 10.2001 77.7 10.9001 78.5667 10.9001Z" fill="white"/>
<path d="M78.5667 15.7H91C91.8667 15.7 92.5667 15 92.5667 14.1333C92.5667 13.2666 91.8667 12.5667 91 12.5667H78.5667C77.7 12.5667 77 13.2666 77 14.1333C77 15 77.7 15.7 78.5667 15.7Z" fill="white"/>
<path d="M78.5667 20.4334H91C91.8667 20.4334 92.5667 19.7334 92.5667 18.8667C92.5667 18 91.8667 17.3 91 17.3H78.5667C77.7 17.3 77 18 77 18.8667C77 19.7334 77.7 20.4334 78.5667 20.4334Z" fill="white"/>
<path d="M98.4334 33H75.6C74.7334 33 74.0333 33.7 74.0333 34.5666V43.2333H62.7C63.3334 40.7666 63.7 38.2666 63.7 35.6666C63.7667 29.8 62.2 24.2 59.3 19.3333L64.3667 15.7H71.8334V24.3333C71.8334 25.2 72.5334 25.9 73.4 25.9H96.2334C97.1 25.9 97.8 25.2 97.8 24.3666V3.89998C97.8 3.03331 97.1 2.33331 96.2334 2.33331H73.4C72.5334 2.33331 71.8334 3.03331 71.8334 3.89998V12.5333H63.9C63.5667 12.5333 63.2667 12.6333 62.9667 12.8333L57.5334 16.7C56.6334 15.4666 55.6667 14.3 54.5667 13.2C42.2667 0.899979 22.0333 1.06665 9.53335 13.6333C-2.99999 26.1666 -3.16665 46.4 9.10001 58.7C15 64.6 22.8333 67.8333 31.2333 67.8333C31.3333 67.8333 31.4333 67.8333 31.5667 67.8333C34.6667 67.8333 37.6667 67.3333 40.5667 66.4333V83.1666H33.3V74.5333C33.3 73.6666 32.6 72.9666 31.7333 72.9666H8.90001C8.03335 72.9666 7.33335 73.6666 7.33335 74.5333V94.9666C7.33335 95.8333 8.03335 96.5333 8.90001 96.5333H31.7667C32.6333 96.5333 33.3333 95.8333 33.3 94.9666V86.3H42.1334C43 86.3 43.7 85.6 43.7 84.7333V65.3C45.9 64.3666 47.9667 63.2 49.9333 61.8L53.5 65.3666L52.8667 66C52.3333 66.5666 52.2667 67.4333 52.7333 68.0333C60.4 78.4333 69.2667 87.7333 79.1 95.6333C80.7334 96.9666 82.7334 97.6 84.7 97.6C86.9667 97.6 89.2 96.7333 90.9 95C94.0334 91.8666 94.3334 86.8666 91.6 83.3333C83.8 73.3333 74.4333 64.4333 63.8 56.9C63.2 56.4666 62.3334 56.5333 61.8 57.0666L61.3334 57.5333L57.7667 53.9666C59.4667 51.6 60.8 49 61.8 46.3H74.1V54.9333C74.1 55.8 74.8 56.5 75.6667 56.5H98.5C99.3667 56.5 100.067 55.8 100.067 54.9333V34.5C100.067 33.6333 99.3667 32.9333 98.5 32.9333L98.4334 33ZM94.6667 5.46665V22.7666H74.9667V14.2333C74.9667 14.2333 74.9667 14.1666 74.9667 14.1333C74.9667 14.1 74.9667 14.0666 74.9667 14.0333V5.46665H94.6667ZM30.1667 93.3666H10.4667V76.0333H30.1667V93.3666ZM31.5 64.7H31.2C23.6333 64.7 16.5667 61.7666 11.2667 56.5C5.90001 51.1333 2.96668 43.9666 3.06668 36.3C3.16668 28.6 6.20001 21.3666 11.7 15.8666C17.2 10.3666 24.4333 7.33331 32.1334 7.23331H32.4333C40 7.23331 47.0667 10.1666 52.3667 15.4333C53.7 16.7666 54.9 18.2333 55.9334 19.7666C59 24.4 60.6334 29.8666 60.5667 35.6333C60.5 43.3333 57.4333 50.5666 51.9333 56.0666C46.4333 61.5666 39.2 64.6 31.5 64.7ZM88.6667 92.8666C86.6 94.9 83.3334 95.0666 81.0334 93.2333C80.2 92.5666 79.4 91.8333 78.5667 91.1333L86.9667 82.7333C87.6667 83.6 88.4 84.4666 89.1 85.3333C90.8667 87.6 90.7 90.8666 88.6667 92.8666ZM84.9667 80.3L76.2334 89.0333C68.8667 82.5333 62.0667 75.2666 56.0334 67.2333L63.0667 60.2333C71.2 66.1333 78.5334 72.8666 85 80.2666L84.9667 80.3ZM59.0667 59.8L55.7 63.1666L52.4 59.8666C53 59.3333 53.6 58.8333 54.1667 58.2666C54.7334 57.7 55.2334 57.1 55.7667 56.5333L59.0667 59.8333V59.8ZM96.8667 53.4333H77.1667V36.1H96.8667V53.4333Z" fill="white"/>
<path d="M80.8 41.5667H93.2333C94.1 41.5667 94.8 40.8667 94.8 40C94.8 39.1334 94.1 38.4333 93.2333 38.4333H80.8C79.9333 38.4333 79.2333 39.1334 79.2333 40C79.2333 40.8667 79.9333 41.5667 80.8 41.5667Z" fill="white"/>
<path d="M80.8 46.3333H93.2333C94.1 46.3333 94.8 45.6333 94.8 44.7666C94.8 43.9 94.1 43.2 93.2333 43.2H80.8C79.9333 43.2 79.2333 43.9 79.2333 44.7666C79.2333 45.6333 79.9333 46.3333 80.8 46.3333Z" fill="white"/>
<path d="M80.8 51.1H93.2333C94.1 51.1 94.8 50.4 94.8 49.5333C94.8 48.6667 94.1 47.9667 93.2333 47.9667H80.8C79.9333 47.9667 79.2333 48.6667 79.2333 49.5333C79.2333 50.4 79.9333 51.1 80.8 51.1Z" fill="white"/>
<path d="M14.1 91.0334H26.5333C27.4 91.0334 28.1 90.3334 28.1 89.4667C28.1 88.6 27.4 87.9 26.5333 87.9H14.1C13.2333 87.9 12.5333 88.6 12.5333 89.4667C12.5333 90.3334 13.2333 91.0334 14.1 91.0334Z" fill="white"/>
<path d="M14.1 86.2666H26.5333C27.4 86.2666 28.1 85.5666 28.1 84.7C28.1 83.8333 27.4 83.1333 26.5333 83.1333H14.1C13.2333 83.1333 12.5333 83.8333 12.5333 84.7C12.5333 85.5666 13.2333 86.2666 14.1 86.2666Z" fill="white"/>
<path d="M14.1 81.5334H26.5333C27.4 81.5334 28.1 80.8334 28.1 79.9667C28.1 79.1 27.4 78.4 26.5333 78.4H14.1C13.2333 78.4 12.5333 79.1 12.5333 79.9667C12.5333 80.8334 13.2333 81.5334 14.1 81.5334Z" fill="white"/>
</g>
<defs>
<clipPath id="clip0_40_162">
<rect width="100" height="100" fill="white"/>
</clipPath>
</defs>
</svg>
