<svg width="150" height="150" viewBox="0 0 150 150" fill="none" xmlns="http://www.w3.org/2000/svg">
<path fill-rule="evenodd" clip-rule="evenodd" d="M113.583 46.8815C115.627 48.9249 115.627 52.238 113.583 54.2814L64.7461 103.119C62.7027 105.162 59.3896 105.162 57.3462 103.119L36.4159 82.1884C34.3725 80.1449 34.3725 76.8319 36.4159 74.7884C38.4594 72.745 41.7725 72.745 43.8159 74.7884L61.0462 92.0187L106.183 46.8815C108.227 44.838 111.54 44.838 113.583 46.8815Z" fill="#4CAD36"/>
<path fill-rule="evenodd" clip-rule="evenodd" d="M0 75C0 33.5786 33.5786 0 75 0C116.421 0 150 33.5786 150 75C150 116.421 116.421 150 75 150C33.5786 150 0 116.421 0 75ZM75 10.4651C39.3584 10.4651 10.4651 39.3584 10.4651 75C10.4651 110.641 39.3584 139.535 75 139.535C110.641 139.535 139.535 110.641 139.535 75C139.535 39.3584 110.641 10.4651 75 10.4651Z" fill="#4CAD36"/>
</svg>
