<svg width="92" height="90" viewBox="0 0 92 90" fill="none" xmlns="http://www.w3.org/2000/svg">
<path d="M88.9333 83.8807V35.425C88.9333 31.7748 85.9587 28.807 82.3001 28.807H64.4V6.58167C64.4 6.31854 64.3417 3.01106 61.4591 1.08348C58.5764 -0.84104 55.4883 0.364462 55.2429 0.462371L10.2396 18.9518C7.7464 19.9768 6.13333 22.3756 6.13333 25.0711V83.8807H3.06667C1.37387 83.8807 0 85.2514 0 86.9404C0 88.6293 1.37387 90 3.06667 90H88.9333C90.6261 90 92 88.6293 92 86.9404C92 85.2514 90.6261 83.8807 88.9333 83.8807ZM12.2667 25.0711C12.2667 24.8692 12.3893 24.6887 12.5764 24.6122L57.5797 6.12579C57.7484 6.05847 57.9017 6.07377 58.0459 6.17168C58.1931 6.26653 58.2667 6.40421 58.2667 6.58167V83.8807H12.2667V25.0711ZM64.4 83.8807V34.9263H82.3001C82.5761 34.9263 82.8 35.1496 82.8 35.425V83.8807H64.4Z" fill="white"/>
<path d="M42.9333 68.5824H27.6C25.9072 68.5824 24.5333 69.9532 24.5333 71.6421C24.5333 73.331 25.9072 74.7017 27.6 74.7017H42.9333C44.6261 74.7017 46 73.331 46 71.6421C46 69.9532 44.6261 68.5824 42.9333 68.5824Z" fill="white"/>
<path d="M42.9333 56.3438H27.6C25.9072 56.3438 24.5333 57.7146 24.5333 59.4035C24.5333 61.0924 25.9072 62.4631 27.6 62.4631H42.9333C44.6261 62.4631 46 61.0924 46 59.4035C46 57.7146 44.6261 56.3438 42.9333 56.3438Z" fill="white"/>
<path d="M42.9333 44.1052H27.6C25.9072 44.1052 24.5333 45.476 24.5333 47.1649C24.5333 48.8538 25.9072 50.2245 27.6 50.2245H42.9333C44.6261 50.2245 46 48.8538 46 47.1649C46 45.476 44.6261 44.1052 42.9333 44.1052Z" fill="white"/>
<path d="M42.9333 31.8666H27.6C25.9072 31.8666 24.5333 33.2374 24.5333 34.9263C24.5333 36.6152 25.9072 37.9859 27.6 37.9859H42.9333C44.6261 37.9859 46 36.6152 46 34.9263C46 33.2374 44.6261 31.8666 42.9333 31.8666Z" fill="white"/>
</svg>
