<svg width="71" height="75" viewBox="0 0 71 75" fill="none" xmlns="http://www.w3.org/2000/svg">
<g clip-path="url(#clip0_152_281)">
<path d="M13.8303 74.389C14.6352 73.5762 14.6352 72.2584 13.8303 71.4456C13.0254 70.6329 11.7204 70.6329 10.9155 71.4456C10.1106 72.2584 10.1106 73.5762 10.9155 74.389C11.7204 75.2017 13.0254 75.2017 13.8303 74.389Z" fill="white"/>
<path fill-rule="evenodd" clip-rule="evenodd" d="M28.8733 70.8337H18.5606C17.4205 70.8337 16.4996 71.7675 16.4996 72.915C16.4996 74.0625 17.4242 74.9962 18.5606 74.9962H28.8733C30.0134 74.9962 30.9343 74.0625 30.9343 72.915C30.9343 71.7675 30.0097 70.8337 28.8733 70.8337Z" fill="white"/>
<path fill-rule="evenodd" clip-rule="evenodd" d="M12.3737 62.505C12.3737 61.3538 11.449 60.4238 10.3127 60.4238H2.06105C0.920975 60.4238 0 61.3575 0 62.505C0 63.6525 0.924688 64.5863 2.06105 64.5863H10.309C11.449 64.5863 12.37 63.6525 12.37 62.505H12.3737Z" fill="white"/>
<path d="M3.51834 49.4007C4.32324 48.588 4.32323 47.2702 3.51834 46.4574C2.71345 45.6446 1.40847 45.6446 0.603578 46.4574C-0.201313 47.2702 -0.201314 48.588 0.603577 49.4007C1.40847 50.2135 2.71345 50.2135 3.51834 49.4007Z" fill="white"/>
<path d="M9.70391 9.83287C10.5088 9.02009 10.5088 7.70232 9.70392 6.88954C8.89902 6.07676 7.59404 6.07676 6.78915 6.88954C5.98426 7.70232 5.98426 9.02009 6.78915 9.83287C7.59404 10.6457 8.89902 10.6457 9.70391 9.83287Z" fill="white"/>
<path fill-rule="evenodd" clip-rule="evenodd" d="M14.4348 10.44H24.7475C25.8875 10.44 26.8085 9.50628 26.8085 8.35878C26.8085 7.21128 25.8838 6.27753 24.7475 6.27753H14.4348C13.2947 6.27753 12.3737 7.21128 12.3737 8.35878C12.3737 9.50628 13.2984 10.44 14.4348 10.44Z" fill="white"/>
<path fill-rule="evenodd" clip-rule="evenodd" d="M69.8455 41.6775C68.0778 32.985 63.6661 25.0612 57.2267 19.0237C55.2733 17.25 53.086 15.7687 50.7279 14.6062L53.9216 5.89872C54.2112 5.09997 53.9958 4.19997 53.3645 3.62622C50.0186 1.06497 45.8705 -0.210028 41.6741 0.0299723C37.4666 -0.191278 33.3222 1.10997 29.9799 3.69747C29.3486 4.26372 29.1332 5.16372 29.4229 5.96247L32.6166 14.61C29.538 16.1362 26.7491 18.195 24.3687 20.6925C22.5007 22.6462 20.8408 24.7987 19.4222 27.105H8.67499C7.53491 27.105 6.61022 28.035 6.61022 29.1862C6.61022 30.3375 7.53491 31.2712 8.67499 31.2712H17.0863C14.8321 35.8312 13.4358 40.7737 12.9605 45.8475H8.67499C7.53491 45.8475 6.61022 46.7812 6.61022 47.9325C6.61022 49.0837 7.53491 50.0137 8.67499 50.0137H12.8008C13.6067 65.0737 26.0844 70.8375 41.6741 70.8375C45.2726 70.875 48.8599 70.5112 52.3767 69.7575C53.6245 69.48 64.0894 66.9712 68.6572 56.805C71.6949 50.0325 70.3691 43.74 69.8418 41.685L69.8455 41.6775ZM43.9097 49.0087C43.3898 49.83 42.6582 50.445 41.7075 50.8462C40.7605 51.2475 39.5796 51.45 38.161 51.45C36.1 51.45 34.518 50.97 33.4113 50.01C32.3047 49.05 31.6474 47.6475 31.4283 45.8062L34.6331 45.4912C34.8299 46.575 35.2198 47.3737 35.8103 47.8837C36.4008 48.3937 37.1955 48.645 38.1944 48.645C39.2528 48.645 40.055 48.4162 40.5897 47.9625C41.1245 47.5162 41.3956 46.9837 41.3956 46.38C41.3956 45.99 41.2842 45.6562 41.0576 45.3862C40.8311 45.1087 40.4375 44.8762 39.873 44.6737C39.4831 44.5387 38.6067 44.2987 37.2363 43.9575C35.4724 43.515 34.2283 42.975 33.519 42.33C32.5163 41.4225 32.015 40.32 32.015 39.0187C32.0113 38.1787 32.2452 37.395 32.7169 36.6675C33.1885 35.9362 33.8681 35.3775 34.7519 34.9987C35.6395 34.62 36.7053 34.425 37.9605 34.425C40.0067 34.4212 41.5515 34.8712 42.5802 35.7787C43.6126 36.6862 44.1622 37.8937 44.2105 39.4087L40.9165 39.555C40.7754 38.7112 40.4709 38.1075 40.0067 37.7325C39.5425 37.3612 38.8517 37.1775 37.9196 37.1775C36.9875 37.1775 36.2151 37.3762 35.6766 37.7737C35.3313 38.0287 35.153 38.3662 35.153 38.7937C35.1567 39.1837 35.3201 39.5175 35.6469 39.7912C36.0665 40.1475 37.0729 40.5075 38.6735 40.89C40.2741 41.2725 41.4624 41.6625 42.2274 42.0712C42.9924 42.4762 43.5977 43.035 44.0322 43.74C44.4667 44.445 44.6821 45.3187 44.6821 46.3612C44.6821 47.3025 44.4259 48.1912 43.906 49.0125L43.9097 49.0087ZM46.9957 51.435H44.697L48.7188 34.4062H51.0658L46.9957 51.435Z" fill="white"/>
</g>
<defs>
<clipPath id="clip0_152_281">
<rect width="70.5882" height="75" fill="white"/>
</clipPath>
</defs>
</svg>
