<svg width="262" height="60" viewBox="0 0 262 60" fill="none" xmlns="http://www.w3.org/2000/svg">
<path fill-rule="evenodd" clip-rule="evenodd" d="M244.575 34.6503C245.232 34.9741 245.232 35.9326 245.232 36.5803V41.8135C245.232 42.4611 245.232 43.4197 244.575 43.7435H247.401C246.639 43.3161 246.639 42.785 246.639 42.0337V35.7254H247.612C248.703 35.7254 249.57 36.2565 249.57 37.4352C249.57 38.614 248.269 39.4689 247.073 39.5725C247.401 39.6762 247.73 39.7927 248.045 39.7927C249.675 39.7927 251.187 38.8342 251.187 37.228C251.187 35.6218 249.78 34.7668 247.927 34.7668H244.457L244.575 34.6503ZM240.566 39.3523H241.657C242.091 39.3523 242.63 39.3523 242.959 39.7798V38.2772H240.566V35.7124H241.973C242.406 35.7124 243.169 35.7124 243.603 36.2435V34.6373H238.397C239.16 34.9611 239.055 35.9197 239.055 36.5674V41.8005C239.055 42.4482 239.055 43.4067 238.397 43.7306H241.105C240.448 43.5104 240.566 42.4482 240.566 41.8005V39.2357V39.3523ZM234.047 39.3523H231.221L232.627 35.829L234.034 39.3523H234.047ZM234.48 40.4275L235.243 42.3575C235.677 43.3161 235.782 43.5363 235.019 43.7435H237.951C237.188 43.3161 236.86 42.5648 236.544 41.8135L233.613 34.6503H231.339C231.996 34.8705 231.773 35.5052 231.562 35.9326L229.17 41.7098C228.842 42.4611 228.631 43.3161 227.764 43.6399H230.366C229.709 43.4197 229.827 42.9922 230.038 42.2539L230.8 40.3238H234.375L234.48 40.4275ZM220.916 39.7798L224.386 34.6503H221.888C222.651 35.0777 222.322 35.7254 222.112 36.0363L220.377 38.601L218.103 34.9611C217.879 34.6373 217.446 34.5337 217.012 34.5337H215.71C216.368 34.8575 216.683 35.3886 217.012 35.9197L219.404 39.6632V41.6969C219.404 42.3446 219.404 43.3031 218.865 43.6269H221.573C220.81 43.0958 220.81 42.6684 220.81 41.9171V39.6762L220.916 39.7798ZM210.505 34.7539C209.848 34.5337 209.099 34.43 208.442 34.43C206.707 34.43 204.866 35.0777 204.866 36.8912C204.866 39.8834 209.743 39.456 209.743 41.5933C209.743 43.7306 208.547 42.9793 207.679 42.9793C206.812 42.9793 205.405 42.5518 204.643 41.8005L205.077 43.5104C205.839 43.8342 206.707 43.9378 207.574 43.9378C209.743 43.9378 211.373 42.5518 211.373 41.0492C211.373 38.4845 206.496 38.4845 206.496 36.5544C206.496 34.6243 207.469 35.272 208.337 35.272C209.204 35.272 209.966 35.5959 210.505 36.1269V34.5207V34.7539ZM198.899 35.4016C201.173 35.4016 202.474 37.3316 202.474 39.3523C202.474 41.3731 201.068 42.9922 199.004 42.9922C196.94 42.9922 195.429 40.9586 195.429 39.0415C195.429 37.1244 196.835 35.4016 199.004 35.4016H198.899ZM199.004 34.443C196.073 34.443 193.694 36.5803 193.694 39.2487C193.694 41.9171 196.086 44.0544 198.794 44.0544C201.502 44.0544 203.999 42.0207 203.999 39.1321C203.999 36.2435 201.935 34.43 199.004 34.43V34.443ZM186.307 34.6503C187.069 34.9741 186.964 35.9326 186.964 36.5803V41.8135C186.964 42.4611 186.964 43.4197 186.307 43.7435H189.014C188.252 43.5233 188.357 42.4611 188.357 41.8135V35.6088C188.686 35.6088 189.014 35.6088 189.33 35.5052C190.303 35.5052 191.17 36.0363 191.17 37.0078C191.17 37.9793 189.869 38.8212 188.778 39.0415L190.079 40.9715L191.814 43.1088C192.248 43.6399 192.682 43.7565 193.444 43.7565H194.745C193.983 43.2254 193.01 42.5777 192.471 41.8264L190.408 39.2617C191.604 39.0415 192.682 38.0829 192.682 36.8005C192.682 35.5181 191.709 34.5596 189.751 34.5596H186.386L186.28 34.6632L186.307 34.6503ZM183.047 43.8472H185.111C184.348 43.5233 184.453 42.5648 184.453 41.9171V36.6839C184.453 36.0363 184.453 35.0777 185.111 34.7539H182.403C183.06 34.9741 183.06 36.0363 183.06 36.6839V40.8549C183.06 41.386 183.06 41.7098 182.732 42.1373C182.298 42.785 181.43 43.0959 180.668 43.0959C179.261 43.0959 178.394 42.2409 178.394 40.4275V36.6839C178.394 36.0363 178.394 35.0777 179.051 34.7539H176.343C177.106 34.9741 177.001 36.0363 177.001 36.6839V40.4275C177.001 41.386 177.001 42.3575 177.763 43.2124C178.42 43.8601 179.393 44.171 180.366 44.171C181.338 44.171 182.534 43.8471 183.073 42.9922V43.9508V43.8472H183.047ZM174.806 34.6503C174.043 34.5466 173.281 34.43 172.637 34.43C169.272 34.43 166.774 36.2435 166.774 39.2357C166.774 42.228 168.943 43.9378 172.532 43.9378C176.12 43.9378 174.806 43.7176 175.896 43.5104V39.0155H173.728C174.385 39.2357 174.385 39.9741 174.385 40.6218V42.6554C173.728 42.8756 173.084 42.8756 172.426 42.8756C170.152 42.8756 168.417 41.1658 168.417 38.9249C168.417 36.6839 170.047 35.285 172.321 35.285C174.595 35.285 174.28 35.5052 174.819 36.1399V34.5337V34.6373L174.806 34.6503ZM161.674 39.3523H162.765C163.199 39.3523 163.738 39.3523 164.067 39.7798V38.2772H161.793V35.7124H163.199C163.633 35.7124 164.395 35.7124 164.829 36.2435V34.6373H159.624C160.386 34.9611 160.281 35.9197 160.281 36.5674V41.8005C160.281 42.4482 160.281 43.4067 159.624 43.7306H165.486L166.143 41.9171C165.381 42.5648 164.408 42.772 163.541 42.772L161.806 42.5518V39.2357L161.701 39.3394L161.674 39.3523ZM157.665 34.7539C157.008 34.5337 156.259 34.43 155.602 34.43C153.867 34.43 152.027 35.0777 152.027 36.8912C152.027 39.8834 156.903 39.456 156.903 41.5933C156.903 43.7306 155.707 42.9793 154.839 42.9793C153.972 42.9793 152.565 42.5518 151.803 41.8005L152.237 43.5104C152.999 43.8342 153.867 43.9378 154.734 43.9378C156.903 43.9378 158.533 42.5518 158.533 41.0492C158.533 38.4845 153.656 38.4845 153.656 36.5544C153.656 34.6243 154.629 35.272 155.497 35.272C156.364 35.272 157.126 35.5959 157.665 36.1269V34.5207V34.7539ZM145.178 45.3497C145.402 45.3497 145.612 45.1295 145.717 45.0259C146.151 44.5984 146.585 43.9508 146.585 43.3161C146.585 42.6813 146.256 42.3575 145.717 42.3575C145.178 42.3575 144.85 42.6813 144.85 43.2124C144.85 43.7435 145.178 43.8601 145.507 43.9637C145.507 43.9637 145.73 43.9637 145.73 44.0674C145.73 44.3912 144.968 45.1425 144.758 45.3497H145.297H145.178ZM139.763 39.3523H136.937L138.343 35.829L139.75 39.3523H139.763ZM140.078 40.4275L140.841 42.3575C141.275 43.3161 141.38 43.5363 140.617 43.7435H143.548C142.786 43.3161 142.457 42.5648 142.142 41.8135L139.211 34.6503H136.937C137.594 34.8705 137.371 35.5052 137.16 35.9326L134.768 41.7098C134.439 42.4611 134.229 43.3161 133.362 43.6399H135.964C135.307 43.4197 135.425 42.9922 135.636 42.2539L136.398 40.3238H139.973L140.078 40.4275ZM132.704 34.7539C131.837 34.5337 130.969 34.43 130.102 34.43C127.171 34.43 125.107 36.3601 125.107 39.2357C125.107 42.1114 127.171 44.0414 130.536 44.0414C133.901 44.0414 132.06 43.9378 132.704 43.614L133.467 42.0078C132.494 42.5389 131.508 42.8627 130.43 42.8627C128.262 42.8627 126.855 41.0492 126.855 39.0155C126.855 36.9819 128.157 35.5959 130.115 35.5959C132.074 35.5959 131.955 35.9197 132.718 36.3472V34.7409L132.704 34.7539ZM116.971 36.6839L121.847 42.6684C122.505 43.4197 122.938 43.9508 123.911 44.2746V36.4637C123.911 35.7124 123.911 35.1813 124.673 34.7539H122.176C122.938 35.1813 122.938 35.7124 122.938 36.4637V41.6969L117.733 35.285L117.51 34.9611C117.51 34.8575 117.405 34.7409 117.286 34.6373H115.223C115.985 35.0648 115.985 35.5959 115.985 36.4508V42.0078C115.985 42.7591 115.985 43.2901 115.223 43.7176H117.72C116.958 43.2901 116.958 42.7591 116.958 42.0078V36.658L116.971 36.6839ZM110.78 39.3523H107.954L109.36 35.829L110.767 39.3523H110.78ZM111.214 40.4275L111.976 42.3575C112.41 43.3161 112.515 43.5363 111.753 43.7435H114.684C113.921 43.3161 113.593 42.5648 113.277 41.8135L110.346 34.6503H108.072C108.729 34.8705 108.506 35.5052 108.296 35.9326L105.903 41.7098C105.575 42.4611 105.364 43.3161 104.497 43.6399H107.099C106.442 43.4197 106.561 42.9922 106.771 42.2539L107.533 40.3238H111.108L111.214 40.4275ZM98.9631 35.7254H99.9358C100.803 35.5052 101.671 36.0492 101.671 37.0078C101.671 37.9663 100.37 38.5104 99.3969 38.5104H98.9631V35.7254ZM98.9631 42.6684V39.2487H99.9358C101.132 39.1451 102.538 39.6762 102.538 41.0622C102.538 42.4482 101.342 42.8756 100.264 42.772H99.0683L98.9631 42.6684ZM97.4384 41.8135C97.4384 42.4611 97.4384 43.4197 96.7812 43.7435H99.0551C100.146 43.7435 101.224 43.7435 102.197 43.3161C103.169 42.8886 103.932 41.93 103.932 40.8549C103.932 39.7798 102.959 38.614 101.658 38.3938C102.42 38.07 103.064 37.5389 103.064 36.5803C103.064 35.6218 101.973 34.5466 100.133 34.5466H96.768C97.5304 34.8705 97.4253 35.829 97.4253 36.4767V41.8264L97.4384 41.8135ZM87.5671 39.3523H88.658C89.0918 39.3523 89.6307 39.3523 89.9593 39.7798V38.2772H87.6854V35.7124H89.0918C89.5256 35.7124 90.2879 35.7124 90.7217 36.2435V34.6373H85.5166C86.2789 34.9611 86.1738 35.9197 86.1738 36.5674V41.8005C86.1738 42.4482 86.1738 43.4067 85.5166 43.7306H91.3789L92.0361 41.9171C91.2737 42.5648 90.3011 42.772 89.4335 42.772L87.6985 42.5518V39.2357L87.5934 39.3394L87.5671 39.3523ZM77.8009 35.829C78.2346 35.829 78.6684 35.7254 79.1022 35.7254C81.4944 35.7254 82.7957 36.9041 82.7957 39.3653C82.7957 41.8264 80.9555 42.8886 78.7867 42.8886C76.6179 42.8886 78.1295 42.8886 77.814 42.8886V35.829H77.8009ZM76.3944 41.8135C76.3944 42.6684 76.3944 43.3161 75.7372 43.7435H79.1022C82.2436 43.7435 84.4124 41.8135 84.4124 39.1451C84.4124 36.4767 82.4539 34.6503 79.2073 34.6503H75.7372C76.4996 34.8705 76.3944 35.9326 76.3944 36.5803V41.8135ZM75.6321 15.829C74.7645 14.8705 73.4633 14.443 72.2671 14.443C71.071 14.443 69.5594 14.8705 69.5594 16.2565C69.5594 17.6425 69.9932 17.4352 70.6504 17.8627C70.979 18.0829 71.4128 18.2902 71.8465 18.5104C72.2803 18.7306 72.7141 18.9378 73.253 19.158C75.0932 19.9093 77.0517 20.8679 77.0517 22.7979C77.0517 24.728 74.5542 27.0725 71.1893 27.0725C67.8244 27.0725 68.4816 26.8523 67.2855 26.4249L66.5231 23.6399L66.7466 23.8601C68.0478 24.9352 69.7829 25.57 71.4128 25.57C73.0427 25.57 74.4491 24.9223 74.4491 23.5363C74.4491 22.1503 74.0153 22.2539 73.3581 21.8264C73.0295 21.6062 72.5957 21.399 72.162 21.1788C71.7282 20.9586 71.2945 20.7513 70.7556 20.6477C68.9154 19.8964 66.9569 18.9378 66.9569 16.6969C66.9569 14.456 69.888 13.057 72.4906 13.057C75.0932 13.057 74.6594 13.1606 75.7504 13.4845V16.0492V15.829H75.6321ZM87.8957 25.3497C86.923 26.4249 85.188 26.8523 83.7684 26.8523C82.3488 26.8523 80.732 26.4249 79.7594 25.4663C79.2205 24.8187 78.8919 24.1839 78.7867 23.5363C78.6815 22.8886 78.6815 22.1503 78.6815 21.399V14.443C78.6815 13.9119 78.3529 13.4845 77.814 13.2643V13.044H82.0465V13.2643C81.5076 13.4845 81.2841 13.9119 81.179 14.443V21.399C81.179 24.0674 82.3751 25.2461 84.5439 25.2461C86.7127 25.2461 86.9361 24.8187 87.6854 23.8601C87.9088 23.5363 88.014 23.329 88.1191 23.0052V14.3394C88.1191 13.8083 87.7905 13.3808 87.2516 13.1606V12.9404H91.4841V13.1606C90.9451 13.3808 90.7217 13.8083 90.6165 14.3394V25.1425C90.6165 25.6736 91.0503 26.101 91.4841 26.3212V26.5415H88.1191V25.3627H87.8957V25.3497ZM128.038 26.3083C128.472 26.0881 128.577 25.6606 128.695 25.2332V14.5337C128.695 14.0026 128.367 13.5751 127.828 13.3549V13.1347H132.06V13.3549C131.521 13.5751 131.298 14.0026 131.193 14.5337V25.3368C131.193 25.8679 131.627 26.2953 132.06 26.5155V26.7358H126.198C125.002 26.7358 124.24 26.4119 123.595 25.6606L120.993 22.5648L118.929 19.5725H119.034C120.769 19.3523 122.728 18.614 122.728 16.6839C122.728 14.7539 121.427 14.443 120.02 14.5466C119.586 14.5466 119.048 14.5466 118.614 14.6503V25.2332C118.614 25.7642 119.048 26.1917 119.481 26.3083V26.5285H115.144V26.3083C115.683 26.0881 115.906 25.6606 116.011 25.1295V14.3264C116.011 13.7953 115.683 13.3679 115.144 13.1477V12.9275H120.349C123.28 12.9275 124.91 14.3135 124.91 16.2435C124.91 18.1736 123.28 19.456 121.545 19.8834L124.581 23.4067C125.449 24.3653 126.645 25.3368 127.841 26.0751L128.065 26.2953L128.038 26.3083ZM98.2008 13.1606C101.027 13.1606 103.301 14.443 103.301 16.8005C103.301 19.158 100.908 20.6477 98.4242 20.6477C95.94 20.6477 97.3333 20.6477 96.7943 20.3238H96.5709C96.5709 20.2202 96.8995 20.2202 96.8995 20.2202C98.7397 20.2202 100.698 19.0415 100.698 17.228C100.698 15.4145 99.3969 14.7668 97.6618 14.7668C95.9268 14.7668 96.6892 14.7668 96.2554 14.8705V24.7021C96.2554 24.9223 96.2554 25.1295 96.3606 25.3497C96.4657 25.7772 96.7943 26.101 97.3332 26.4249V26.6451H92.8905V26.4249C93.4294 26.2047 93.6529 25.7772 93.758 25.2461V14.443C93.758 13.9119 93.4294 13.4845 92.8905 13.2643V13.044H98.2008V13.1606ZM107.428 24.7021L110.136 24.9223C111.542 25.0259 113.067 24.5984 114.145 23.7435L114.368 23.5233L113.277 26.5155H104.05V26.2953C104.589 26.0751 104.812 25.6477 104.917 25.1166V14.3135C104.917 13.7824 104.589 13.3549 104.05 13.1347V12.9145H112.186V15.5829H112.081C111.424 14.728 110.556 14.6244 109.584 14.6244C108.611 14.6244 108.177 14.6244 107.415 14.728V18.3679H109.912C110.241 18.3679 110.57 18.3679 110.885 18.2643H110.99V20.5052H110.885C110.78 20.285 110.451 20.1813 110.123 20.0777H107.52V24.7798L107.415 24.6762L107.428 24.7021ZM136.398 24.5984C136.398 24.8187 136.398 25.0259 136.503 25.2461C136.608 25.6736 136.937 25.9974 137.476 26.3212V26.5415H133.467V26.3212C134.663 25.6736 134.663 24.9352 134.663 23.7565V15.7383C134.663 14.5596 134.663 13.8083 133.572 13.2772V13.057H136.832C136.832 13.3808 137.055 13.4845 137.16 13.5881L137.489 14.0156L145.297 23.2124V14.9741C145.297 14.7539 145.297 14.5466 145.191 14.3264C145.086 13.899 144.758 13.5751 144.219 13.2513V13.0311H148.123V13.2513C147.032 13.899 147.032 14.6373 147.032 15.7124V27.1503H146.927C145.402 26.6192 144.653 25.9715 143.667 24.7928L136.398 16.1269V24.5984ZM154.839 24.5984C154.839 24.8187 154.839 25.0259 154.945 25.2461C155.05 25.6736 155.378 25.9974 155.917 26.3212V26.5415H151.474V26.3212C152.013 26.101 152.237 25.6736 152.342 25.1425V14.5596H150.502C149.634 14.5596 148.662 14.7798 147.899 15.3109L147.676 15.5311L148.648 12.7461C148.754 12.7461 148.872 12.7461 149.082 12.8497H158.191C158.52 12.8497 158.848 12.8497 159.282 12.7461H159.387L158.52 15.4145V15.1943C158.191 14.5466 157.324 14.443 156.68 14.443H154.839V24.5984ZM163.081 24.7021L165.789 24.9223C167.195 25.0259 168.72 24.5984 169.798 23.7435L170.021 23.5233L168.93 26.5155H159.703V26.2953C160.242 26.0751 160.465 25.6477 160.57 25.1166V14.3135C160.57 13.7824 160.242 13.3549 159.703 13.1347V12.9145H167.839V15.5829H167.734C167.077 14.728 166.209 14.6244 165.237 14.6244C164.264 14.6244 163.83 14.6244 163.068 14.728V18.3679H165.565C165.894 18.3679 166.222 18.3679 166.538 18.2643H166.643V20.5052H166.538C166.433 20.285 166.104 20.1813 165.775 20.0777H163.173V24.7798L163.068 24.6762L163.081 24.7021ZM173.715 24.5984C173.715 24.8187 173.715 25.0259 173.82 25.2461C173.925 25.6736 174.253 25.9974 174.792 26.3212V26.5415H170.783V26.3212C171.98 25.6736 171.98 24.9352 171.98 23.7565V15.7383C171.98 14.5596 171.98 13.8083 170.889 13.2772V13.057H174.148C174.148 13.3808 174.372 13.4845 174.477 13.5881L174.806 14.0156L182.613 23.2124V14.9741C182.613 14.7539 182.613 14.5466 182.508 14.3264C182.403 13.899 182.074 13.5751 181.535 13.2513V13.0311H185.439V13.2513C184.348 13.899 184.348 14.6373 184.348 15.7124V27.1503H184.243C182.718 26.6192 181.969 25.9715 180.983 24.7928L173.715 16.1269V24.5984ZM187.503 15.9326V14.3264C187.503 13.7953 187.174 13.3679 186.635 13.2513V13.0311H191.946C196.94 13.0311 200.082 15.5959 200.082 19.6632C200.082 23.7306 196.717 26.5026 191.84 26.5026H186.53V26.2824C187.069 25.9585 187.293 25.5311 187.398 25.1036V15.9067H187.503V15.9326ZM189.882 24.8187C190.421 24.8187 190.855 24.9223 191.407 24.9223C194.667 24.9223 197.479 23.3161 197.479 19.8964C197.479 16.4767 195.416 14.6632 191.84 14.6632C188.265 14.6632 190.644 14.6632 190 14.8834V24.8316H189.895L189.882 24.8187ZM203.999 24.7021L206.707 24.9223C208.113 25.0259 209.638 24.5984 210.716 23.7435L210.939 23.5233L209.848 26.5155H200.621V26.2953C201.16 26.0751 201.383 25.6477 201.488 25.1166V14.3135C201.488 13.7824 201.16 13.3549 200.621 13.1347V12.9145H208.757V15.5829H208.652C207.995 14.728 207.127 14.6244 206.155 14.6244C205.182 14.6244 204.748 14.6244 203.986 14.728V18.3679H206.483C206.812 18.3679 207.14 18.3679 207.456 18.2643H207.561V20.5052H207.456C207.351 20.285 207.022 20.1813 206.693 20.0777H204.091V24.7798L203.986 24.6762L203.999 24.7021ZM214.199 24.5984C214.199 24.8187 214.199 25.0259 214.304 25.2461C214.409 25.6736 214.738 25.9974 215.277 26.3212V26.5415H211.268V26.3212C212.464 25.6736 212.464 24.9352 212.464 23.7565V15.7383C212.464 14.5596 212.464 13.8083 211.373 13.2772V13.057H214.633C214.633 13.3808 214.856 13.4845 214.961 13.5881L215.29 14.0156L223.098 23.2124V14.9741C223.098 14.7539 223.098 14.5466 222.992 14.3264C222.887 13.899 222.559 13.5751 222.02 13.2513V13.0311H225.924V13.2513C224.833 13.899 224.833 14.6373 224.833 15.7124V27.1503H224.727C223.203 26.6192 222.453 25.9715 221.468 24.7928L214.199 16.1269V24.5984ZM237.951 15.829H237.845C236.649 15.0777 235.243 14.6503 233.836 14.6503C230.905 14.6503 228.842 16.6839 228.842 19.5725C228.842 22.4611 231.01 25.1295 234.27 25.1295C237.53 25.1295 237.53 24.5984 238.936 23.8472H239.16C239.16 23.7435 237.964 26.3083 237.964 26.3083C236.873 26.7358 235.795 26.956 234.599 26.956C229.394 26.956 226.239 24.2876 226.239 19.8964C226.239 15.5052 229.499 12.8368 233.942 12.8368C238.384 12.8368 236.649 13.057 237.951 13.3679V15.9326V15.829ZM240.566 16.0492V14.443C240.566 13.9119 240.238 13.4845 239.699 13.2643V13.044H243.931V13.2643C243.392 13.4845 243.169 13.9119 243.064 14.443V25.2461C243.064 25.7772 243.497 26.2047 243.931 26.4249V26.6451H239.594V26.4249C240.132 26.2047 240.356 25.7772 240.461 25.2461V16.0492H240.566ZM249.347 21.6062L248.256 24.3912C247.822 25.5699 247.717 25.9974 248.689 26.4249V26.6451H244.562V26.4249C245.219 26.101 245.653 25.6736 245.969 25.2461C246.074 25.0259 246.297 24.715 246.402 24.4948C246.507 24.171 246.626 23.9637 246.731 23.6399L250.306 15.1943C250.306 14.9741 250.411 14.8705 250.53 14.6632C250.53 14.443 250.635 14.3394 250.635 14.1321C250.635 13.8083 250.53 13.601 249.978 13.3808V13.1606H253.448L258.009 23.5363C258.114 23.8601 258.232 24.0674 258.337 24.3912C258.442 24.715 258.561 24.9223 258.771 25.1425C259.1 25.6736 259.533 26.101 260.072 26.3212V26.5415H255.406V26.3212C255.945 26.101 256.168 25.8938 256.168 25.6736C256.168 25.57 256.169 25.3497 256.063 25.1425C256.063 24.9223 255.84 24.6114 255.735 24.2876L254.539 21.5026H249.228L249.333 21.6062H249.347ZM252.067 15.1943L250.004 20H254.013L251.949 15.1943H252.067Z" fill="white"/>
<path fill-rule="evenodd" clip-rule="evenodd" d="M27.8921 54.9741L2.49741 30.0518L0 32.513L27.8921 60L55.7711 32.513L53.1685 30.0518L27.8921 54.9741Z" fill="#B2B4B5"/>
<path fill-rule="evenodd" clip-rule="evenodd" d="M27.8921 50.0518L17.7973 40.1036L35.5947 22.5648C41.1284 28.0181 41.2335 36.9948 35.5947 42.4482L27.8921 50.0389V50.0518ZM20.1764 12.6295L27.879 5.03887L37.9738 14.9871L20.1764 32.5259C14.6427 27.0725 14.5376 18.0959 20.1764 12.6425V12.6295ZM27.8921 0L0 27.487L27.8921 54.9741L55.7842 27.487L27.8921 0Z" fill="white"/>
</svg>
