<svg width="85" height="70" viewBox="0 0 85 70" fill="none" xmlns="http://www.w3.org/2000/svg">
<path d="M21.7132 10.5364C14.722 11.2679 9.469 17.7806 10.914 25.1721C11.8405 29.8558 15.6102 33.6987 20.3107 34.6868C23.1582 35.309 25.857 34.9432 28.1903 33.8837C28.5217 33.7366 28.56 33.2993 28.3007 33.0807C24.0082 29.2378 21.3095 23.6753 21.3095 17.4905C21.3095 15.2958 21.641 13.2104 22.27 11.2343C22.3805 10.9064 22.083 10.5406 21.7515 10.5742L21.7132 10.5364ZM56.8522 33.8837C59.1812 34.9432 61.9182 35.2754 64.7317 34.6868C69.428 33.6987 73.202 29.818 74.1285 25.1721C75.5692 17.7806 70.3205 11.3016 63.3292 10.5364C62.9595 10.4985 62.7002 10.8643 62.8107 11.1965C63.4397 13.1726 63.7712 15.2958 63.7712 17.4527C63.7712 23.6375 61.0725 29.2 56.78 33.0428C56.5207 33.2993 56.559 33.7029 56.8905 33.8459L56.8522 33.8837Z" fill="white"/>
<path d="M16.9788 38.4918H15.9417C7.14 38.4918 0 45.5553 0 54.2627V57.7776C0 58.7278 0.77775 59.5351 1.7765 59.5351H7.10175V57.7776C7.10175 49.9826 11.0585 43.1041 17.1275 39.0047C17.3485 38.8576 17.238 38.5296 16.9788 38.5296V38.4918ZM68.0213 38.4918H69.0583C77.86 38.4918 85 45.5553 85 54.2627V57.7776C85 58.7278 84.2223 59.5351 83.2235 59.5351H77.8982V57.7776C77.8982 49.9826 73.9415 43.1041 67.8725 39.0047C67.6515 38.8576 67.762 38.5296 68.0213 38.5296V38.4918Z" fill="white"/>
<path fill-rule="evenodd" clip-rule="evenodd" d="M42.5 34.9811C52.2665 34.9811 60.18 27.1524 60.18 17.4905C60.18 7.8287 52.2665 0 42.5 0C32.7335 0 24.82 7.8287 24.82 17.4905C24.82 27.1524 32.7335 34.9811 42.5 34.9811Z" fill="white"/>
<path fill-rule="evenodd" clip-rule="evenodd" d="M10.6547 57.7398V68.2425C10.6547 69.1927 11.4325 70 12.4312 70H72.573C73.5335 70 74.3495 69.2306 74.3495 68.2425V57.7398C74.3495 47.0899 65.62 38.4918 54.893 38.4918H30.1112C19.346 38.4918 10.6547 47.1278 10.6547 57.7398Z" fill="white"/>
</svg>
