<svg width="227" height="61" viewBox="0 0 227 61" fill="none" xmlns="http://www.w3.org/2000/svg">
<path fill-rule="evenodd" clip-rule="evenodd" d="M55.4285 55.6513C54.7612 55.6513 55.4285 54.2601 55.5303 53.845C55.6774 53.1719 55.9149 52.5997 56.0732 51.949C56.5483 52.0724 56.4012 52.3192 56.5483 52.8465C57.4531 56.0776 57.7925 55.6401 55.4285 55.6401V55.6513ZM169.486 54.0245H175.13V55.1464H169.486V54.0245ZM68.334 50.7934C68.334 49.8958 68.5829 49.1105 69.499 49.1105C72.2928 49.1105 72.7904 52.9811 72.7904 55.124C72.7904 60.6663 68.3227 61.3619 68.3227 58.8151V50.7934H68.334ZM83.332 57.2893L82.9022 57.222C82.4498 58.1644 82.6194 59.421 81.0585 59.9371C79.2149 60.5541 78.853 59.32 78.853 57.7605C78.853 56.7059 78.853 55.6513 78.853 54.5967C81.8729 53.9011 80.8889 56.0328 81.8277 56.2908C82.1104 55.7074 81.9295 53.2841 81.9295 52.3865C81.4657 52.4202 81.5675 52.465 81.4318 52.8465C81.3187 53.1382 81.2848 53.2616 81.1038 53.4748C80.7418 53.9123 80.3347 53.8787 79.5882 53.8787C78.6041 53.8787 78.8416 53.7104 78.853 52.7119C78.8756 50.4456 78.5249 49.649 79.5316 49.4695C80.5156 49.3012 81.6015 49.6715 82.0991 50.6475C82.3706 51.1861 82.3367 51.7134 82.8909 51.8592C83.004 51.388 83.1623 49.3573 82.8909 48.9534C82.2009 48.8188 78.6494 48.8973 77.4617 48.8973C76.5569 48.8973 76.3646 48.7739 75.8669 49.1105C76.1045 49.4359 75.9914 49.2788 76.3985 49.4359C76.6926 49.548 76.4664 49.4359 76.6926 49.5705C76.7492 49.6041 76.8397 49.6939 76.9301 49.75V58.6132C76.9414 60.5429 76.5795 59.7351 76.0253 60.24C75.8104 60.4419 76.0027 60.5429 76.2063 60.599L81.6015 60.6327C82.3706 60.7224 82.6081 60.8458 83.3207 60.5093V57.2893H83.332ZM65.1444 49.5368C65.7665 49.8285 66.5243 49.2676 66.5243 50.2773V59.1405C66.5243 60.2175 65.9248 60.1054 65.5629 60.1951C65.0426 60.3185 65.4272 59.9819 65.1444 60.5205C66.0606 60.7336 67.859 60.599 68.8882 60.7224C70.1437 60.8683 71.4445 60.5092 72.1683 60.1054C74.7359 58.6693 75.4032 54.664 74.4192 52.0724C73.7518 50.3334 71.9421 48.7066 70.155 48.7066C69.024 48.7066 66.5469 48.6056 65.5063 49.0544C65.201 49.189 65.1896 49.1666 65.1557 49.548L65.1444 49.5368ZM115.669 48.7403C115.319 48.9422 115.273 49.1666 115.16 49.548L113.305 55.3035C113.158 55.7411 113.226 55.943 112.909 56.1786C112.321 55.7523 110.885 49.4807 110.15 48.7403C109.641 48.6393 109.086 48.6954 108.555 48.6842C107.797 48.6842 107.593 48.5383 107.277 48.9983C107.559 49.3798 107.82 49.3012 108.34 49.4246C108.521 50.21 108.295 54.0021 108.227 55.124C108.193 55.8084 108.182 58.9834 108.001 59.4322C107.729 60.0829 107.243 59.6454 107.062 60.0829C107.028 60.1502 106.768 59.9595 107.096 60.2736C107.322 60.498 107.786 60.4083 108.34 60.4083C109.052 60.4083 109.46 60.4419 110.037 60.2961C110.003 59.8249 110.037 59.9707 109.629 59.8585C109.154 59.7239 109.358 59.8137 108.973 59.5556C108.973 57.7381 108.77 52.7567 109.075 51.4329C109.584 51.5675 109.788 52.7119 109.991 53.486L111.756 59.2303C111.891 59.6454 111.937 60.0493 112.276 60.2961C113.136 59.6678 114.663 51.7582 115.466 51.2197C115.658 51.6012 115.726 59.0171 115.567 59.6566C115.239 59.7351 114.459 59.8361 114.357 60.1502C114.233 60.5429 115.217 60.3971 115.669 60.3971C116.235 60.3971 116.8 60.3971 117.377 60.3971C118.463 60.3971 118.61 60.5317 118.655 59.9707C117.49 59.9483 117.592 59.2303 117.592 58.0747C117.592 56.9415 117.479 56.1674 117.49 55.124C117.49 54.1479 117.513 53.1494 117.49 52.1621C117.479 51.1524 117.23 50.3783 117.49 49.3124C117.807 49.2339 118.101 49.1329 118.452 49.0993C118.395 48.471 118.011 48.6729 117.287 48.6729C116.755 48.6729 116.201 48.6281 115.692 48.729L115.669 48.7403ZM147.158 59.5556C146.005 60.3185 146.265 59.6566 146.197 60.2961C146.661 60.5205 149.669 60.5205 150.133 60.2961C149.828 59.1742 149.07 61.0702 149.07 58.0859V49.75C149.16 49.2788 149.692 49.2115 150.133 49.1105C150.099 48.7178 150.178 48.9534 150.031 48.7403C149.364 48.6168 146.638 48.5832 146.197 48.7964C146.265 49.4359 146.219 48.9422 147.158 49.4246V59.5556ZM144.93 56.5489C144.342 56.4703 144.319 57.0537 144.206 57.783C144.116 58.3439 143.957 58.8937 143.674 59.2639C142.883 60.3073 141.842 60.4083 140.96 59.4883C140.327 58.8376 139.999 57.7269 139.772 56.6498C139.422 54.9782 139.343 51.4104 140.666 49.7388C141.333 48.8973 142.69 48.6617 143.38 49.6939C143.663 50.1202 143.799 50.5914 143.98 51.0963C144.116 51.4778 144.76 52.5548 144.828 51.3319C144.987 48.471 144.625 48.9198 143.539 48.5159C142.996 48.4149 142.295 48.4149 141.729 48.4598C140.36 48.5832 139.173 49.6827 138.472 50.827C137.148 52.9924 137.25 57.1771 139.354 59.3649C139.704 59.7239 139.953 59.9595 140.406 60.2175C141.005 60.5429 141.096 60.5317 141.887 60.6551C142.758 60.7897 144.331 60.5205 144.828 59.9932C145.134 59.6678 145.02 58.8712 145.02 58.2878C145.02 57.7718 145.134 56.8742 144.919 56.5489H144.93ZM91.9507 48.7403C91.1251 49.1554 90.8988 49.3237 90.2767 49.9744C89.813 50.468 89.4285 51.1748 89.2022 51.8592C88.6367 53.5084 88.6819 55.4606 89.1909 57.121C89.5981 58.0186 89.8922 58.6917 90.5482 59.3649C91.2608 60.1054 91.7811 60.4756 93.0705 60.6663C94.0319 60.8122 95.6041 60.4307 96.0226 59.9819C96.3506 59.6341 96.2827 56.7845 96.1131 56.5376C95.163 56.4142 95.6946 58.0635 94.8463 59.2303C94.5635 59.6117 94.2468 60.0044 93.6586 60.0717C90.4803 60.4083 89.9601 52.1285 91.8603 49.7276C92.505 48.9086 93.9075 48.6281 94.5748 49.6827C94.7219 49.9071 95.9208 53.2504 96.0226 51.3319C96.0452 51.029 96.0452 49.5705 95.9887 49.3349C95.8529 48.6842 95.3326 48.7178 94.7332 48.5271C94.2581 48.4373 93.7265 48.471 93.2402 48.471C92.5276 48.471 92.5728 48.6056 91.9734 48.7403H91.9507ZM126.946 57.0762L126.516 57.0088C126.098 57.8952 126.188 59.2864 124.673 59.7239C122.75 60.2849 122.467 59.1293 122.478 57.5474C122.478 56.4928 122.478 55.4381 122.478 54.3835C123.146 54.2265 124.05 54.1592 124.526 54.5743C125.046 55.023 124.786 55.8981 125.464 56.0776C125.747 55.4942 125.566 53.0709 125.566 52.1733C124.921 52.2294 125.227 52.5997 124.74 53.2504C124.378 53.7328 124.017 53.6543 123.225 53.6655C122.116 53.6655 122.524 53.486 122.49 50.4905C122.49 49.649 122.388 49.391 123.168 49.2563C124.288 49.0656 125.227 49.5256 125.724 50.4568C125.996 50.9729 125.973 51.5002 126.539 51.6573C126.708 50.9392 126.754 49.4695 126.539 48.7515C125.838 48.6168 122.297 48.6954 121.11 48.6954C120.284 48.6954 120.092 48.6056 119.515 48.9086C119.752 49.2339 119.639 49.0768 120.046 49.2339L120.578 49.548V58.4112C120.601 60.7673 119.786 59.3088 119.515 60.3073C120.273 60.6663 124.084 60.2736 125.543 60.4532L126.313 60.4868C126.573 60.4868 126.652 60.4644 126.969 60.3073V57.0874L126.946 57.0762ZM99.4045 53.228C99.4045 49.4246 102.243 47.0574 103.793 51.0851C104.596 53.1606 104.596 56.2011 103.884 58.3103C103.703 58.8488 103.386 59.5107 102.967 59.8361C101.689 60.8458 100.513 59.4434 100.072 58.3664C99.2801 56.3806 99.3932 55.3372 99.3932 53.2392L99.4045 53.228ZM97.5948 56.6049C97.9115 58.8151 101.09 62.2258 104.121 60.0156C104.811 59.5107 105.467 58.6469 105.84 57.8166C107.616 53.7665 105.478 47.6632 100.897 48.5383C100.185 48.8973 99.8795 48.9198 99.1104 49.6715C98.1377 50.6139 97.3912 52.5324 97.3799 53.8675C97.3799 54.9894 97.3346 55.7523 97.5948 56.6162V56.6049ZM153.221 55.023C153.221 53.6655 153.175 52.1397 153.684 50.8383C154.782 48.0559 156.659 48.5944 157.643 51.1524C158.672 53.8226 158.424 60.1839 155.879 60.1839C154.114 60.1839 153.221 56.6498 153.221 55.0118V55.023ZM154.284 48.7403C153.198 49.1329 152.406 50.1651 151.909 51.1861C149.511 56.1113 153.289 62.6073 157.621 60.2288C160.46 58.6693 161.692 52.667 158.096 49.3461C157.79 49.0656 157.632 49.0768 157.372 48.8525C157.032 48.6954 156.84 48.6505 156.523 48.5383H154.816C154.589 48.6281 154.544 48.6281 154.284 48.7515V48.7403ZM131.312 49.6378C131.312 48.931 133.189 49.1666 133.732 49.7724C134.083 50.1539 134.287 50.6363 134.287 51.3319C134.287 54.664 131.312 54.4509 131.312 53.6543V49.6378ZM129.4 57.1323C129.4 57.6708 129.502 58.9498 129.344 59.3985C129.219 59.7576 129.005 59.9258 128.337 59.9819C128.394 60.6214 128.62 60.4083 130.362 60.4083C130.758 60.4083 131.142 60.4083 131.538 60.4083C132.194 60.4195 132.33 60.5429 132.386 59.9819C131.696 59.9258 131.73 59.8361 131.323 59.5556V54.6977C132.205 54.6977 132.296 54.6079 132.907 56.0889C133.122 56.5937 134.558 60.0605 134.784 60.24C135.18 60.5653 137.126 60.3971 137.612 60.2849C137.386 59.4322 137.001 60.6102 136.017 58.3888L134.513 55.1352C134.287 54.7538 134.106 54.7762 134.004 54.3835C134.784 53.9684 135.78 53.6767 136.221 52.5772C136.673 51.4665 136.379 50.21 135.678 49.548C134.977 48.8973 133.857 48.6729 132.511 48.6842C131.482 48.6842 129.344 48.572 128.473 48.7403C128.326 48.9534 128.405 48.7178 128.371 49.1105C129.061 49.1666 129.027 49.2563 129.434 49.5368V57.1323H129.4ZM211.29 55.5952C211.29 55.1352 211.607 54.204 211.742 53.7216C212.025 52.7007 211.98 52.2407 212.466 52.1173C212.658 52.9363 213.371 55.0567 213.428 55.7074C213.02 55.7972 211.301 56.0103 211.301 55.6064L211.29 55.5952ZM193.419 57.2781C193.419 57.8727 193.475 58.8376 193.419 59.3985C193.317 60.341 192.74 59.7239 192.356 60.4532C192.819 60.6775 195.93 60.6775 196.394 60.4532C196.054 59.9483 195.579 60.1727 195.376 59.6678C195.24 59.32 195.33 52.1958 195.33 51.2758C195.33 50.827 195.195 49.9856 195.41 49.6715C195.738 49.189 196.326 49.7724 196.394 48.9646L196.077 48.9086C196.077 48.9086 192.797 48.9086 192.774 48.9086L192.458 48.9646C192.548 50.0193 193.442 48.6842 193.419 50.5466V57.3005V57.2781ZM185.343 53.486V59.7127C184.947 59.9819 184.529 60.0829 184.28 60.4532C184.845 60.7224 186.078 60.5653 186.836 60.5541C190.716 60.5541 191.01 61.3395 190.987 59.6117C190.987 58.961 191.179 57.6708 190.874 57.2332C190.569 57.2332 190.75 57.0874 190.512 57.4464C190.41 57.6035 190.388 57.7493 190.354 57.9288C190.116 58.9946 189.98 59.6005 188.77 59.9483C187.967 60.1839 187.515 59.8473 187.345 59.1181C187.108 58.142 187.074 51.6573 187.232 50.1875C187.39 48.8076 188.239 49.9968 188.329 48.9646L188.012 48.9086C187.571 48.8188 186.542 48.9646 185.886 48.9646C184.97 48.9646 184.461 48.6505 184.291 49.2788C184.664 49.3685 185.06 49.4359 185.253 49.7051C185.467 50.0193 185.366 53.1045 185.366 53.4972L185.343 53.486ZM212.681 48.9534L212.568 49.0095L210.136 57.3005C209.831 58.2654 209.537 60.7785 207.998 60.038C207.761 59.9483 207.761 59.9819 207.636 59.6566C207.444 59.1293 207.467 54.8884 207.467 54.3387C207.467 53.2167 207.365 52.5099 207.365 51.388C207.365 49.75 207.026 49.6041 208.428 49.2788V49.0095H205.453C205.34 49.3237 205.442 49.0095 205.295 49.3237C205.216 49.5032 205.182 49.6041 205.114 49.7837L203.621 54.4172C203.519 54.7874 203.429 55.0118 203.316 55.3821L203.01 56.3469C202.501 56.2123 202.637 56.0889 202.479 55.6177L201.529 52.768C201.291 52.1173 200.477 49.3461 200.251 49.0207C199.595 48.8973 197.74 48.8525 197.276 49.0768C197.321 49.5032 197.276 49.4022 197.785 49.5256C198.882 49.7949 198.407 50.21 198.339 51.3992C198.305 51.9602 198.339 52.6221 198.339 53.1943C198.339 53.8899 198.226 54.1031 198.226 54.7762C198.226 55.9879 198.113 56.8854 198.124 58.1532C198.135 61.1824 197.084 59.3088 196.948 60.4756C197.378 60.6775 198.26 60.5766 198.859 60.5878C199.481 60.5878 200.42 60.7224 199.821 60.1166C198.283 59.8249 198.984 58.9947 198.972 56.3693C198.972 54.9108 198.78 52.8802 199.074 51.6236C199.346 51.7695 199.391 51.6909 199.606 52.4651L201.947 60.1727C202.094 60.4532 202.06 60.4083 202.377 60.4868C202.739 59.8137 204.334 54.5406 204.583 53.6094C204.707 53.1606 204.809 52.8914 204.922 52.4651C205.114 51.7695 205.103 51.646 205.453 51.5114C205.759 52.1397 205.555 58.5347 205.555 59.8473C204.99 60.1166 204.447 59.9595 204.277 60.5878C205.476 60.5878 211.018 60.7673 211.618 60.4868C211.245 59.9371 211.471 60.4419 210.34 59.8585C210.34 58.86 210.34 58.7478 210.566 57.9737C210.849 56.9976 210.656 56.4591 211.618 56.3693C213.993 56.1674 213.756 56.7508 214.027 57.783C214.106 58.0747 214.129 58.1196 214.208 58.4449C214.344 58.9834 214.479 59.2303 214.479 59.8585C213.45 60.5429 213.575 59.9371 213.518 60.599C214.423 60.599 216.866 60.7785 217.454 60.498C217.273 60.0044 217.171 60.341 216.753 60.0268C216.346 59.7239 215.984 58.2205 215.859 57.7493C215.701 57.1996 215.509 56.5713 215.339 56.044C215.226 55.685 214.909 54.7762 214.898 54.4172C214.672 53.9572 214.604 53.5197 214.445 53.0148C214.31 52.5885 214.151 52.0499 214.004 51.5563C213.812 50.928 213.348 49.0656 213.088 48.7178L212.771 48.6505C212.704 48.7403 212.681 48.9198 212.658 48.9759L212.681 48.9534ZM21.7114 44.9482C21.2816 45.3745 20.9196 45.7447 20.4785 46.2047L19.2683 47.5286C20.1166 47.5286 20.0374 47.4388 20.5464 47.1023L22.6615 45.8233C23.1252 45.5316 23.2044 45.4081 23.2044 44.6789C23.0347 44.5891 22.8537 44.4994 22.6728 44.4096C22.1072 44.5218 22.1412 44.5218 21.7114 44.9369V44.9482ZM16.0786 56.5601C15.7733 56.5601 15.7846 56.5601 15.6036 56.8742C15.3435 57.3566 15.4452 58.1083 15.0494 58.961C14.3142 60.5205 12.4366 60.9244 11.3395 58.1532C10.6495 56.4142 10.4912 52.4875 11.3395 50.6251C11.5091 50.2549 11.7919 49.8173 12.0747 49.5593C13.4546 48.3812 14.563 49.3461 15.0946 50.9392C15.2869 51.5339 15.3435 51.9153 15.8751 51.9602C16.1126 51.4778 16.0447 50.2212 15.9769 49.5368C15.8751 48.6056 15.1738 48.7739 14.3934 48.5271C12.3235 48.1344 10.4572 49.3349 9.575 51.0739C8.3082 53.5421 8.53442 57.3791 10.6495 59.4771C11.3621 60.1839 12.0747 60.7 13.1152 60.7224C13.7034 60.7336 14.3934 60.7449 14.8232 60.6214C16.5198 60.139 16.2031 59.679 16.2031 58.2991C16.2031 57.783 16.3162 56.8854 16.1013 56.5601H16.0786ZM39.537 53.4972C39.8198 52.4875 39.7293 52.0948 40.2157 51.9602C40.3627 52.5885 40.5097 53.0148 40.6907 53.7104C40.9508 54.765 41.5503 55.6513 40.8604 55.6513C39.209 55.6513 39.0507 55.8084 39.0507 55.225L39.537 53.486V53.4972ZM19.1552 55.4494C19.1552 54.9221 19.4605 54.1255 19.585 53.6543C19.7094 53.1719 19.9695 52.4538 20.0148 51.9602H20.3315L21.2929 55.5503C20.8857 55.6401 19.1665 55.8533 19.1665 55.4494H19.1552ZM48.0879 49.4359C48.6421 49.3012 48.676 49.1778 49.2868 49.29C51.877 49.7949 51.3227 53.2616 49.8524 53.9236C49.2077 54.2153 49.1398 54.1704 48.5064 54.1704C47.6807 54.1704 47.9748 51.3768 47.9748 50.1651C47.9748 49.8061 48.054 49.7612 48.0766 49.4246L48.0879 49.4359ZM18.2051 56.6049C17.8431 56.9191 17.7074 59.0956 17.074 59.7015C16.5085 60.24 16.3501 59.6902 16.2935 60.3971H19.3814V60.0829C18.0354 59.7688 17.8092 59.8137 18.5218 57.323C18.7819 56.4254 18.42 56.1786 20.1279 56.1674C21.7566 56.1674 21.5983 56.3918 21.9602 57.94C22.0507 58.3103 22.3108 58.9161 22.2656 59.4434C22.1864 60.2849 21.7453 59.6902 21.2929 60.2849C21.7792 60.5205 27.3554 60.4868 27.7852 60.2849C27.5477 59.4098 26.6654 60.4419 26.6089 58.9161C26.575 57.9176 26.722 57.323 26.722 56.3806V52.4763C26.7107 51.7695 26.6089 51.7134 27.0387 51.4217C27.1066 51.7246 27.1518 51.7246 27.2536 51.949C27.3441 52.1621 27.3554 52.2407 27.4233 52.5211L29.6854 59.8698C29.8211 60.2175 29.8211 60.0493 29.9116 60.3858C30.6016 59.9259 31.9249 54.664 32.2756 53.5533L32.8298 51.7807C32.9881 51.3319 32.728 51.4441 33.2143 51.3095C33.3614 51.9377 33.3161 52.5436 33.3161 53.3177C33.3161 54.8884 33.5084 55.6177 33.3953 57.6147L33.4179 58.4898C33.4745 60.7224 32.3321 59.2639 32.0267 60.3971H37.6594C38.4286 60.3971 39.0507 60.5205 39.3674 60.24C38.9262 59.8024 39.2542 60.0829 38.6548 59.9483C38.3041 59.8585 38.372 59.8473 38.0892 59.6678C38.0892 57.7942 38.2928 58.142 38.7226 56.2908C39.3221 56.2908 39.7632 56.1337 40.5323 56.1898C41.6747 56.2684 41.5503 56.7059 42.0027 58.4225C42.1837 59.1293 42.3081 59.1068 42.1272 59.881C41.211 60.0941 41.4372 60.0493 41.2789 60.3073C41.5051 60.5653 48.8118 60.4083 49.1511 60.4083C49.0832 59.5781 48.6647 60.3073 48.1671 59.7015C47.8277 59.2863 47.9861 55.4942 47.9861 54.8211C49.2303 54.5294 49.3773 55.5279 50.0786 57.1771C50.531 58.2205 50.9608 59.4659 51.5942 60.4195C52.1597 60.4195 53.1438 60.498 53.4718 60.4756C54.1165 60.4307 54.7386 60.4195 55.4285 60.4195V60.1054C53.7545 59.7127 53.9921 59.7463 54.5124 57.4015C54.7046 56.5152 54.535 56.2011 56.0619 56.1898C57.9621 56.1898 57.4871 56.4254 57.9395 57.8166C58.0413 58.1308 58.03 58.1532 58.1205 58.4898C58.177 58.7366 58.2901 58.9498 58.3128 59.2639C58.3693 60.0941 57.9734 59.9483 57.3513 60.0941V60.4083H61.2875V60.0941C60.2695 59.8585 60.1564 59.2303 59.7379 57.6259L57.1704 48.9871C57.046 48.5832 57.0573 48.4822 56.6048 48.5383C56.4239 48.7964 56.2542 49.4471 56.1524 49.8397C56.0393 50.2997 55.8923 50.7373 55.7452 51.2309C55.6434 51.5675 55.6095 51.5675 55.5077 51.949C55.4625 52.1285 55.3833 52.4314 55.3267 52.6221L53.2908 59.3649C52.9062 59.1068 52.2163 57.3903 51.9901 56.863C50.9495 54.4396 51.2888 55.4718 50.6328 54.5182C51.6394 53.9909 52.5217 53.7104 52.9628 52.6109C53.4492 51.3992 53.0646 50.2661 52.3181 49.5817C51.006 48.3812 48.1444 48.8188 46.9116 48.8188C45.8936 48.8188 46.0746 48.7403 45.1019 48.8188C45.1471 49.3237 45.1697 49.1442 45.5995 49.2788C45.9049 49.3685 45.9841 49.3798 46.0972 49.7388C46.2329 50.1539 46.2103 57.9849 46.1764 58.8488C46.1425 59.5556 46.0746 59.7576 45.4977 59.9819C45.0227 60.1615 44.5816 60.0605 44.3214 59.6341C43.7333 58.6693 41.3015 49.2227 40.849 48.5608H40.5323C40.2383 48.8525 40.3401 48.8412 40.2383 49.2676C39.5483 51.8704 38.3268 55.4157 37.6821 57.9176C37.1618 59.9483 37.026 60.0044 35.7479 60.0044C35.4765 59.6117 35.3521 59.6454 35.3181 58.9498L35.1145 49.4471C36.2343 49.189 36.0873 49.2563 36.1777 48.9198C35.6348 48.6617 34.0853 48.8188 33.3048 48.8188C32.6262 49.8285 32.3434 51.388 31.9362 52.5324L31.0088 55.4157C30.873 55.8533 30.9409 55.9879 30.6355 56.2123C30.2849 55.9767 30.3188 55.8757 30.1718 55.4045L28.5996 50.6363C28.4978 50.3334 28.396 50.0417 28.2829 49.6827C28.1924 49.391 28.0454 49.1217 27.9775 48.83C27.1857 48.83 25.5683 48.6617 25.0028 48.931C25.082 49.5929 25.1385 49.1217 26.066 49.5593C26.2809 50.4456 25.9416 54.0357 25.9642 55.2586C25.9755 56.2684 25.8511 57.0874 25.8624 58.2093C25.8624 59.4322 25.8624 59.9034 24.6861 60.0044C24.1771 59.2527 24.4033 59.8473 24.064 58.7254L20.9649 48.5495H20.5351L18.1937 56.6162L18.2051 56.6049Z" fill="white"/>
<path fill-rule="evenodd" clip-rule="evenodd" d="M119.956 22.476L119.594 23.4409C119.368 24.0243 119.266 24.4394 119.266 24.6862C119.266 25.494 119.786 25.9203 120.816 25.9428V26.7057H116.314V25.9428C116.755 25.9203 117.151 25.7184 117.49 25.3369C117.83 24.9442 118.169 24.316 118.486 23.4409L123.18 10.6173H123.722L129.31 24.6189C129.457 24.9667 129.593 25.2359 129.74 25.4155C129.887 25.595 130.056 25.7296 130.249 25.7969C130.43 25.8642 130.69 25.9203 131.007 25.9428V26.7057H125.317V25.9428C125.826 25.9428 126.177 25.8754 126.358 25.752C126.55 25.6286 126.641 25.4267 126.641 25.135C126.641 24.8433 126.527 24.3945 126.301 23.8448L125.724 22.4872H119.979L119.956 22.476ZM125.17 21.2082L122.682 14.9591L120.397 21.2082H125.17ZM132.296 21.6346H132.884C133.156 22.4985 133.518 23.2614 133.959 23.9121C134.4 24.5628 134.897 25.0677 135.429 25.4155C135.961 25.7632 136.526 25.9315 137.103 25.9315C137.521 25.9315 137.895 25.8306 138.223 25.6286C138.539 25.4267 138.8 25.1462 138.981 24.7984C139.162 24.4506 139.252 24.0579 139.252 23.6092C139.252 22.9023 139.026 22.2628 138.585 21.7019C138.381 21.4438 138.098 21.1746 137.725 20.8941C137.352 20.6136 136.775 20.2097 136.006 19.6712C135.237 19.1439 134.66 18.7176 134.298 18.4259C133.925 18.1342 133.597 17.8088 133.303 17.461C132.669 16.6532 132.341 15.7108 132.341 14.645C132.341 14.0728 132.443 13.5455 132.635 13.0406C132.828 12.5358 133.099 12.1094 133.438 11.7504C133.778 11.3914 134.196 11.1109 134.66 10.8978C135.135 10.6958 135.644 10.5948 136.187 10.5948C136.583 10.5948 136.933 10.6285 137.25 10.707C137.555 10.7743 137.883 10.8753 138.234 11.0099C138.573 11.1446 138.856 11.2455 139.071 11.3129C139.286 11.3802 139.456 11.4138 139.58 11.4138C139.919 11.4138 140.146 11.1446 140.27 10.6061H140.892V15.7557H140.304C140.044 14.9479 139.716 14.2411 139.309 13.624C138.901 13.0182 138.449 12.547 137.951 12.2104C137.465 11.885 136.956 11.7168 136.436 11.7168C135.881 11.7168 135.429 11.8963 135.101 12.2328C134.762 12.5806 134.603 13.0406 134.603 13.6128C134.603 14.1401 134.773 14.6225 135.112 15.0489C135.305 15.2733 135.678 15.5762 136.232 15.9576C136.786 16.3391 137.318 16.6869 137.816 17.0235C138.313 17.36 138.822 17.7078 139.32 18.0893C139.818 18.4707 140.225 18.8522 140.53 19.2449C140.96 19.7834 141.254 20.3219 141.424 20.8829C141.593 21.4438 141.684 22.0272 141.684 22.6555C141.684 23.4857 141.503 24.2487 141.164 24.933C140.824 25.6174 140.327 26.1671 139.704 26.5486C139.082 26.9413 138.404 27.132 137.669 27.132C137.16 27.132 136.707 27.0647 136.311 26.9301C135.904 26.7954 135.452 26.6271 134.943 26.4027C134.434 26.1896 134.094 26.0774 133.913 26.0774C133.665 26.0774 133.45 26.1784 133.269 26.3691C133.088 26.5598 132.963 26.8066 132.907 27.1096H132.319V21.6233L132.296 21.6346ZM143.052 18.8859C143.052 17.3825 143.358 15.9913 143.98 14.7235C144.591 13.4557 145.439 12.446 146.502 11.7168C147.565 10.9763 148.742 10.6173 150.02 10.6173C151.298 10.6173 152.474 10.9875 153.537 11.7168C154.601 12.446 155.449 13.4557 156.071 14.7235C156.693 15.9913 157.01 17.3825 157.01 18.8859C157.01 20.3892 156.693 21.7804 156.071 23.0482C155.449 24.316 154.612 25.3145 153.537 26.0437C152.474 26.7842 151.298 27.1432 150.02 27.1432C148.742 27.1432 147.565 26.773 146.502 26.0437C145.439 25.3145 144.591 24.3047 143.98 23.0482C143.358 21.7804 143.052 20.3892 143.052 18.8859ZM145.948 18.8746C145.948 20.0078 146.038 21.0063 146.219 21.8814C146.4 22.7565 146.661 23.5082 147.011 24.1365C147.362 24.7647 147.792 25.2359 148.289 25.5501C148.787 25.8642 149.364 26.0213 150.02 26.0213C150.676 26.0213 151.253 25.8642 151.75 25.5501C152.248 25.2359 152.678 24.776 153.017 24.1589C153.356 23.5418 153.628 22.7902 153.809 21.9038C153.99 21.0175 154.08 20.0078 154.08 18.8746C154.08 17.3713 153.922 16.081 153.605 15.0152C153.289 13.9494 152.825 13.1304 152.203 12.5694C151.581 12.0085 150.857 11.7168 150.008 11.7168C149.16 11.7168 148.414 11.9972 147.803 12.5694C147.192 13.1304 146.728 13.9494 146.412 15.0152C146.095 16.081 145.937 17.3713 145.937 18.8746H145.948ZM171.046 22.1843L171.623 22.7116C170.356 25.6735 168.388 27.1544 165.719 27.1544C164.599 27.1544 163.581 26.9301 162.676 26.4813C161.772 26.0325 160.991 25.4155 160.369 24.6189C159.736 23.8335 159.261 22.9472 158.933 21.9599C158.605 20.9839 158.446 19.9741 158.446 18.9532C158.446 17.4498 158.774 16.0474 159.43 14.7796C160.086 13.5006 160.98 12.4797 162.122 11.7392C163.265 10.9875 164.497 10.6173 165.855 10.6173C166.398 10.6173 166.884 10.6734 167.314 10.7856C167.744 10.8978 168.219 11.0436 168.716 11.2231C169.214 11.4026 169.531 11.4924 169.666 11.4924C169.847 11.4924 169.994 11.4138 170.108 11.2568C170.221 11.0997 170.277 10.8865 170.277 10.6061H170.877L171.182 15.8567H170.56C170.379 15.2284 170.119 14.6562 169.802 14.1513C169.474 13.6465 169.124 13.2089 168.75 12.8611C168.377 12.5133 167.959 12.2328 167.484 12.0309C167.008 11.8289 166.545 11.728 166.081 11.728C165.165 11.728 164.35 12.0309 163.627 12.6367C162.903 13.2426 162.337 14.084 161.941 15.1835C161.545 16.283 161.342 17.5059 161.342 18.8859C161.342 20.2658 161.557 21.3653 161.975 22.4087C162.394 23.4409 162.993 24.2487 163.762 24.8321C164.531 25.4042 165.402 25.6959 166.386 25.6959C168.32 25.6959 169.87 24.5291 171.046 22.1843ZM179.428 26.6944H172.438V25.9315H172.913C173.637 25.9315 174.123 25.7632 174.349 25.4155C174.587 25.0677 174.7 24.4282 174.7 23.4857V14.084C174.7 13.4333 174.643 12.9284 174.553 12.5919C174.462 12.2553 174.281 11.9972 174.032 11.8514C173.784 11.7055 173.41 11.6382 172.913 11.6382H172.438V10.8978H179.428V11.6382H179.043C178.568 11.6382 178.217 11.7055 177.957 11.8514C177.697 11.9972 177.527 12.2328 177.426 12.5919C177.324 12.9509 177.267 13.4445 177.267 14.084V23.4857C177.267 24.1252 177.324 24.6301 177.426 24.9779C177.527 25.3369 177.708 25.5725 177.957 25.7184C178.206 25.8642 178.568 25.9315 179.043 25.9315H179.428V26.6944ZM183.771 22.476L183.409 23.4409C183.183 24.0243 183.081 24.4394 183.081 24.6862C183.081 25.494 183.601 25.9203 184.631 25.9428V26.7057H180.129V25.9428C180.57 25.9203 180.966 25.7184 181.305 25.3369C181.644 24.9442 181.984 24.316 182.3 23.4409L186.994 10.6173H187.537L193.125 24.6189C193.272 24.9667 193.408 25.2359 193.555 25.4155C193.702 25.595 193.871 25.7296 194.052 25.7969C194.245 25.8642 194.493 25.9203 194.81 25.9428V26.7057H189.121V25.9428C189.63 25.9428 189.98 25.8754 190.161 25.752C190.342 25.6286 190.444 25.4267 190.444 25.135C190.444 24.8433 190.331 24.3945 190.105 23.8448L189.517 22.4872H183.771V22.476ZM188.996 21.2082L186.508 14.9591L184.223 21.2082H188.996ZM203.825 10.8978C205.024 10.8978 206.064 11.1334 206.969 11.5933C207.874 12.0533 208.62 12.6704 209.197 13.4333C209.785 14.1962 210.215 15.0377 210.509 15.9688C210.803 16.9 210.939 17.8425 210.939 18.7849C210.939 20.0639 210.668 21.3204 210.125 22.5321C209.582 23.7438 208.745 24.7423 207.591 25.5276C206.438 26.3018 205.012 26.6944 203.293 26.6944H195.557V25.9315H196.133C196.609 25.9315 196.97 25.8642 197.219 25.7184C197.468 25.5837 197.649 25.3369 197.751 24.9779C197.864 24.6189 197.909 24.1252 197.909 23.4857V14.084C197.909 13.164 197.785 12.5358 197.536 12.1767C197.287 11.8177 196.857 11.6382 196.235 11.6382H195.545V10.8978H203.825ZM200.499 12.4572V25.0564C200.737 25.1686 201.099 25.2584 201.597 25.3481C202.094 25.4379 202.569 25.4828 203.022 25.4828C203.881 25.4828 204.628 25.3033 205.273 24.9555C205.917 24.5964 206.438 24.1252 206.845 23.5194C207.252 22.9136 207.546 22.2067 207.75 21.4102C207.942 20.6024 208.044 19.761 208.044 18.8634C208.044 17.4947 207.829 16.3054 207.388 15.2957C206.958 14.286 206.336 13.5006 205.533 12.9509C204.73 12.4011 203.791 12.1206 202.716 12.1206C201.958 12.1206 201.223 12.2328 200.499 12.4572ZM212.296 18.8859C212.296 17.3825 212.602 15.9913 213.224 14.7235C213.846 13.4557 214.683 12.446 215.746 11.7168C216.809 10.9763 217.986 10.6173 219.264 10.6173C220.542 10.6173 221.718 10.9875 222.781 11.7168C223.845 12.446 224.693 13.4557 225.315 14.7235C225.937 15.9913 226.243 17.3825 226.243 18.8859C226.243 20.3892 225.926 21.7804 225.315 23.0482C224.693 24.316 223.856 25.3145 222.781 26.0437C221.718 26.7842 220.542 27.1432 219.264 27.1432C217.986 27.1432 216.809 26.773 215.746 26.0437C214.683 25.3145 213.835 24.3047 213.224 23.0482C212.602 21.7804 212.296 20.3892 212.296 18.8859ZM215.181 18.8746C215.181 20.0078 215.271 21.0063 215.452 21.8814C215.633 22.7565 215.893 23.5082 216.244 24.1365C216.595 24.7647 217.024 25.2359 217.522 25.5501C218.02 25.8642 218.597 26.0213 219.253 26.0213C219.909 26.0213 220.485 25.8642 220.983 25.5501C221.481 25.2359 221.911 24.776 222.261 24.1589C222.612 23.5418 222.872 22.7902 223.053 21.9038C223.234 21.0175 223.324 20.0078 223.324 18.8746C223.324 17.3713 223.166 16.081 222.849 15.0152C222.533 13.9494 222.069 13.1304 221.447 12.5694C220.825 12.0085 220.101 11.7168 219.253 11.7168C218.404 11.7168 217.658 11.9972 217.047 12.5694C216.436 13.1304 215.972 13.9494 215.656 15.0152C215.339 16.081 215.181 17.3713 215.181 18.8746Z" fill="white"/>
<path fill-rule="evenodd" clip-rule="evenodd" d="M74.1703 31.0924C74.1703 32.8089 74.1703 34.5255 74.1703 36.242C74.1703 37.0947 74.0912 37.9473 73.8084 38.542C73.3673 39.4619 72.8244 39.6302 72.7113 40.0341H98.149C100.502 40.0341 100.309 40.18 100.389 39.6078L101.124 35.5689C101.169 35.3669 101.259 34.9855 101.282 34.7723C100.965 34.7274 100.569 34.963 100.253 35.0864C99.3366 35.4342 97.9567 35.7596 96.9727 35.9167C96.5089 35.9952 96.2488 36.0625 95.7851 36.1074L92.3353 36.3991C90.7066 36.5337 87.5056 36.3991 85.5376 36.4103C84.5196 36.4103 82.5968 36.1859 81.7146 36.1859V18.3025C81.7146 16.7991 81.6241 5.81543 81.7146 4.89546C81.9408 2.74136 83.1171 2.34869 83.2302 2.04577L72.5303 2.01211C72.7678 2.37113 73.1637 2.64039 73.4691 3.04428C74.3852 4.2784 74.1364 6.38762 74.1364 8.0705V31.1036L74.1703 31.0924ZM38.0327 31.0475C38.0892 31.1036 38.0327 31.0363 38.1119 31.1597C38.1119 31.1597 38.1797 31.2831 38.191 31.3056L40.6794 34.8957C43.5071 37.8127 46.6514 39.6976 50.6215 40.5614C53.7659 41.2458 53.9581 41.1673 57.1251 41.1673C58.867 41.1673 59.9754 41.1112 61.7512 40.8307L63.8324 40.4717C64.7372 40.3034 67.3387 39.5629 68.0965 39.0917C68.4924 38.8561 68.8996 37.2069 69.0466 36.7693C69.5103 35.322 69.6461 34.0655 69.6461 32.5172L69.5669 31.0363C69.3633 31.0587 69.3859 31.1036 69.1823 31.3729C69.0579 31.5412 68.9787 31.5973 68.8317 31.788C67.5875 33.3475 66.1963 34.5591 64.5449 35.6474C61.5476 37.6444 57.8829 38.0034 54.3993 37.0049C53.0193 36.6123 51.5716 35.8606 50.4518 35.0079L49.185 33.9196C47.8051 32.4499 46.8211 31.0812 45.9954 29.1963C45.4073 27.8612 44.8304 26.0886 44.5929 24.675C43.7785 19.66 44.0613 12.9957 47.1604 8.9456C47.2735 8.79975 47.364 8.66512 47.4884 8.50805C47.9522 7.92465 48.7552 7.16174 49.3547 6.72419C51.1192 5.41154 53.4605 4.55888 55.8696 4.39059C58.7765 4.19986 58.6521 4.26718 61.197 4.79448L62.362 5.1535C63.9681 5.793 64.7372 6.19689 66.1737 7.20662C67.2029 7.92465 68.2096 9.08023 68.4697 9.24852C68.4697 8.86707 68.4358 8.66512 68.3906 8.33976L67.7798 2.27015C67.5988 2.14674 67.6554 2.13552 67.4518 2.05699C66.9428 1.85504 65.2123 1.56334 64.5789 1.41749C63.8776 1.26042 61.2309 0.96872 61.1291 0.946281C60.3147 0.789212 59.4438 0.912624 58.6181 0.82287C58.0413 0.755554 56.5483 0.845308 56.3108 0.800431C56.0054 0.901404 51.4359 0.800431 47.0247 3.06672C46.3008 3.43695 44.6042 4.43547 43.9595 4.95155C43.7672 5.0974 43.7106 5.17594 43.4957 5.33301L42.5796 6.09591C41.9575 6.612 41.1544 7.57685 40.6341 8.18269C38.3494 10.7743 36.6189 15.1611 36.2117 18.5717C35.8837 21.2419 35.7932 23.5531 36.3587 26.111L36.6641 27.4798C36.879 28.512 37.6029 30.1275 37.9874 31.0587L38.0327 31.0475ZM33.5197 31.0475C33.3953 31.0924 33.5197 31.0139 33.3953 31.1148C33.384 31.1261 33.3388 31.1709 33.3274 31.1821C33.3161 31.1934 33.1917 31.3617 33.1578 31.3953C32.072 32.7416 31.2915 33.6504 29.8211 34.7611C29.6289 34.9069 29.561 34.9742 29.4026 35.0977C29.2669 35.1986 29.1425 35.2547 28.9841 35.3669L28.1019 35.9279C24.0414 38.3512 18.6688 37.9361 14.8684 35.3333C12.8099 33.9196 10.9323 31.429 10.0048 29.1739C8.26296 24.9442 7.84447 21.1746 8.44393 16.5074C8.60228 15.2508 8.67015 15.2059 8.90767 14.0055C8.98685 13.6016 9.11126 13.2426 9.23568 12.8836C9.83515 11.1221 10.559 9.47291 11.8484 8.1266L12.6063 7.36369C13.4998 6.57834 13.8731 6.21933 15.1964 5.61349C17.9223 4.35693 20.9649 4.02035 24.0527 4.53644C26.6428 4.96277 29.5044 6.43249 31.4386 8.20513C31.6987 8.44074 32.2756 9.18121 32.5244 9.24852C32.5244 8.9456 32.4113 8.53049 32.3887 8.25001L32.072 5.1535C32.038 4.48034 31.8684 3.82963 31.8457 3.1116C31.8005 1.92236 31.7553 2.15796 30.7825 1.8887L24.8897 0.912624C24.6182 0.901404 22.9555 0.834089 22.8311 0.800431C22.6728 0.834089 21.6774 0.755554 21.225 0.755554L19.6189 0.834089C18.3634 0.845308 15.253 1.41749 13.9635 1.89992C11.758 2.71892 11.43 2.77502 9.32617 4.04279C7.33548 5.24325 5.50315 7.04955 4.12325 8.87829C2.67548 10.7743 1.45393 13.3211 0.83184 15.6884C0.594316 16.5859 0.402034 17.4274 0.254995 18.4483C-0.0730146 20.7034 -0.140879 23.957 0.390724 26.1335C0.707423 27.4461 0.99019 28.7363 1.54441 29.9817C2.34747 31.7768 3.51247 33.7177 4.85844 35.1089C5.14121 35.4006 5.40136 35.6586 5.69544 35.9391C5.88772 36.1186 5.96689 36.1411 6.15917 36.3206C6.97354 37.0723 8.12723 37.8688 9.08864 38.4186C11.905 40.0229 14.2463 40.5951 17.3794 41.0326C21.1571 41.5487 27.1066 40.9541 30.7712 39.6302C30.9748 39.5517 31.1558 39.4844 31.382 39.4059C31.6422 39.3161 31.6987 39.2712 31.9589 39.1478C32.2869 38.9907 32.2416 39.0468 32.3773 38.7215C33.1804 36.7469 34.1192 32.9323 33.531 31.0363L33.5197 31.0475Z" fill="white"/>
<path fill-rule="evenodd" clip-rule="evenodd" d="M107.887 41.2234H108.385V1.82138H107.887V41.2234Z" fill="white"/>
</svg>
