<svg width="77" height="90" viewBox="0 0 77 90" fill="none" xmlns="http://www.w3.org/2000/svg">
<path d="M50.548 76.8275C50.9226 75.3904 51.645 74.0705 52.6572 72.9803C72.0718 61.344 76.8609 32.5483 76.9946 27.3811C77.0749 26.2684 76.2455 25.2953 75.1486 25.2097C75.1129 25.2097 75.0772 25.2097 75.0371 25.2052C69.8914 25.1241 65.3431 21.3039 62.369 18.0198C62.7569 16.9206 62.7346 15.7313 62.2976 14.6411C61.825 13.4518 60.9242 12.5193 59.7604 12.0147C59.1629 11.7579 58.5163 11.6408 57.8475 11.6273C57.7583 11.6318 57.6647 11.6408 57.5755 11.6543C56.3983 9.80729 55.3147 7.87016 54.3516 5.90149C53.5133 1.82451 45.8125 0.00450496 38.5131 0H38.4997C31.2002 0 23.495 1.82451 22.6522 5.89248C21.7604 7.726 20.7571 9.53249 19.6736 11.2624C19.6513 11.2624 19.629 11.2624 19.6067 11.2624C17.0026 11.2624 14.8757 13.3977 14.8623 16.0331C14.8623 16.5377 14.9336 17.0332 15.0852 17.5108C12.0219 21.0246 7.31313 25.1241 1.96227 25.2007C1.42719 25.2142 0.927773 25.435 0.557672 25.8224C0.187571 26.2143 -0.00862696 26.7279 0.000291129 27.264C0.000291129 27.3 0.000291129 27.3361 0.000291129 27.3496C0.0671768 30.6607 1.52083 39.2607 5.13711 48.2481C8.33871 56.2038 14.2737 66.9481 24.3601 72.9938C25.3589 74.0795 26.0723 75.3904 26.4469 76.8185C17.1721 77.8862 12.6595 79.9359 12.6595 83.0804C12.6595 89.6666 34.1744 90 38.4908 90C42.8071 90 64.322 89.6666 64.322 83.0804C64.322 79.9359 59.8095 77.8862 50.5347 76.8185L50.548 76.8275ZM18.4875 20.7498C18.3849 23.642 20.5074 26.1828 23.4014 26.5207C23.5931 26.5432 23.7848 26.5567 23.9766 26.5567C24.0925 29.9174 26.7501 32.688 30.1301 32.8501C30.2683 32.8546 30.411 32.8591 30.567 32.8546C30.7632 32.8456 30.9594 32.8276 31.1556 32.8006C31.2939 36.7064 34.3974 39.9139 38.3258 40.0806C42.33 40.2473 45.7724 37.1569 46.0934 33.1385C46.3833 33.179 46.6731 33.206 46.9674 33.215C50.5124 33.2691 53.4197 30.4625 53.5445 26.9171C56.5365 26.8811 58.9845 24.4394 59.0336 21.3985C59.0336 21.3039 59.0336 21.2093 59.0336 21.1102C59.2387 21.0652 59.4438 21.0066 59.64 20.9345C63.9073 25.6017 68.3307 28.3272 72.8031 29.0389C71.8979 37.4046 66.4222 59.6051 51.0073 69.2592C50.7576 69.3763 50.5213 69.5205 50.3072 69.6917C46.7266 71.809 42.6511 73.1424 38.5175 73.5524C34.384 73.147 30.304 71.809 26.7189 69.6917C26.5049 69.525 26.273 69.3853 26.0277 69.2637C10.6262 59.6231 5.13711 37.4091 4.22747 29.0434C8.84258 28.3136 13.3953 25.4485 17.774 20.5201C18.0104 20.6147 18.2556 20.6913 18.5009 20.7498H18.4875ZM38.5042 13.0554C43.0435 13.0554 48.8759 12.2985 52.0775 10.2082C52.5457 11.0687 53.2145 12.231 54.0528 13.5644C53.6694 14.114 53.4063 14.7357 53.2725 15.3934C50.6328 15.3934 48.3631 17.317 47.8771 19.9074C47.5828 19.8623 47.284 19.8353 46.9808 19.8263C46.9362 19.8263 46.8961 19.8263 46.8515 19.8263C43.7614 19.8263 41.1082 22.0878 40.5464 25.1151C39.9266 24.9484 39.2845 24.8493 38.6112 24.8268C38.0761 24.8493 37.541 24.9169 37.0148 25.0385C36.5689 21.8085 33.7999 19.4028 30.5225 19.4659C30.2282 19.4749 29.9294 19.5065 29.6351 19.547C29.1491 16.9612 26.8794 15.033 24.2397 15.033C24.0881 14.2942 23.767 13.596 23.3077 13.0058C23.8785 12.0778 24.4225 11.1408 24.9308 10.2082C28.1324 12.2985 33.9648 13.0554 38.5042 13.0554ZM49.5403 27.0568C49.3976 27.755 48.9918 28.3587 48.3988 28.7506C47.9707 29.0344 47.4757 29.1876 46.9763 29.1876C46.2718 29.1786 45.6119 28.8903 45.1214 28.3812C44.6309 27.8722 44.3633 27.1964 44.3723 26.4846C44.3901 25.0295 45.5361 23.8718 46.9763 23.8537C46.9897 23.8537 47.0031 23.8537 47.0165 23.8537C47.7032 23.8537 48.3676 24.1376 48.8447 24.6331C48.9472 24.7818 49.0543 24.9304 49.1702 25.0701C49.5447 25.6602 49.6741 26.3675 49.5358 27.0568H49.5403ZM42.1516 32.4987C42.1294 34.4404 40.5464 36.0396 38.6379 36.0622C37.6837 36.0532 36.7919 35.6657 36.1275 34.9765C35.4631 34.2872 35.1019 33.3772 35.1108 32.4177C35.1331 30.476 36.7161 28.8768 38.6245 28.8542C39.5788 28.8633 40.4706 29.2507 41.135 29.9399C41.7994 30.6292 42.1606 31.5392 42.1516 32.4987ZM33.189 26.1558C33.189 26.8676 32.917 27.5388 32.422 28.0433C31.9226 28.5479 31.2627 28.8272 30.5581 28.8272C29.8402 28.8497 29.1892 28.5524 28.6898 28.0524C28.1904 27.5478 27.9139 26.8811 27.9139 26.1693C27.9139 25.6512 28.0611 25.1467 28.3375 24.7097C28.4535 24.57 28.5649 24.4214 28.6675 24.2727C29.1491 23.7772 29.809 23.4933 30.5046 23.4933C30.5225 23.4933 30.5358 23.4933 30.5537 23.4933C32.0073 23.4933 33.189 24.6872 33.1934 26.1558H33.189ZM54.4452 22.5023C54.1599 22.732 53.8076 22.8672 53.442 22.8852C52.8623 22.7275 52.3316 22.4212 51.8991 21.9977C51.4532 21.1868 51.7252 20.1507 52.5189 19.6686C52.7686 19.52 53.0496 19.4344 53.3349 19.4254C53.8388 19.5515 54.3204 19.7813 54.7351 20.0921C55.2925 20.8399 55.1676 21.9076 54.4408 22.4977L54.4452 22.5023ZM24.1728 19.0695C24.6098 19.0875 25.02 19.2677 25.3321 19.583C25.6532 19.9119 25.8315 20.3489 25.8271 20.8129C25.8271 21.1012 25.7513 21.3895 25.613 21.6418C25.1805 22.0653 24.6499 22.3716 24.0702 22.5293C23.6332 22.5113 23.223 22.3266 22.9153 22.0067C22.5943 21.6733 22.4204 21.2364 22.4248 20.7678C22.4293 20.3939 22.5541 20.0335 22.7726 19.7362C23.1873 19.4254 23.6689 19.1956 24.1728 19.0695ZM26.9062 80.8324C26.9062 81.2874 26.8348 81.4586 26.7367 82.1479C26.6609 82.6794 26.7992 83.211 27.1202 83.639C27.4413 84.067 27.9095 84.3463 28.4356 84.4229C29.5192 84.576 30.5269 83.8147 30.6874 82.72C30.6874 82.72 31.4098 78.6295 30.2906 75.7914C32.9259 76.7329 35.6593 77.3411 38.4061 77.5933L38.4596 77.6024H38.5666C41.3535 77.3366 44.0913 76.7239 46.7311 75.7824C46.0578 78.2781 45.9151 80.1567 46.3298 82.702C46.4814 83.8012 47.4891 84.576 48.5771 84.4229C49.6562 84.2742 50.4143 83.2741 50.2849 82.1839C50.2849 82.1839 50.1244 81.5262 50.111 80.8324C55.6046 81.4721 58.5788 82.4362 59.8362 83.0984C57.6067 84.2607 50.227 85.9771 38.5131 85.9771C26.7992 85.9771 19.4194 84.2652 17.1899 83.0984C18.4474 82.4362 21.4215 81.4721 26.9195 80.8324H26.9062ZM57.9233 17.2405C57.6825 17.1774 57.4551 17.0693 57.2589 16.9161C57.0226 16.5467 57.1073 16.0557 57.4595 15.7899C57.4685 15.7854 57.4774 15.7764 57.4818 15.7718C57.6156 15.7178 57.7583 15.6818 57.901 15.6592C58.3157 15.6863 58.6457 16.0421 58.6367 16.4701C58.6278 16.8801 58.3201 17.2089 57.9188 17.245L57.9233 17.2405ZM26.6297 6.55471C27.2584 5.87446 30.9282 4.05896 38.5042 4.05896C46.0801 4.05896 49.7365 5.86545 50.3786 6.53669C49.7186 7.22595 46.0444 9.02343 38.5042 9.02343C30.9639 9.02343 27.2629 7.21694 26.6297 6.55471ZM20.2577 16.5422C20.2577 16.5422 20.2533 16.5512 20.2488 16.5557C20.0526 16.7089 19.8252 16.817 19.5844 16.8801C19.3927 16.862 19.2188 16.781 19.085 16.6413C18.9379 16.4881 18.8621 16.2899 18.8665 16.0737C18.8754 15.6592 19.192 15.3214 19.5978 15.2943C19.7405 15.3214 19.8876 15.3574 20.0259 15.4069C20.387 15.6592 20.4941 16.1548 20.2577 16.5377V16.5422Z" fill="white"/>
</svg>
