<svg width="175" height="69" viewBox="0 0 175 69" fill="none" xmlns="http://www.w3.org/2000/svg">
<path d="M20.0713 33.51C20.2113 35.03 20.7613 36.13 21.7213 36.82C22.5513 37.65 23.9313 37.92 25.5813 37.92C27.2313 37.92 27.6513 37.78 28.4813 37.51C29.1713 37.23 29.8613 36.68 30.2713 35.99C30.6813 35.3 30.9613 34.61 30.9613 33.92C30.9613 33.23 30.8213 32.4 30.4113 31.85C30.1313 31.3 29.5813 30.88 29.0313 30.47C28.3413 30.19 27.5113 29.78 26.1313 29.5C24.8913 29.22 24.0613 28.95 23.6513 28.67C23.3713 28.39 23.2413 28.12 23.2413 27.84C23.2413 27.56 23.2413 27.29 23.6513 27.01C24.0613 26.73 24.7513 26.6 25.4413 26.6C26.1313 26.6 26.8213 26.6 27.0913 27.01C27.5013 27.29 27.7813 27.84 27.7813 28.39H30.4013C30.4013 27.01 29.8513 26.05 29.0213 25.36C28.1913 24.67 26.9513 24.26 25.3013 24.26C23.6513 24.26 23.3713 24.4 22.6813 24.67C21.9913 24.95 21.4413 25.36 21.0313 26.05C20.6213 26.6 20.4813 27.29 20.4813 27.98C20.4813 29.08 20.8913 29.91 21.7213 30.6C22.2713 31.15 23.2413 31.57 24.7513 31.84C25.8513 32.12 26.5413 32.25 26.8213 32.39C27.2313 32.53 27.6513 32.67 27.7913 32.94C27.9313 33.22 28.0713 33.35 28.0713 33.77C28.0713 34.19 27.7913 34.74 27.3813 35.01C26.9713 35.29 26.2813 35.56 25.4513 35.56C24.6213 35.56 23.9313 35.28 23.5213 34.87L23.6613 35.15C23.2513 34.74 22.8313 34.05 22.6913 33.22L20.0713 33.5V33.51Z" fill="white"/>
<path d="M35.9313 24.55H34.1313L30.8213 38.06H32.7613L35.9313 24.55Z" fill="white"/>
<path d="M39.1013 58.88L38.9613 59.16H14.0013C12.0713 59.16 9.17126 57.09 9.17126 54.61L8.89126 34.06C8.61126 33.51 8.20126 32.82 7.92126 32.54C6.82126 31.02 3.09126 26.47 0.471257 28.4C-0.498743 29.09 0.0612566 30.47 1.85126 33.36C2.82126 34.88 3.64126 36.39 3.92126 37.91C4.20126 39.84 4.47126 42.05 4.61126 44.39C5.02126 50.87 5.58126 58.18 10.1313 63.42C14.1313 67.97 24.0613 70.18 31.6413 68.11C33.2913 67.7 39.9113 64.39 42.8113 58.18L40.4713 58.87C39.7813 59.01 39.6413 58.87 39.0913 58.87L39.1013 58.88Z" fill="white"/>
<path d="M39.1013 28.68C37.7213 29.37 37.0313 31.02 37.5813 32.4C38.2713 33.78 39.9213 34.47 41.3013 33.78L48.0613 30.88C49.4413 30.33 50.1313 28.54 49.4413 27.16C48.7513 25.78 47.1013 25.09 45.7213 25.78H45.8613L39.1013 28.68Z" fill="white"/>
<path d="M45.8513 33.51V33.37L39.0913 36.27C37.7113 36.96 37.0213 38.61 37.7113 39.99C38.2613 41.37 40.0513 42.06 41.4313 41.51L48.1913 38.61C49.5713 37.92 50.2613 36.27 49.5713 34.89C49.0213 33.51 47.2313 32.82 45.8513 33.51Z" fill="white"/>
<path d="M45.8513 41.23V41.09L39.0913 43.99C37.7113 44.68 37.0213 46.33 37.7113 47.71C38.2613 49.09 40.0513 49.78 41.4313 49.23L48.1913 46.33C49.5713 45.64 50.2613 43.99 49.5713 42.61C49.0213 41.23 47.2313 40.54 45.8513 41.23Z" fill="white"/>
<path d="M45.8513 49.09L39.0913 51.99C37.7113 52.54 37.0213 54.33 37.7113 55.71C38.2613 57.09 40.0513 57.78 41.4313 57.09L48.1913 54.19C49.5713 53.5 50.2613 51.85 49.5713 50.47C49.0213 49.09 47.2313 48.4 45.8513 49.09Z" fill="white"/>
<path d="M15.7913 57.36H37.1613C36.7513 57.08 36.1913 56.53 36.0613 56.26L35.7813 55.71C34.9513 53.92 35.7813 51.71 37.4313 50.88L38.4013 50.47C37.0213 50.47 35.9213 48.95 35.7813 48.13V47.72H13.0413C13.0413 47.86 13.0413 6.21 13.0413 6.21H41.1713V26.2L43.5113 25.1V5.1C43.5113 2.34 41.3013 0 38.4113 0H15.8013C12.9013 0 10.7013 2.34 10.7013 5.1V52.26C10.7013 55.16 13.0413 57.36 15.8013 57.36H15.7913ZM27.3813 49.78C28.7613 49.78 29.8613 50.88 29.8613 52.26C29.8613 53.64 28.7613 54.74 27.3813 54.74C26.0013 54.74 24.7613 53.64 24.7613 52.26C24.7613 50.88 25.8613 49.78 27.3813 49.78ZM22.0013 2.62H33.4513C33.8613 2.62 34.1413 2.9 34.1413 3.31C34.1413 3.72 33.8613 4 33.4513 4H22.0113C21.6013 4 21.3213 3.72 21.3213 3.31C21.3213 2.9 21.6013 2.62 22.0113 2.62H22.0013Z" fill="white"/>
<path d="M86.8113 23.28L99.3013 23.15V32.92H103.241V9.44H99.1613L99.3013 19.62H86.8113L86.6813 9.44H82.7413V33.05H86.8113V23.28Z" fill="white"/>
<path d="M110.841 26.67H123.461V32.91H127.401V19.2C127.401 13.09 123.461 9.29 117.091 9.29C110.711 9.29 106.911 13.09 106.911 19.2V33.04H110.851V26.66L110.841 26.67ZM110.701 19.35C110.701 15.41 113.141 12.97 117.081 12.97C121.021 12.97 123.461 15.41 123.461 19.35V23.29H110.701V19.35Z" fill="white"/>
<path d="M135.401 26H140.831C146.801 26 150.191 22.88 150.191 17.59C150.191 12.3 146.801 9.58 140.831 9.58V9.44H131.471V33.05H135.411V25.99L135.401 26ZM135.401 12.97H140.691C144.351 12.97 146.391 14.46 146.391 17.58C146.391 20.7 144.351 22.33 140.691 22.33H135.401V12.97Z" fill="white"/>
<path d="M163.901 9.3C157.521 9.3 153.721 13.1 153.721 19.21V33.05H157.661V26.67H170.281V32.91H174.221V19.2C174.221 13.09 170.281 9.29 163.911 9.29L163.901 9.3ZM170.421 23.28H157.801V19.34C157.801 15.4 160.241 12.96 164.041 12.96C167.841 12.96 170.421 15.4 170.421 19.34V23.28Z" fill="white"/>
<path d="M71.7513 33.19C78.5413 33.19 78.5413 31.7 80.8413 29.25L78.5313 26.67C76.7713 28.43 74.3213 29.52 72.0213 29.52V29.38C67.2713 29.38 63.6113 25.72 63.6113 21.1C63.6113 16.48 67.2713 12.82 72.0213 12.82C74.4613 12.82 76.9113 13.91 78.5313 15.81L80.8413 12.96C78.5313 10.65 75.2813 9.3 71.8813 9.3C64.9613 9.3 59.5313 14.46 59.5313 21.24C59.5313 28.02 64.9613 33.18 71.7413 33.18L71.7513 33.19Z" fill="white"/>
<path d="M74.0413 41.75C76.0813 41.75 78.4013 42.98 79.9013 44.88L83.4413 40.52C81.1213 38.07 77.4513 36.43 73.9113 36.43C66.6913 36.43 61.2413 41.61 61.2413 48.41C61.2413 55.21 66.5513 60.53 73.6313 60.53C77.1713 60.53 80.9813 58.76 83.4413 56.17L79.7613 52.36C78.1513 53.97 75.8813 55.05 73.9813 55.08C70.3313 55.05 67.6413 52.21 67.6413 48.41C67.6413 44.61 70.3613 41.74 74.0413 41.74V41.75Z" fill="white"/>
<path d="M96.5813 36.57C89.9513 36.6 85.7513 40.67 85.7513 46.78V60.4H91.8813V54.82H101.411V60.4H107.541V46.78C107.541 40.54 103.351 36.6 96.5813 36.57ZM92.0213 50.19V46.79C92.0213 43.79 93.7913 41.89 96.7913 41.89C99.7913 41.89 101.561 43.8 101.561 46.79V50.19H92.0213Z" fill="white"/>
<path d="M96.5113 36.57C96.5113 36.57 96.5613 36.57 96.5813 36.57C96.6013 36.57 96.6213 36.57 96.6513 36.57H96.5113Z" fill="white"/>
<path d="M118.051 42.93C118.151 41.96 119.071 41.47 120.481 41.47C122.391 41.47 125.661 42.56 128.111 43.92L130.431 39.02C127.981 37.39 124.441 36.3 121.031 36.3C115.311 36.3 111.631 39.16 111.631 43.52C111.631 51.96 124.161 49.51 124.161 53.46C124.161 55.48 123.071 55.37 121.161 55.37C119.251 55.37 115.031 53.87 112.581 51.83L110.131 56.6C112.991 58.92 117.081 60.41 121.021 60.41C126.331 60.41 130.551 57.96 130.551 53.06C130.551 44.69 118.261 46.75 118.041 42.94L118.051 42.93Z" fill="white"/>
<path d="M149.491 46.38H139.821V36.71H133.691V60.4H139.951L139.821 51.28H149.491V60.4L155.611 60.27V36.71H149.351L149.491 46.38Z" fill="white"/>
</svg>
