<svg width="84" height="90" viewBox="0 0 84 90" fill="none" xmlns="http://www.w3.org/2000/svg">
<path d="M59.8348 71.5387C59.272 72.0162 58.4369 72.2505 57.3294 72.2505C56.2799 72.2505 55.4492 71.9847 54.8329 71.4531C54.3952 71.0792 54.0648 70.5521 53.837 69.8764C53.6584 69.3493 53.1582 68.9934 52.6089 69.052L51.5281 69.1601C50.8225 69.2277 50.3178 69.9169 50.5009 70.6062C50.8448 71.8946 51.4522 72.9217 52.332 73.6831C53.4886 74.6877 55.1455 75.1922 57.3026 75.1877C58.7853 75.1877 60.0223 74.976 61.0138 74.557C62.0097 74.1381 62.7734 73.4984 63.3182 72.6334C63.8586 71.773 64.131 70.8494 64.131 69.8628C64.131 68.7727 63.9032 67.8581 63.4477 67.1193C62.9922 66.3805 62.3625 65.7994 61.5631 65.3714C60.7592 64.948 59.5177 64.5335 57.8429 64.1371C56.1682 63.7406 55.1098 63.3577 54.6766 62.9883C54.3327 62.7 54.163 62.3531 54.163 61.9431C54.163 61.4972 54.3461 61.1413 54.7079 60.8755C55.275 60.461 56.0566 60.2493 57.0569 60.2493C58.0261 60.2493 58.754 60.443 59.2408 60.8304C59.5623 61.0872 59.8124 61.4566 59.9866 61.9341C60.1652 62.4252 60.6654 62.7135 61.1835 62.691L62.3357 62.6369C63.086 62.6054 63.6263 61.8666 63.4209 61.1368C63.1574 60.2087 62.6617 59.4249 61.9293 58.7852C60.8441 57.8391 59.2319 57.3661 57.0927 57.3706C55.7797 57.3706 54.6632 57.5733 53.7343 57.9743C52.8098 58.3752 52.0997 58.9564 51.6085 59.7222C51.1172 60.4835 50.8716 61.3034 50.8716 62.1819C50.8716 63.5424 51.3986 64.6957 52.4436 65.6417C53.1894 66.313 54.4846 66.8806 56.3335 67.3401C57.767 67.7005 58.687 67.9482 59.0934 68.0924C59.6829 68.3041 60.0938 68.5519 60.3349 68.8357C60.5716 69.1195 60.6878 69.4664 60.6922 69.8719C60.6922 70.5071 60.4109 71.0612 59.8482 71.5342L59.8348 71.5387Z" fill="white"/>
<path d="M69.2668 57.3661C68.7265 57.3661 68.2531 57.74 68.128 58.2761L64.4793 73.7146C64.3052 74.4579 64.8634 75.1697 65.6226 75.1697C66.163 75.1697 66.6319 74.7958 66.7614 74.2642L70.4548 58.8257C70.6334 58.0824 70.0752 57.3661 69.316 57.3661H69.2668Z" fill="white"/>
<path d="M13.0674 15.8214H33.8072C35.2497 15.8214 36.4198 14.6411 36.4198 13.186C36.4198 11.7309 35.2497 10.5506 33.8072 10.5506H13.0674C11.6249 10.5506 10.4548 11.7309 10.4548 13.186C10.4548 14.6411 11.6249 15.8214 13.0674 15.8214Z" fill="white"/>
<path d="M13.0674 26.372H51.2333C52.6758 26.372 53.8459 25.1917 53.8459 23.7366C53.8459 22.2815 52.6758 21.1012 51.2333 21.1012H13.0674C11.6249 21.1012 10.4548 22.2815 10.4548 23.7366C10.4548 25.1917 11.6249 26.372 13.0674 26.372Z" fill="white"/>
<path d="M65.0019 42.9863V2.6354C65.0019 1.1803 63.8318 0 62.3893 0H2.61258C1.17008 0 0 1.1803 0 2.6354V76.4671C0 77.9222 1.17008 79.1025 2.61258 79.1025H40.5419C40.591 79.1025 40.6401 79.098 40.6937 79.0935C45.0168 85.8689 52.4257 90 60.4734 90C73.447 90 84 79.3548 84 66.2679C84 54.7442 75.8139 45.1171 65.0019 42.9773V42.9863ZM5.22516 5.2753H59.7722V42.5538C58.035 42.6034 56.3424 42.8466 54.7168 43.2611V34.2827C54.7168 32.8276 53.5467 31.6473 52.1042 31.6473C52.0461 31.6473 51.9926 31.6518 51.939 31.6563C51.8764 31.6563 51.8184 31.6473 51.7559 31.6473H13.4157C12.3975 31.6473 11.5132 32.2375 11.0845 33.0979C10.6915 33.5574 10.4548 34.1566 10.4548 34.8143V65.93C10.4548 67.3851 11.6249 68.5654 13.0674 68.5654H37.054C37.2281 70.3584 37.6033 72.1333 38.1749 73.8407H5.22516V5.2753ZM37.1299 63.2856H26.1392V58.0103H38.4161C37.7953 59.6861 37.3576 61.4521 37.1299 63.2856ZM49.4916 42.2024C49.4336 42.2024 49.3755 42.1934 49.3175 42.1934H26.1392V36.9181H49.4916V42.2024ZM20.9096 42.1934H15.6799V36.9181H20.9096V42.1934ZM15.6844 47.4642H20.914V52.7395H15.6844V47.4642ZM15.6844 58.0148H20.914V63.2901H15.6844V58.0148ZM41.1582 52.7395H26.1392V47.4642H46.1422C44.2263 48.9553 42.5426 50.7348 41.1582 52.7395ZM60.4689 84.7337C53.6985 84.7337 47.5043 80.9676 44.3022 74.9039C42.9088 72.264 42.1719 69.2772 42.1719 66.2769C42.1853 66.1598 42.1987 66.0426 42.1987 65.9255C42.1987 65.8309 42.1943 65.7408 42.1853 65.6507C42.5158 55.7623 50.5902 47.8201 60.4734 47.8201C70.3565 47.8201 78.7704 56.1002 78.7704 66.2769C78.7704 76.4536 70.562 84.7337 60.4734 84.7337H60.4689Z" fill="white"/>
</svg>
