<svg width="200" height="65" viewBox="0 0 200 65" fill="none" xmlns="http://www.w3.org/2000/svg">
<path d="M164.17 34.5908C163.87 34.3308 163.49 34.2008 163.1 34.2008H155.83C155.46 34.2008 155.11 34.3508 154.85 34.5908C154.56 34.8508 154.41 35.2408 154.41 35.6408V62.9308C154.41 63.3108 154.57 63.6508 154.85 63.9108H154.89C155.15 64.2208 155.54 64.3808 155.95 64.3808H163.1C163.49 64.4008 163.89 64.2508 164.17 63.9708C164.45 63.7008 164.6 63.3208 164.6 62.9308V35.6408C164.62 35.2508 164.45 34.8708 164.17 34.5908ZM164.19 21.9208C163.91 21.6308 163.52 21.4808 163.12 21.4808H155.85C155.48 21.5008 155.13 21.6508 154.87 21.9208C154.59 22.2108 154.44 22.6008 154.44 23.0108V28.4008C154.42 28.8108 154.57 29.1908 154.85 29.4908C155.12 29.8008 155.53 29.9508 155.94 29.9208H163.13C163.54 29.9208 163.92 29.7708 164.2 29.4908C164.48 29.2108 164.64 28.8108 164.64 28.4008V23.0108C164.65 22.6008 164.49 22.2108 164.2 21.9208H164.19Z" fill="white"/>
<path d="M27.06 0.250781V10.3608H39.4V0.230781H43.3V23.5308H39.4V13.8708H27.06V23.5308H23.16V0.250781H27.06Z" fill="white"/>
<path d="M57.05 0.0707812V0.0507812C50.79 0.0507812 46.93 3.85078 46.97 9.87078V23.5208H50.87V17.3008H63.35V23.5508H67.25V9.91078C67.25 3.85078 63.42 0.0707812 57.06 0.0707812H57.05ZM50.84 13.7808V9.88078C50.8 5.98078 53.15 3.59078 57.05 3.59078L57.08 3.62078C61 3.62078 63.35 6.01078 63.35 9.88078V13.7808H50.84Z" fill="white"/>
<path d="M71.33 0.210781V23.5008H75.23V16.4908H80.59C86.45 16.4908 89.8 13.4308 89.8 8.17078C89.8 2.91078 86.43 0.210781 80.62 0.210781H71.33ZM80.42 12.9508H75.23V3.74078H80.42C84.01 3.74078 86.05 5.21078 86.05 8.26078H86.06C86.06 11.4208 84.02 12.9508 80.42 12.9508Z" fill="white"/>
<path d="M103.41 0.0707812C97.15 0.0707812 93.3 3.85078 93.33 9.85078V23.4908H97.23V17.2708H109.72V23.4508H113.62V9.88078C113.62 3.83078 109.77 0.0807812 103.41 0.0707812ZM109.7 13.7808H97.17V9.88078C97.14 5.98078 99.49 3.59078 103.39 3.59078H103.41C107.32 3.59078 109.66 5.97078 109.69 9.88078V13.7808H109.7Z" fill="white"/>
<path d="M12.53 3.64078C7.99 3.64078 4.32 7.31078 4.32 11.8508C4.32 16.3908 7.99 20.0608 12.53 20.0608C14.96 19.9908 17.29 19.0008 19.03 17.2908L21.35 19.8908C18.94 22.2808 15.72 23.6508 12.34 23.7408C5.83 23.8908 0.41 18.7508 0.24 12.2308V11.8908C0.24 5.26078 5.6 0.190781 12.47 0.190781C15.77 0.190781 18.94 1.48078 21.32 3.78078L19.02 6.62078C17.35 4.79078 15.01 3.73078 12.52 3.66078L12.53 3.64078Z" fill="white"/>
<path d="M4.44 61.4008C1.71 59.0508 0.26 55.8008 0.05 51.6508L0 49.2708L0.05 46.8908C0.2 42.7008 1.65 39.4308 4.41 37.0908C7.17 34.7308 10.74 33.5408 15.13 33.5408C18.07 33.4408 20.97 34.0608 23.61 35.3508C25.65 36.3308 27.4 37.8008 28.73 39.6208C29.72 40.9408 30.35 42.4908 30.54 44.1208C30.61 44.5008 30.49 44.8908 30.21 45.1808C29.91 45.4708 29.52 45.6308 29.11 45.6108H21.31C20.96 45.6208 20.62 45.5308 20.33 45.3108C20.04 45.0408 19.84 44.7008 19.69 44.3308C19.36 43.3908 18.79 42.5808 18.03 41.9508C17.27 41.4208 16.36 41.1508 15.43 41.1908C12.45 41.1908 10.9 43.1708 10.78 47.1308L10.7 49.3708L10.75 51.3108C10.65 52.8908 11.09 54.4508 11.97 55.7508C12.83 56.7408 14.09 57.2708 15.39 57.1808C16.33 57.2308 17.27 56.9908 18.04 56.4608C18.79 55.8208 19.33 54.9808 19.64 54.0408C19.78 53.6708 19.99 53.3508 20.28 53.0608C20.57 52.8608 20.91 52.7508 21.26 52.7608H29.06C29.44 52.7608 29.82 52.9108 30.11 53.1708C30.41 53.4108 30.57 53.7708 30.57 54.1508C30.43 55.7308 29.88 57.2208 28.95 58.5008C27.66 60.3908 25.91 61.9208 23.87 62.9408C21.18 64.3108 18.18 64.9808 15.16 64.8808C10.7 64.8808 7.17 63.7008 4.42 61.3508V61.3808L4.44 61.4008Z" fill="white"/>
<path d="M58.8 36.6808C56.46 34.5808 52.89 33.5208 48.08 33.5208C45.47 33.4508 42.87 33.9308 40.47 34.9208C38.69 35.6508 37.11 36.8008 35.88 38.2608C35 39.2508 34.44 40.4908 34.3 41.8108C34.26 42.1308 34.37 42.4808 34.61 42.7008C34.87 42.9608 35.22 43.0908 35.59 43.0808H42.37C42.62 43.0708 42.85 42.9008 42.94 42.6708C43.43 42.4008 43.88 42.0708 44.27 41.6908C44.83 41.2108 45.43 40.8008 46.05 40.4608C46.65 40.1808 47.31 40.0308 48 40.0508C49.06 39.9508 50.13 40.3108 50.92 41.0308C51.59 41.9408 51.9 43.0508 51.81 44.1708V44.8808L44.59 46.0608C41.34 46.4508 38.25 47.6108 35.56 49.4608C33.45 50.9308 32.23 53.3308 32.27 55.8908C32.27 57.5308 32.76 59.1408 33.7 60.4808C34.69 61.8908 36.07 63.0208 37.65 63.7108L37.68 63.6908C39.44 64.5008 41.39 64.9108 43.33 64.8708C45.19 64.9208 47.06 64.5308 48.74 63.7308C50.14 63.0608 51.36 62.0608 52.27 60.8108V62.8508C52.27 63.2308 52.43 63.5708 52.7 63.8308C52.96 64.1008 53.31 64.2708 53.68 64.2708H60.85C61.24 64.2808 61.63 64.1208 61.9 63.8308C62.15 63.5608 62.29 63.2208 62.29 62.8508V45.2408C62.44 42.0108 61.16 38.8708 58.8 36.6608V36.6808ZM50.31 56.3708C49.22 57.4808 47.72 58.1108 46.15 58.0608C45.16 58.1008 44.17 57.8108 43.34 57.2508C42.62 56.7708 42.2 55.9608 42.21 55.1008C42.21 53.4208 43.84 52.2608 47.09 51.6108L51.91 50.8008V51.5108C52.03 53.2908 51.45 55.0308 50.31 56.3908V56.3708Z" fill="white"/>
<path d="M67.56 63.9008C67.29 63.6408 67.13 63.3008 67.13 62.9208V35.6308C67.13 35.2408 67.28 34.8408 67.56 34.5808C67.82 34.3408 68.17 34.1908 68.54 34.1908H75.28C76.04 34.1508 76.69 34.7208 76.73 35.4808V37.5908C77.74 36.4108 78.96 35.4408 80.33 34.7408C81.88 33.9508 83.59 33.5608 85.33 33.5808C89.6 33.5808 92.52 35.2508 94.09 38.5808C95.07 37.0708 96.41 35.8408 97.99 34.9808C99.62 34.0608 101.47 33.5808 103.34 33.5808C106.29 33.4608 109.13 34.6408 111.14 36.8008C113.14 38.9608 114.13 42.1708 114.13 46.4208V62.8908C114.13 63.2608 113.98 63.6108 113.72 63.8708C113.45 64.1608 113.07 64.3208 112.67 64.3008H105.52C105.13 64.3008 104.73 64.1608 104.45 63.8908C104.17 63.6208 104 63.2408 104.02 62.8408V46.7808C104.13 45.3808 103.73 43.9908 102.89 42.8808C102.1 42.0408 100.99 41.5808 99.85 41.6308C98.74 41.6008 97.68 42.0508 96.93 42.8808C96.09 43.9908 95.68 45.3808 95.79 46.7808V62.8808C95.79 63.2508 95.64 63.5908 95.4 63.8608C95.13 64.1508 94.75 64.3108 94.35 64.2908H87.2C86.81 64.2908 86.41 64.1508 86.11 63.8808C85.82 63.6108 85.68 63.2308 85.68 62.8308V46.7708C85.79 45.3708 85.38 43.9808 84.51 42.8708C83.74 42.0308 82.63 41.5808 81.49 41.6208C80.38 41.6108 79.32 42.0508 78.57 42.8708C77.7 43.9708 77.29 45.3708 77.41 46.7708V62.8708C77.41 63.2408 77.26 63.5908 77 63.8508C76.73 64.1408 76.35 64.3008 75.95 64.2808H68.58C68.2 64.2808 67.83 64.1408 67.56 63.8908H67.53L67.56 63.9008Z" fill="white"/>
<path d="M150.25 47.1508C150.09 42.9108 148.92 39.6008 146.76 37.1808C144.5 34.7108 141.27 33.3808 137.93 33.5408C134.76 33.4008 131.69 34.6308 129.5 36.9108V24.5308C129.51 24.1508 129.36 23.7708 129.09 23.4808C128.82 23.2208 128.44 23.0708 128.04 23.0908H120.54C120.15 23.0808 119.77 23.2108 119.47 23.4808C119.18 23.7408 119.04 24.1308 119.04 24.5308V62.8508C119.02 63.2408 119.19 63.6308 119.47 63.9008C119.76 64.1708 120.15 64.3108 120.54 64.3108H127.46C127.85 64.3208 128.23 64.1608 128.51 63.8708C128.77 63.6108 128.92 63.2608 128.92 62.8908V61.1008C131.03 63.6608 134.03 64.9308 137.91 64.9308C141.25 65.1108 144.49 63.8008 146.78 61.3808C148.94 59.0208 150.1 55.6508 150.25 51.2708C150.3 50.7708 150.3 50.1108 150.3 49.2308C150.3 48.3508 150.25 47.6508 150.25 47.1508ZM139.6 51.0208C139.58 52.5408 139.12 54.0208 138.29 55.3008H138.3C138.3 55.3008 138.25 55.3508 138.22 55.3808C136.14 57.3808 132.83 57.3208 130.83 55.2408C129.98 54.0608 129.5 52.6508 129.5 51.1908C129.45 50.6508 129.45 49.9008 129.45 48.9708C129.45 48.0408 129.5 47.3308 129.5 46.8208C129.51 45.4508 129.99 44.1308 130.86 43.0708C131.8 42.0308 133.16 41.4908 134.54 41.5908C135.97 41.4508 137.37 42.0208 138.29 43.1208C139.12 44.3808 139.58 45.8608 139.6 47.3908C139.65 47.7808 139.65 48.3708 139.65 49.2008C139.65 50.0308 139.6 50.6308 139.6 51.0108V51.0208Z" fill="white"/>
<path d="M199.88 46.6108C199.85 42.9308 198.25 39.4308 195.49 36.9908C192.79 34.6808 189.08 33.5208 184.36 33.5208C179.64 33.5208 175.94 34.6808 173.23 36.9908C170.47 39.4308 168.88 42.9308 168.84 46.6108C168.79 47.1108 168.79 47.9708 168.79 49.2208C168.79 50.4708 168.84 51.3408 168.84 51.8408C169.09 56.0108 170.51 59.2408 173.11 61.5108H173.1C175.72 63.7808 179.47 64.9108 184.35 64.9108C189.23 64.9208 192.98 63.7808 195.6 61.5108C198.22 59.2408 199.65 56.0108 199.88 51.8408C200 50.8208 200 49.9508 200 49.2208C200 48.4908 199.96 47.5908 199.88 46.6108ZM185.59 57.4208V59.9308H182.48V57.4508C179.88 57.0508 177.96 55.6508 176.96 53.6508L179.95 52.0008C180.63 53.3008 182.11 54.2508 184.06 54.2508C185.83 54.2508 187.15 53.4808 187.15 52.3508C187.15 51.2208 186.35 50.6708 184.21 50.1008L182.14 49.5508C179.15 48.7508 177.55 47.0908 177.55 44.6608C177.55 41.9508 179.44 39.9008 182.48 39.4008V36.9008H185.59V39.4308C187.85 39.8308 189.69 41.1108 190.57 42.9308L187.61 44.5808C187.02 43.3808 185.57 42.5508 183.91 42.5508C182.25 42.5508 181.17 43.3008 181.17 44.4808C181.17 45.5108 181.97 46.0308 184.13 46.6308L186.2 47.1808C189.19 47.9808 190.79 49.6608 190.79 52.1608C190.79 54.8708 188.77 56.9208 185.59 57.4208Z" fill="white"/>
</svg>
