<svg width="90" height="90" viewBox="0 0 90 90" fill="none" xmlns="http://www.w3.org/2000/svg">
<path d="M82.4894 58.0374V40.0663C83.335 40.3649 84.2398 40.4571 85.1283 40.3355C86.0169 40.2138 86.8634 39.8818 87.5973 39.367C88.3312 38.8522 88.9311 38.1696 89.3471 37.3762C89.763 36.5828 89.9829 35.7016 89.9884 34.8061C89.9884 31.6237 90.5321 33.0464 59.6736 2.19611C58.9771 1.49991 58.1501 0.947607 57.2397 0.570782C56.3293 0.193957 55.3535 0 54.368 0C53.3825 0 52.4067 0.193957 51.4963 0.570782C50.586 0.947607 49.7589 1.49991 49.0624 2.19611C18.3539 32.8966 18.7476 31.5863 18.7476 34.8061C18.759 35.6984 18.9832 36.5752 19.4017 37.3637C19.8202 38.1523 20.4208 38.8299 21.1538 39.3405C21.8869 39.851 22.7312 40.1797 23.6169 40.2995C24.5025 40.4192 25.404 40.3264 26.2466 40.0289V51.2608C23.3407 51.0736 22.6283 51.2608 14.9981 52.2529V50.5494C14.9981 50.053 14.8006 49.5768 14.449 49.2257C14.0974 48.8747 13.6205 48.6775 13.1233 48.6775H1.87476C1.37754 48.6775 0.90069 48.8747 0.549104 49.2257C0.197519 49.5768 0 50.053 0 50.5494V82.3732C0 82.8696 0.197519 83.3458 0.549104 83.6969C0.90069 84.0479 1.37754 84.2451 1.87476 84.2451H13.1233C13.6205 84.2451 14.0974 84.0479 14.449 83.6969C14.8006 83.3458 14.9981 82.8696 14.9981 82.3732V80.5012C18.0914 80.5012 19.7975 80.2953 22.0659 81.3436C50.1873 94.0731 42.8945 94.1479 85.9202 72.1896C87.419 71.4229 88.6157 70.1748 89.3176 68.6463C90.0194 67.1178 90.1857 65.3979 89.7895 63.7636C89.3933 62.1293 88.4577 60.6757 87.1335 59.637C85.8092 58.5982 84.1734 58.0348 82.4894 58.0374ZM23.0595 33.477L51.7059 4.85433C52.4216 4.16791 53.3756 3.78458 54.368 3.78458C55.3604 3.78458 56.3144 4.16791 57.0302 4.85433C88.2262 36.0229 86.2389 33.7016 86.2389 34.8061C86.2338 35.1725 86.121 35.5293 85.9147 35.8323C85.7084 36.1353 85.4175 36.3712 85.0781 36.5107C84.7388 36.6503 84.3659 36.6873 84.0057 36.6172C83.6455 36.5471 83.3139 36.373 83.0518 36.1165L55.6991 8.82293C55.5248 8.64747 55.3175 8.50821 55.089 8.41317C54.8605 8.31813 54.6155 8.2692 54.368 8.2692C54.1205 8.2692 53.8755 8.31813 53.647 8.41317C53.4186 8.50821 53.2112 8.64747 53.0369 8.82293L25.6842 36.1165C25.3228 36.401 24.8692 36.5429 24.4098 36.515C23.9504 36.4872 23.5173 36.2915 23.193 35.9654C22.8688 35.6393 22.6759 35.2055 22.6513 34.7466C22.6267 34.2877 22.772 33.8358 23.0595 33.477ZM29.9961 37.1086L54.368 12.7728L78.7399 37.1086V59.0295L58.1175 69.5501C58.1736 68.083 57.7965 66.6319 57.0332 65.3771C56.2699 64.1223 55.154 63.1193 53.8243 62.4927C32.1146 52.3091 32.9208 52.515 29.9961 51.7662V37.1086ZM11.2486 80.5012H3.74952V52.4214H11.2486V80.5012ZM84.2142 68.8574C51.4059 85.593 51.6684 86.1171 46.344 86.1171C43.601 86.2516 40.8649 85.7385 38.3576 84.6195C19.4038 76.0271 22.4971 76.7572 14.9981 76.7572V55.9408C30.4273 54.0688 25.2155 53.2077 52.212 65.8623C53.1145 66.2843 53.8121 67.047 54.1514 67.9826C54.4906 68.9181 54.4438 69.95 54.0212 70.8511C53.5985 71.7522 52.8347 72.4488 51.8978 72.7876C50.9608 73.1263 49.9274 73.0796 49.0249 72.6576L34.2331 65.7125C33.7919 65.5395 33.3014 65.5398 32.8603 65.7133C32.4193 65.8869 32.0605 66.2208 31.8562 66.6479C31.6518 67.075 31.6171 67.5635 31.7589 68.0152C31.9008 68.4668 32.2088 68.848 32.6208 69.0821L47.4127 76.0271C48.581 76.5915 49.8782 76.8368 51.1724 76.7382C52.4665 76.6396 53.7114 76.2005 54.7805 75.4655L80.7646 62.1932C81.2028 61.967 81.6814 61.8292 82.173 61.7878C82.6645 61.7463 83.1594 61.8018 83.6295 61.9513C84.0995 62.1008 84.5354 62.3413 84.9124 62.659C85.2894 62.9767 85.6 63.3655 85.8265 63.8031C86.053 64.2407 86.1909 64.7185 86.2325 65.2093C86.274 65.7001 86.2184 66.1943 86.0687 66.6637C85.9189 67.133 85.6781 67.5683 85.3599 67.9447C85.0417 68.3211 84.6524 68.6313 84.2142 68.8574Z" fill="white"/>
<path d="M44.9942 52.4214C46.1191 52.4214 44.8067 53.3761 65.0729 33.1587C65.4259 32.8062 65.6242 32.3281 65.6242 31.8296C65.6242 31.3311 65.4259 30.853 65.0729 30.5005C64.7199 30.148 64.2411 29.95 63.7418 29.95C63.2426 29.95 62.7638 30.148 62.4107 30.5005L43.6631 49.2203C43.3987 49.4822 43.2184 49.8167 43.1452 50.1813C43.0719 50.5458 43.1091 50.9239 43.2519 51.2673C43.3947 51.6107 43.6366 51.9039 43.9469 52.1094C44.2573 52.315 44.6218 52.4236 44.9942 52.4214Z" fill="white"/>
<path d="M48.7437 39.3175C49.8561 39.3175 50.9435 38.9882 51.8684 38.3711C52.7933 37.754 53.5142 36.8769 53.9399 35.8507C54.3656 34.8245 54.477 33.6954 54.2599 32.606C54.0429 31.5166 53.5073 30.5159 52.7207 29.7305C51.9341 28.9451 50.932 28.4102 49.841 28.1935C48.75 27.9769 47.6191 28.0881 46.5914 28.5131C45.5637 28.9382 44.6853 29.658 44.0673 30.5815C43.4493 31.5051 43.1195 32.5909 43.1195 33.7016C43.1195 35.191 43.712 36.6195 44.7668 37.6727C45.8215 38.7259 47.2521 39.3175 48.7437 39.3175ZM48.7437 31.8296C49.241 31.8296 49.7178 32.0268 50.0694 32.3779C50.421 32.729 50.6185 33.2051 50.6185 33.7016C50.6185 34.1981 50.421 34.6742 50.0694 35.0253C49.7178 35.3763 49.241 35.5736 48.7437 35.5736C48.2465 35.5736 47.7697 35.3763 47.4181 35.0253C47.0665 34.6742 46.869 34.1981 46.869 33.7016C46.869 33.2051 47.0665 32.729 47.4181 32.3779C47.7697 32.0268 48.2465 31.8296 48.7437 31.8296Z" fill="white"/>
<path d="M59.9923 43.0615C58.8799 43.0615 57.7925 43.3909 56.8676 44.008C55.9427 44.625 55.2218 45.5021 54.7961 46.5283C54.3704 47.5545 54.2591 48.6837 54.4761 49.7731C54.6931 50.8625 55.2287 51.8631 56.0153 52.6485C56.8019 53.4339 57.804 53.9688 58.895 54.1855C59.986 54.4022 61.1169 54.291 62.1446 53.8659C63.1723 53.4409 64.0507 52.721 64.6687 51.7975C65.2867 50.874 65.6166 49.7882 65.6166 48.6775C65.6166 47.188 65.024 45.7596 63.9692 44.7064C62.9145 43.6532 61.4839 43.0615 59.9923 43.0615ZM59.9923 50.5494C59.4951 50.5494 59.0182 50.3522 58.6666 50.0011C58.315 49.6501 58.1175 49.1739 58.1175 48.6775C58.1175 48.181 58.315 47.7048 58.6666 47.3538C59.0182 47.0027 59.4951 46.8055 59.9923 46.8055C60.4895 46.8055 60.9664 47.0027 61.3179 47.3538C61.6695 47.7048 61.867 48.181 61.867 48.6775C61.867 49.1739 61.6695 49.6501 61.3179 50.0011C60.9664 50.3522 60.4895 50.5494 59.9923 50.5494Z" fill="white"/>
</svg>
