<svg width="35" height="24" viewBox="0 0 35 24" fill="none" xmlns="http://www.w3.org/2000/svg">
<path d="M33.9058 0H1.09424C0.490221 0 0 0.490221 0 1.09424V22.4276C0 23.0316 0.490221 23.5218 1.09424 23.5218H33.9058C34.5098 23.5218 35 23.0316 35 22.4276V1.09424C35 0.490221 34.5098 0 33.9058 0ZM32.8115 5.04927C31.4266 4.66585 30.3341 3.57336 29.949 2.18673H32.8115V5.04927ZM27.7097 21.3333H7.29028C6.83332 18.7387 4.7814 16.6868 2.18673 16.2298V7.28853C4.7814 6.83157 6.83332 4.77965 7.29028 2.18498H27.7097C28.1667 4.77965 30.2186 6.83157 32.8133 7.28853V16.2298C30.2186 16.6868 28.1667 18.7387 27.7097 21.3333ZM5.04927 2.18673C4.66585 3.57161 3.57336 4.6641 2.18673 5.04927V2.18673H5.04927ZM2.18673 18.4726C3.57161 18.856 4.6641 19.9485 5.04927 21.3351H2.18673V18.4726ZM29.9507 21.3333C30.3341 19.9485 31.4266 18.856 32.8133 18.4708V21.3333H29.9507ZM17.4991 3.4543C12.9191 3.4543 9.19164 7.17998 9.19164 11.7618C9.19164 16.3436 12.9173 20.0693 17.4991 20.0693C22.0809 20.0693 25.8066 16.3436 25.8066 11.7618C25.8066 7.17998 22.0809 3.4543 17.4991 3.4543ZM17.4991 17.8808C14.1254 17.8808 11.3801 15.1356 11.3801 11.7618C11.3801 8.38802 14.1254 5.64279 17.4991 5.64279C20.8729 5.64279 23.6181 8.38802 23.6181 11.7618C23.6181 15.1356 20.8729 17.8808 17.4991 17.8808Z" fill="#4CAD36"/>
<path d="M17.2785 13.5651C17.0842 13.7297 16.7953 13.8085 16.4119 13.8085C16.0495 13.8085 15.7606 13.7174 15.5487 13.5353C15.3982 13.4075 15.2826 13.2272 15.2038 12.9943C15.1426 12.814 14.9692 12.6915 14.7784 12.7125L14.4037 12.7492C14.1604 12.772 13.9853 13.0084 14.0483 13.2447C14.1674 13.6859 14.3775 14.0396 14.6821 14.3004C15.083 14.6453 15.6555 14.8187 16.4014 14.8169C16.9144 14.8169 17.3416 14.7451 17.6847 14.5998C18.0296 14.4563 18.294 14.2374 18.4813 13.9398C18.6686 13.6439 18.7632 13.3287 18.7632 12.9891C18.7632 12.6144 18.6844 12.301 18.5268 12.0489C18.3693 11.7951 18.1522 11.5955 17.8755 11.4502C17.5972 11.3048 17.1682 11.163 16.5887 11.0265C16.0092 10.8899 15.6433 10.7586 15.4927 10.6325C15.3737 10.5345 15.3159 10.4154 15.3159 10.2736C15.3159 10.1213 15.3789 9.99875 15.505 9.90771C15.7011 9.76589 15.9724 9.69236 16.3173 9.69236C16.6622 9.69236 16.9039 9.75889 17.0737 9.89195C17.1857 9.97949 17.2715 10.1073 17.331 10.2701C17.3923 10.4382 17.5657 10.538 17.746 10.5292L18.1452 10.51C18.4043 10.4995 18.5916 10.2456 18.5198 9.99525C18.4288 9.6766 18.2572 9.40873 18.0033 9.18813C17.6287 8.86424 17.0702 8.70142 16.3296 8.70317C15.8761 8.70317 15.4892 8.7732 15.1671 8.90976C14.8467 9.04807 14.6016 9.24591 14.4317 9.50853C14.2619 9.7694 14.1761 10.0513 14.1761 10.3524C14.1761 10.8199 14.3582 11.2138 14.7206 11.5394C14.978 11.7688 15.4262 11.9649 16.067 12.1225C16.5625 12.2468 16.8811 12.3308 17.0212 12.3798C17.2242 12.4516 17.3678 12.5374 17.4501 12.6354C17.5324 12.7335 17.5727 12.8525 17.5744 12.9908C17.5744 13.2079 17.4764 13.3988 17.282 13.5616H17.2768L17.2785 13.5651Z" fill="#4CAD36"/>
<path d="M20.542 8.70492C20.3547 8.70492 20.1918 8.83272 20.1481 9.01656L18.8857 14.3109C18.8262 14.5666 19.0188 14.8099 19.2814 14.8099C19.4688 14.8099 19.6298 14.6821 19.6754 14.5L20.9534 9.20564C21.0147 8.95003 20.8221 8.70492 20.5595 8.70492H20.542Z" fill="#4CAD36"/>
</svg>
