<svg width="75" height="74" viewBox="0 0 75 74" fill="none" xmlns="http://www.w3.org/2000/svg">
<path d="M16.8892 7.64962H27.2311C27.8986 7.64962 28.4423 7.10964 28.4423 6.43843C28.4423 5.76721 27.9024 5.22724 27.2311 5.22724H16.8892C16.2217 5.22724 15.678 5.76721 15.678 6.43843C15.678 7.10964 16.2179 7.64962 16.8892 7.64962Z" fill="white"/>
<path d="M25.7387 65.6742H18.3741C17.7066 65.6742 17.1629 66.2142 17.1629 66.8854C17.1629 67.5566 17.7029 68.0966 18.3741 68.0966H25.7387C26.4062 68.0966 26.9499 67.5566 26.9499 66.8854C26.9499 66.2142 26.4099 65.6742 25.7387 65.6742Z" fill="white"/>
<path d="M59.4645 45.2265C58.8458 44.979 58.1333 45.3015 57.8821 45.9202C57.6346 46.5427 57.9346 47.2439 58.5571 47.4914C58.7033 47.5514 58.8571 47.5776 59.007 47.5776C59.487 47.5776 59.9408 47.2889 60.132 46.8164L60.147 46.7752C60.3945 46.1527 60.0832 45.4702 59.4645 45.2227V45.2265Z" fill="white"/>
<path d="M22.0564 22.3976C14.0018 22.3976 7.45088 28.9486 7.45088 36.9994C7.45088 45.0502 14.0018 51.6049 22.0564 51.6049C30.111 51.6049 36.6582 45.054 36.6582 36.9994C36.6582 28.9486 30.1072 22.3976 22.0564 22.3976ZM22.0564 49.1863C15.3367 49.1863 9.86951 43.7191 9.86951 36.9994C9.86951 30.2797 15.3367 24.8163 22.0564 24.8163C28.7761 24.8163 34.2395 30.2797 34.2395 36.9994C34.2395 43.7191 28.7761 49.1863 22.0564 49.1863Z" fill="white"/>
<path d="M44.1165 30.0022V8.66582C44.1165 4.16604 40.4567 0.506225 35.957 0.506225H8.15959C3.65982 0.506225 0 4.16604 0 8.66582V65.333C0 69.8328 3.65982 73.4926 8.15959 73.4926H35.9607C40.4605 73.4926 44.1203 69.8328 44.1203 65.333V62.7344H71.3289C73.3538 62.7344 75 61.0882 75 59.0633V33.6733C75 31.6484 73.3538 30.0022 71.3289 30.0022H44.1165ZM2.41863 13.2031H41.6942V60.4995H2.41863V13.2031ZM44.1165 42.8041C44.8853 42.2229 45.819 41.9079 46.7902 41.9079C49.2463 41.9079 51.2449 43.9103 51.2449 46.3702C51.2449 48.8301 49.2463 50.825 46.7902 50.825C45.819 50.825 44.8853 50.51 44.1165 49.9288V42.8004V42.8041ZM44.1165 52.6886C44.9565 53.0448 45.8602 53.2436 46.7902 53.2436C50.5812 53.2436 53.6673 50.1575 53.6673 46.3664C53.6673 42.5754 50.5812 39.4855 46.7902 39.4855C45.8565 39.4855 44.9565 39.6843 44.1165 40.0405V37.8656H61.9544C62.4344 40.2167 64.2943 42.0729 66.6454 42.5566V50.1687C64.2943 50.6487 62.4381 52.5086 61.9544 54.8598H44.1165V52.6849V52.6886ZM35.9607 2.92485C39.1255 2.92485 41.6979 5.50097 41.6979 8.66207V10.7845H2.41863V8.66207C2.41863 5.49723 4.99475 2.92485 8.15584 2.92485H35.9607ZM8.15959 71.0702C4.99475 71.0702 2.42238 68.4941 2.42238 65.333V62.9219H41.6979V65.333C41.6979 68.4978 39.1218 71.0702 35.9607 71.0702H8.15959ZM72.5776 59.0633C72.5776 59.7533 72.0152 60.3157 71.3252 60.3157H44.1165V57.2859H63.0418C63.7093 57.2859 64.253 56.7459 64.253 56.0747C64.253 54.0873 65.8692 52.4711 67.8566 52.4711C68.5241 52.4711 69.0678 51.9312 69.0678 51.2599V41.4729C69.0678 40.8055 68.5278 40.2617 67.8566 40.2617C65.8692 40.2617 64.253 38.6456 64.253 36.6582C64.253 35.9907 63.7131 35.447 63.0418 35.447H44.1165V32.4171H71.3252C72.0152 32.4171 72.5776 32.9796 72.5776 33.6658V59.0633Z" fill="white"/>
<path d="M60.957 27.5761C68.5616 27.5761 74.7488 21.3927 74.7488 13.7918C74.7488 6.19094 68.5616 0 60.957 0C53.3523 0 47.1651 6.18719 47.1651 13.7918C47.1651 21.3964 53.3523 27.5761 60.957 27.5761ZM60.957 2.41863C67.2266 2.41863 72.3264 7.51837 72.3264 13.7918C72.3264 20.0652 67.2266 25.1575 60.957 25.1575C54.6873 25.1575 49.5875 20.0577 49.5875 13.7918C49.5875 7.52587 54.6873 2.41863 60.957 2.41863Z" fill="white"/>
<path d="M26.9387 29.631C26.0574 29.6835 25.255 30.0735 24.6775 30.7297L19.1765 36.9132L18.2503 36.0957C17.5716 35.492 16.6942 35.1845 15.7905 35.237C14.8755 35.2895 14.0393 35.6945 13.4318 36.3769C12.1831 37.7831 12.3106 39.943 13.7168 41.1954L17.3729 44.4465C17.8454 44.8628 18.5578 45.4027 19.424 45.4027C19.4728 45.4027 19.5215 45.4027 19.5703 45.399C20.5902 45.324 21.2389 44.5628 21.9252 43.7528C22.0751 43.5766 22.2326 43.3891 22.4089 43.1903L29.5973 35.1057C30.8047 33.7483 30.681 31.6597 29.3198 30.456C28.6636 29.871 27.8199 29.5823 26.9349 29.6348L26.9387 29.631ZM27.7899 33.4971L20.6015 41.5817C20.4102 41.7954 20.2377 41.9979 20.0802 42.1891C19.844 42.4666 19.559 42.8004 19.3903 42.9466C19.3115 42.9016 19.1803 42.8116 18.9816 42.6354L15.3255 39.3843C14.9243 39.028 14.883 38.3831 15.243 37.9818C15.4192 37.7831 15.663 37.6669 15.933 37.6481C15.9517 37.6481 15.9705 37.6481 15.993 37.6481C16.2367 37.6481 16.4654 37.7344 16.6492 37.8994L18.4828 39.523C18.9816 39.9655 19.7465 39.9205 20.189 39.4218L26.4962 32.3346C26.6462 32.1621 26.8599 32.0609 27.0924 32.0459C27.3286 32.0346 27.5499 32.1096 27.7261 32.2634C27.8986 32.4171 28.0036 32.6309 28.0148 32.8671C28.0261 33.1033 27.9511 33.3283 27.7974 33.5008L27.7899 33.4971Z" fill="white"/>
<path d="M60.6082 16.4467C60.3232 16.6867 59.8958 16.8067 59.3295 16.8067C58.7933 16.8067 58.3733 16.6754 58.0583 16.4054C57.8334 16.2142 57.6646 15.9442 57.5446 15.5955C57.4546 15.3255 57.1771 15.168 56.8922 15.1942L56.4122 15.2392C56.0185 15.2767 55.756 15.6667 55.8647 16.0492C56.0409 16.6642 56.3447 17.1591 56.7759 17.5266C57.3646 18.0328 58.2121 18.2878 59.3108 18.2878C60.0682 18.2878 60.6982 18.1791 61.2007 17.9691C61.7069 17.7554 62.0969 17.4329 62.3744 16.9979C62.6519 16.5629 62.7869 16.0942 62.7869 15.5992C62.7869 15.048 62.6706 14.5868 62.4381 14.2155C62.2056 13.8443 61.8869 13.5481 61.4782 13.3343C61.0694 13.1206 60.4357 12.9106 59.5808 12.7119C58.7258 12.5094 58.1896 12.3181 57.9646 12.1306C57.8146 12.0031 57.7284 11.8569 57.7096 11.6882C57.6721 11.4107 57.8409 11.1407 58.0846 10.9982C58.3621 10.8332 58.7296 10.7507 59.1795 10.7507C59.6745 10.7507 60.0457 10.8482 60.2932 11.0432C60.4582 11.1744 60.5857 11.3582 60.672 11.6019C60.7582 11.8457 61.0169 11.9956 61.2794 11.9844L61.8232 11.9619C62.2281 11.9432 62.5244 11.5494 62.4081 11.1594C62.2694 10.7095 62.0219 10.327 61.6619 10.012C61.1107 9.53202 60.2895 9.29578 59.1983 9.29578C58.5308 9.29578 57.9608 9.39703 57.4884 9.59952C57.0196 9.80201 56.6559 10.0945 56.4047 10.4807C56.1534 10.867 56.0259 11.2794 56.0297 11.7219C56.0297 12.4081 56.2959 12.9931 56.8322 13.4731C57.2109 13.8143 57.8746 14.0993 58.8158 14.3318C59.547 14.5118 60.0158 14.6393 60.222 14.7105C60.522 14.8193 60.732 14.943 60.8557 15.0892C60.9757 15.2317 61.0357 15.408 61.0357 15.6142C61.0357 15.933 60.8932 16.2142 60.6045 16.4542L60.6082 16.4467Z" fill="white"/>
<path d="M64.133 17.8229L66.0154 10.0232C66.1054 9.64827 65.8205 9.28454 65.4342 9.28454H65.4117C65.1342 9.28454 64.898 9.47578 64.8305 9.74201L62.9706 17.5416C62.8806 17.9166 63.1656 18.2766 63.5518 18.2766C63.8256 18.2766 64.0656 18.0891 64.1293 17.8191L64.133 17.8229Z" fill="white"/>
</svg>
