<svg width="64" height="75" viewBox="0 0 64 75" fill="none" xmlns="http://www.w3.org/2000/svg">
<path d="M63.7858 20.3509V20.2909C63.752 19.571 63.7295 18.8098 63.7145 17.9623C63.6545 13.8263 60.366 10.4065 56.23 10.1741C47.6093 9.69408 40.9384 6.88176 35.2388 1.3246L35.19 1.27961C33.3301 -0.426536 30.5253 -0.426536 28.6692 1.27961L28.6204 1.3246C22.9208 6.87801 16.25 9.69033 7.62925 10.1741C3.49326 10.4028 0.204712 13.8263 0.144716 17.9623C0.133467 18.806 0.110968 19.5672 0.0772204 20.2909V20.4259C-0.0952689 29.2191 -0.301506 40.1609 3.35827 50.0941C5.37189 55.5575 8.42045 60.3047 12.4177 64.2082C16.9737 68.6516 22.9358 72.1802 30.1466 74.6963C30.3828 74.7788 30.6266 74.8463 30.8741 74.895C31.2228 74.9662 31.5753 75 31.9277 75C32.2802 75 32.6327 74.9662 32.9814 74.895C33.2289 74.8463 33.4764 74.7788 33.7126 74.6963C40.9159 72.1764 46.8743 68.6479 51.4228 64.2044C55.42 60.3009 58.4686 55.55 60.4822 50.0903C64.157 40.1272 63.9507 29.1666 63.782 20.3547L63.7858 20.3509ZM56.3575 48.5604C52.4952 59.0297 44.6132 66.218 32.2615 70.5378C32.2165 70.5528 32.1715 70.564 32.1227 70.5753C31.9952 70.6015 31.864 70.6015 31.7365 70.5753C31.6877 70.564 31.6428 70.5528 31.5978 70.5378C19.231 66.2255 11.3453 59.041 7.48676 48.5717C4.11197 39.4147 4.30321 29.3729 4.47195 20.5084V20.4597C4.50569 19.6985 4.53194 18.8998 4.54319 18.0223C4.56944 16.1849 6.03185 14.6663 7.87298 14.565C12.7514 14.2913 17.0374 13.3501 20.9784 11.6815C24.9119 10.0166 28.4067 7.66921 31.6578 4.50816C31.8227 4.36941 32.0365 4.36941 32.2015 4.50816C35.4525 7.67296 38.9473 10.0166 42.8808 11.6815C46.8181 13.3501 51.1078 14.2913 55.9862 14.565C57.8274 14.6663 59.2898 16.1849 59.316 18.0223C59.331 18.9035 59.3535 19.7022 59.3873 20.4559C59.556 29.3279 59.7435 39.381 56.3575 48.5567V48.5604Z" fill="white"/>
<path d="M31.9277 18.8098C21.6234 18.8098 13.2389 27.1942 13.2389 37.4986C13.2389 47.8029 21.6234 56.1874 31.9277 56.1874C42.2321 56.1874 50.6166 47.8029 50.6166 37.4986C50.6166 27.1942 42.2321 18.8098 31.9277 18.8098ZM31.9277 51.789C24.0495 51.789 17.6374 45.3806 17.6374 37.4986C17.6374 29.6166 24.0457 23.2082 31.9277 23.2082C39.8097 23.2082 46.2181 29.6166 46.2181 37.4986C46.2181 45.3806 39.8097 51.789 31.9277 51.789Z" fill="white"/>
<path d="M37.2974 31.6977L28.6167 40.3784L26.2618 38.0236C25.4031 37.1649 24.0082 37.1649 23.1495 38.0236C22.2908 38.8823 22.2908 40.2772 23.1495 41.1359L27.0605 45.0469C27.4918 45.4781 28.0542 45.6918 28.6167 45.6918C29.1792 45.6918 29.7416 45.4781 30.1728 45.0469L40.4097 34.81C41.2684 33.9513 41.2684 32.5564 40.4097 31.6977C39.551 30.839 38.1561 30.839 37.2974 31.6977Z" fill="white"/>
</svg>
