<svg width="75" height="47" viewBox="0 0 75 47" fill="none" xmlns="http://www.w3.org/2000/svg">
<path d="M73.4252 3.12297C61.1571 3.12297 54.3518 6.265 54.0706 6.39248C53.6657 6.5837 53.362 6.93615 53.2345 7.36359C53.1258 7.73853 53.1595 8.13597 53.3282 8.48842C50.9661 7.5923 47.6741 6.29125 44.3821 4.81772C38.7467 2.2981 35.1097 3.06673 31.0828 6.24625H18.5822C18.6497 5.74758 18.7022 5.26765 18.7434 4.81772C18.7847 4.34154 18.6085 3.87286 18.2635 3.55041C15.5827 1.01579 4.87427 0.190912 1.65725 -0.000309351C1.21482 -0.022806 0.806129 0.123422 0.491176 0.423377C0.179973 0.715833 0 1.12827 0 1.55946V29.6802C0 30.5426 0.701145 31.2438 1.56352 31.2438H10.9371C11.612 31.2438 12.2119 30.8088 12.4219 30.1677C12.4519 30.0702 12.5831 29.669 12.7893 29.0278C13.1455 29.3953 13.5355 29.804 13.9442 30.2314C15.3389 31.6862 16.7787 33.1935 17.7461 34.0071C23.5652 38.8776 30.5579 44.1381 31.949 45.0529C33.1 45.8103 35.5784 46.8714 37.4944 46.8714C39.0354 46.8714 40.2202 46.519 41.0413 45.8291C42.1399 46.2565 43.3922 46.2603 44.5958 45.7916C46.0168 45.2404 47.1867 44.1306 47.8503 42.7883C49.0801 43.0507 50.4899 42.867 51.7722 42.2221C53.0245 41.5922 53.9319 40.6248 54.3818 39.4963C55.6267 39.56 56.9052 39.1213 57.9663 38.2102C59.3948 36.9879 59.9985 35.2257 59.661 33.4709L62.1357 31.8099C62.3082 32.3723 62.4506 32.8485 62.5556 33.2235C62.7431 33.9021 63.358 34.3708 64.0629 34.3708H73.4365C74.2989 34.3708 75 33.6696 75 32.8073V4.68649C75 3.82037 74.2989 3.12297 73.4365 3.12297H73.4252ZM3.12328 28.1205V3.23546C8.14378 3.6329 13.5617 4.49527 15.5302 5.45137C14.7015 12.2941 10.9559 24.4498 9.79353 28.1205H3.12328ZM55.9304 35.8293C55.3379 36.3392 54.5356 36.5155 54.0631 36.2418C52.9008 35.3081 47.9478 30.2389 44.8733 27.0369C44.2771 26.4107 43.2873 26.3882 42.6648 26.9881C42.0387 27.5843 42.0199 28.5742 42.6161 29.1966C43.3397 29.9539 49.1814 36.0393 51.5248 38.1765C51.3448 38.8551 50.6849 39.26 50.3662 39.4175C49.3726 39.9199 48.334 39.8375 47.9403 39.4775C47.9103 39.4475 47.8803 39.4213 47.8466 39.395C45.9756 37.899 41.2738 32.901 40.209 31.7462C39.6203 31.1088 38.638 31.0713 38.0005 31.6524C37.3669 32.2374 37.3219 33.2272 37.9068 33.8609C37.9593 33.9134 42.5411 38.8626 45.1357 41.1873C44.8433 41.9296 44.2209 42.5708 43.4672 42.8633C42.9873 43.0432 42.2937 43.1557 41.675 42.5858C41.66 42.5708 41.645 42.5558 41.63 42.5446C39.4028 40.6661 34.8435 35.8143 33.9549 34.862C33.3625 34.2321 32.3726 34.1946 31.7465 34.787C31.1166 35.3756 31.0828 36.3655 31.6715 36.9954C32.7288 38.1277 35.8784 41.4685 38.2443 43.6956C38.0455 43.7219 37.8018 43.7406 37.4981 43.7406C36.4558 43.7406 34.5848 43.0395 33.67 42.4321C32.5714 41.7084 25.6949 36.5792 19.7558 31.6037C18.9234 30.9026 17.4761 29.3953 16.2051 28.0642C15.2752 27.0931 14.4091 26.1933 13.8354 25.6571C15.1402 21.349 17.0262 14.7462 18.0648 9.37328H27.6484C25.5149 11.5217 22.6391 15.8186 23.3852 18.9793C23.7077 20.3291 24.6563 21.3302 26.0698 21.7952C29.6093 22.965 32.8413 21.8439 35.2485 18.6531C36.2421 18.4994 36.782 18.2744 37.5956 17.9108C37.8881 17.7795 38.233 17.6258 38.6904 17.4421C40.4789 19.1181 42.8898 21.0715 45.4282 23.1262C50.0212 26.8419 55.2292 31.0525 56.4028 33.4897C56.9802 34.6932 56.3578 35.4769 55.9379 35.8368L55.9304 35.8293ZM58.27 30.6326C56.1141 27.753 51.686 24.1723 47.3854 20.6928C44.5471 18.3982 41.8662 16.231 40.1602 14.5213C39.7328 14.0901 39.0916 13.9513 38.5255 14.1538C37.4719 14.5363 36.8232 14.8287 36.3096 15.0574C35.5297 15.4061 35.2672 15.5261 34.2136 15.6311C33.7487 15.6798 33.3287 15.9273 33.07 16.3135C30.8616 19.6167 28.5745 19.3355 27.0447 18.8219C26.5573 18.6606 26.471 18.4507 26.4223 18.252C26.0961 16.8797 27.7421 13.6851 29.8755 11.5517C34.9523 6.47122 37.5731 5.20016 43.1035 7.67104C48.3377 10.0107 53.5795 11.9267 55.2105 12.5116C57.0439 16.9696 59.5223 23.8986 61.1271 28.7091L58.2738 30.6251L58.27 30.6326ZM71.8655 31.2438H65.2215C63.7404 26.4182 59.3648 13.8389 56.924 8.64214C59.3086 7.83227 64.4303 6.44122 71.8617 6.26875V31.2475L71.8655 31.2438Z" fill="white"/>
</svg>
