<svg version="1.2" xmlns="http://www.w3.org/2000/svg" viewBox="0 0 70 70" width="70" height="70">
	<style>
		.s0 { fill: #0865d8 } 
	</style>
	<path class="s0" d="m38.56 22.66q-0.66 0.55-1.95 0.55-1.22 0-1.94-0.61-0.51-0.43-0.77-1.21c-0.15-0.41-0.53-0.68-0.96-0.64l-0.84 0.08c-0.55 0.06-0.94 0.58-0.8 1.11q0.4 1.5 1.42 2.37 1.35 1.16 3.87 1.16 1.73 0 2.89-0.48 1.15-0.49 1.79-1.48 0.63-0.99 0.63-2.13 0-1.26-0.54-2.11-0.53-0.86-1.46-1.35-0.94-0.49-2.89-0.95-1.95-0.46-2.46-0.89-0.4-0.33-0.4-0.81 0-0.51 0.42-0.82 0.66-0.48 1.83-0.48 1.15 0 1.69 0.45 0.38 0.29 0.58 0.85c0.14 0.37 0.53 0.6 0.93 0.58l0.9-0.04c0.58-0.02 1-0.59 0.84-1.16q-0.31-1.07-1.16-1.81-1.26-1.09-3.76-1.09-1.53 0-2.61 0.46-1.08 0.46-1.65 1.35-0.58 0.88-0.57 1.9 0 1.57 1.22 2.67 0.87 0.78 3.02 1.3 1.67 0.42 2.14 0.58 0.69 0.25 0.97 0.57 0.27 0.33 0.28 0.8 0 0.74-0.66 1.28z"/>
	<path class="s0" d="m45.92 11.74h-0.03c-0.42 0-0.79 0.29-0.88 0.7l-2.84 11.9c-0.13 0.57 0.3 1.12 0.89 1.12 0.42 0 0.79-0.29 0.88-0.7l2.87-11.89c0.14-0.58-0.29-1.13-0.88-1.13z"/>
	<path fill-rule="evenodd" class="s0" d="m57.16 18.61c0 9.98-8.12 18.1-18.11 18.1-9.98 0-18.1-8.12-18.1-18.1 0-9.99 8.12-18.11 18.1-18.11 9.99 0 18.11 8.12 18.11 18.11zm-3.96 0c0-7.81-6.34-14.15-14.15-14.15-3.77 0-7.32 1.47-10 4.14-2.67 2.67-4.15 6.23-4.15 10.01 0 7.8 6.35 14.15 14.15 14.15 7.81 0 14.15-6.35 14.15-14.15z"/>
	<path fill-rule="evenodd" class="s0" d="m69.35 46.92c0 2.25-0.86 4.39-2.41 6.02-3.93 4.17-12.73 13.49-12.73 13.49-0.37 0.39-0.89 0.62-1.44 0.62h-31.09c-1.1 0-1.98-0.89-1.98-1.98 0-1.09 0.88-1.98 1.98-1.98h30.24l0.16-0.16 11.99-12.7c0.85-0.9 1.33-2.09 1.33-3.33 0.01-1.66-0.95-3.21-2.45-3.94-0.59-0.29-1.26-0.45-1.92-0.45-0.97 0-1.92 0.33-2.69 0.93l-10.5 8.2-0.05 0.03-0.03 0.05c-1.34 1.64-3.31 2.58-5.43 2.58h-10.02c-1.09 0-1.97-0.88-1.97-1.97 0-1.09 0.88-1.98 1.97-1.98h10.02q0.42 0 0.8-0.11l0.11-0.03 0.08-0.06 1.51-1.19 0.09-0.06 0.05-0.09q0.39-0.7 0.39-1.49v-0.21c0-1.67-1.36-3.02-3.03-3.02h-13.37l-0.1 0.03-13.02 5.43-0.33 0.13v12.88c0 1.87-0.72 3.63-2.04 4.94-1.32 1.32-3.07 2.05-4.94 2.05h-1.25c-1.87 0-3.62-0.73-4.94-2.05-1.32-1.31-2.04-3.07-2.04-4.94v-16.27c0-1.86 0.72-3.62 2.04-4.94 1.32-1.32 3.07-2.05 4.94-2.05h1.25c1.87 0 3.62 0.73 4.94 2.05 0.95 0.95 1.6 2.14 1.88 3.45l0.14 0.61 0.58-0.24 11.73-4.89q0.36-0.15 0.76-0.15h13.77c3 0 5.66 1.9 6.62 4.74l0.23 0.7 0.59-0.46 6.14-4.79c1.45-1.14 3.27-1.77 5.12-1.77 1.26 0 2.53 0.3 3.66 0.86 2.85 1.39 4.68 4.34 4.66 7.51zm-57.79-0.63c0-0.8-0.32-1.58-0.89-2.14-0.56-0.57-1.34-0.89-2.14-0.89h-1.25c-0.8 0-1.58 0.32-2.14 0.89-0.57 0.56-0.89 1.34-0.89 2.14v16.27c0 0.8 0.32 1.58 0.89 2.15 0.56 0.56 1.34 0.88 2.14 0.88h1.25c0.8 0 1.58-0.32 2.14-0.88 0.57-0.57 0.89-1.35 0.89-2.15z"/>
</svg>