<svg version="1.2" xmlns="http://www.w3.org/2000/svg" viewBox="0 0 58 60" width="58" height="60">
	<style>
		.s0 { fill: #0865d8 } 
	</style>
	<path class="s0" d="m46.71 38.19c-0.35 0-0.65 0.24-0.73 0.6l-2.36 10.22c-0.11 0.5 0.25 0.97 0.74 0.97 0.35 0 0.65-0.25 0.74-0.6l2.37-10.23c0.12-0.49-0.24-0.96-0.73-0.96z"/>
	<path class="s0" d="m57.69 25.01c-0.05-7.04-3.01-13.71-8.09-18.39q-7.48-6.62-20.52-6.62-13.05 0-20.52 6.62c-5.09 4.68-8.02 11.35-8.1 18.39-0.1 0.96-0.1 2.6-0.1 4.99 0 2.39 0.1 4.05 0.1 5.01 0.46 7.95 3.09 14.13 7.85 18.5q7.25 6.5 20.74 6.49 13.49 0.03 20.74-6.49 7.26-6.52 7.9-18.5c0.22-1.95 0.22-3.61 0.22-5.01 0-1.4-0.07-3.12-0.22-4.99zm-26.36 20.68v4.78h-5.74v-4.75c-4.81-0.76-8.34-3.43-10.17-7.28l5.51-3.14c1.25 2.47 3.98 4.29 7.57 4.29 3.28 0 5.69-1.48 5.69-3.64 0-2.16-1.48-3.2-5.42-4.29l-3.8-1.06c-5.52-1.54-8.47-4.7-8.47-9.33 0-5.19 3.48-9.11 9.09-10.07v-4.78h5.74v4.83c4.16 0.77 7.57 3.22 9.17 6.7l-5.46 3.16c-1.08-2.31-3.76-3.86-6.81-3.86-3.06 0-5.06 1.42-5.06 3.68 0 1.95 1.47 2.96 5.46 4.11l3.8 1.06c5.52 1.54 8.47 4.73 8.47 9.54 0 5.17-3.71 9.09-9.57 10.05z"/>
</svg>