<svg version="1.2" xmlns="http://www.w3.org/2000/svg" viewBox="0 0 65 70" width="65" height="70">
	<style>
		.s0 { fill: #0865d8 } 
	</style>
	<path class="s0" d="m46.08 54.97q-0.65 0.55-1.93 0.55-1.21 0-1.92-0.61-0.5-0.43-0.76-1.21c-0.14-0.41-0.53-0.68-0.95-0.63l-0.83 0.08c-0.54 0.05-0.93 0.58-0.79 1.11q0.4 1.48 1.41 2.36 1.33 1.16 3.82 1.15 1.71 0 2.85-0.48 1.15-0.48 1.78-1.48 0.62-0.99 0.62-2.12 0-1.26-0.52-2.11-0.53-0.85-1.45-1.34-0.93-0.49-2.86-0.94-1.94-0.46-2.44-0.89-0.39-0.33-0.39-0.8 0-0.51 0.42-0.82 0.65-0.48 1.8-0.48 1.12 0 1.68 0.45 0.37 0.29 0.57 0.85c0.14 0.37 0.53 0.59 0.92 0.58l0.89-0.05c0.58-0.02 0.99-0.59 0.84-1.15q-0.31-1.06-1.15-1.8-1.25-1.09-3.72-1.09-1.51 0-2.58 0.47-1.07 0.46-1.64 1.34-0.56 0.87-0.56 1.89 0 1.56 1.2 2.65 0.86 0.77 3 1.3 1.65 0.42 2.12 0.58 0.68 0.24 0.95 0.57 0.27 0.33 0.28 0.79 0 0.74-0.65 1.28z"/>
	<path class="s0" d="m53.33 44.1c-0.42 0-0.78 0.29-0.88 0.7l-2.8 11.84c-0.13 0.57 0.29 1.12 0.88 1.12 0.41 0 0.77-0.29 0.87-0.7l2.84-11.84c0.14-0.57-0.29-1.12-0.87-1.12z"/>
	<path class="s0" d="m10.12 12.23h15.94c1.11 0 2.01-0.91 2.01-2.02 0-1.12-0.9-2.02-2.01-2.02h-15.94c-1.11 0-2.01 0.9-2.01 2.02 0 1.11 0.9 2.02 2.01 2.02z"/>
	<path class="s0" d="m10.12 20.32h29.34c1.11 0 2.01-0.9 2.01-2.02 0-1.12-0.9-2.02-2.01-2.02h-29.34c-1.11 0-2.01 0.9-2.01 2.02 0 1.12 0.9 2.02 2.01 2.02z"/>
	<path class="s0" d="m50.05 33.07v-30.96c0-1.11-0.9-2.02-2.01-2.02h-45.96c-1.11 0-2.01 0.91-2.01 2.02v56.64c0 1.12 0.9 2.03 2.01 2.03h29.16q0.06 0 0.12-0.01c3.32 5.2 9.02 8.37 15.21 8.37 9.97 0 18.09-8.17 18.09-18.21 0-8.84-6.3-16.23-14.61-17.87zm-45.96-28.93h41.94v28.6q-2.01 0.06-3.89 0.54v-6.89c0-1.11-0.9-2.02-2.01-2.02q-0.06 0-0.12 0.01-0.07 0-0.14-0.01h-29.49c-0.78 0-1.46 0.46-1.79 1.12-0.3 0.35-0.48 0.81-0.48 1.31v23.87c0 1.12 0.9 2.03 2.01 2.03h18.44q0.2 2.07 0.86 4.04h-25.33zm24.53 44.51h-8.45v-4.05h9.44q-0.72 1.93-0.99 4.05zm9.5-16.18q-0.06 0-0.13 0h-17.82v-4.05h17.95zm-21.97-0.01h-4.02v-4.05h4.02zm-4.02 4.05h4.02v4.04h-4.02zm0 8.1h4.02v4.05h-4.02zm19.59-4.05h-11.55v-4.05h15.38c-1.47 1.15-2.77 2.51-3.83 4.05zm14.85 24.54c-5.21 0-9.97-2.89-12.44-7.54-1.07-2.02-1.63-4.31-1.63-6.62q0.01-0.13 0.02-0.27 0-0.1-0.01-0.21c0.25-7.58 6.46-13.68 14.06-13.68 7.6 0 14.07 6.36 14.07 14.16 0 7.81-6.31 14.16-14.07 14.16z"/>
</svg>