<svg version="1.2" xmlns="http://www.w3.org/2000/svg" viewBox="0 0 69 69" width="69" height="69">
	<style>
		.s0 { fill: #0865d8 } 
	</style>
	<path class="s0" d="m18.82 36.37c0.49 3.67 2.45 6.61 5.68 8.51 3.9 2.3 9.85 3.1 15.23 3.1 2.03 0 3.99-0.11 5.72-0.3l0.05-0.01c0.79-0.08 1.66-0.19 2.11-0.34 0.7-0.24 1.12-0.91 1.05-1.65-0.08-0.76-0.63-1.33-1.38-1.44q-0.08-0.01-0.15 0c-11.55 1.26-19.23 0.06-22.83-3.56-1.88-1.9-2.65-4.51-2.29-7.78 0.63-5.64 4.05-11.53 9.14-15.81q0.93 0.28 1.81 0.63c1.77 0.67 3.62 1.36 5.81 0.77 1.65-0.44 2.82-1.56 3.67-2.55h4.31c5.21 3.16 11.02 12.03 10.78 18.9-0.12 3.55-1.79 6.14-4.94 7.71-0.18 0.09-0.47 0.19-0.78 0.29-0.97 0.33-2.06 0.7-2.43 1.54-0.12 0.26-0.21 0.68 0.02 1.2q0.25 0.57 0.8 0.79c0.86 0.34 1.98-0.15 2.72-0.48l0.23-0.1c6.79-2.89 9.1-9.16 6.48-17.66-1.58-5.1-5.08-10.09-9.66-13.77 0.61-0.87 0.81-1.96 0.55-3.02-0.27-1.1-1-1.99-2-2.48q0.26-0.78 0.63-1.64c0.71-1.75 1.45-3.55 0.77-5.1q-0.59-1.32-2.45-1.99-0.1-0.04-0.21-0.04h-15.09q-0.09 0-0.19 0.03c-1.99 0.65-3.04 2.27-2.72 4.24 0.03 0.23 0.18 0.61 0.44 1.27q0.02 0.06 0.05 0.13c-3.23-1.13-6.71-0.95-9.73 0.53-0.25 0.12-2.14 1.21-2.47 1.62-0.34 0.43-0.43 1.08-0.22 1.66 0.18 0.5 0.55 0.85 1.02 0.95 0.87 0.19 1.5-0.3 2-0.69q0.26-0.21 0.51-0.36c2.7-1.52 5.84-1.66 8.6-0.38l10.09 5.3c-0.95 1.01-2.26 1.37-3.68 1-1.18-0.31-2.45-0.83-3.68-1.34-1.11-0.45-2.25-0.92-3.35-1.25q-0.03-0.01-0.07-0.01c-1.64-0.29-2.01 1.47-2.2 2.42q-0.08 0.43-0.18 0.74c-1.26 3.7-4.02 6.17-7.56 6.78-0.38 0.06-0.8 0.08-1.22 0.09q-0.62 0-1.2 0.08c-0.67 0.1-1.21 0.62-1.36 1.29-0.13 0.62 0.12 1.23 0.67 1.58q1.21 0.78 5.08-0.26c-0.84 1.98-1.72 4.54-1.94 7.28q-0.81-0.35-1.64-0.78c-0.8-0.4-1.62-0.81-2.5-1.11-3.09-1.06-6.22-1.02-9.25-0.99q-0.71 0.01-1.42 0.01v-14.26h8.42c0.76 0 4.33-3.03 4.36-3.06 0.55-0.6 0.64-1.21 0.27-1.93-0.28-0.54-0.69-0.72-0.98-0.77-1.04-0.2-2.22 0.84-3.26 1.76-0.29 0.26-0.61 0.54-0.81 0.68h-9.59c-0.73 0-1.45 0.87-1.46 0.88q-0.13 0.17-0.14 0.39v18.23q0.01 0.27 0.21 0.46l0.72 0.65q0.16 0.14 0.38 0.15c1.17 0.06 2.38 0.03 3.55 0.01 2.07-0.05 4.21-0.09 6.18 0.31 1.8 0.36 3.39 1.18 5.08 2.04q0.89 0.47 1.84 0.92zm28.64-24.11q-0.02 0.42-0.56 0.47c-0.44 0.04-3.49 0.04-4.26-0.03q-0.02-0.04-0.06-0.08c-0.22-0.3-0.55-0.74-1.02-0.88h5.69c0.1 0.06 0.23 0.27 0.21 0.52zm-12.04-3.7c-0.32-0.08-1.36-0.67-1.57-0.91-0.21-0.42-1.37-3.51-1.45-3.84-0.04-0.34 0.12-0.46 0.24-0.51l14.01-0.03c0.23 0.01 0.38 0.15 0.4 0.37-0.11 0.27-0.27 0.72-0.52 1.43-0.34 0.96-1.01 2.85-1.33 3.46l-9.79 0.02z"/>
	<path class="s0" d="m68.71 53.19l-0.01-0.09c-0.03-0.3-0.06-0.73-0.47-1.09-0.64-0.57-2.02-0.56-4.21-0.49-0.81 0.03-1.63 0.06-2.08 0-4.67-3.66-9.26-4.67-14.02-3.1-0.55 0.19-1.22 0.53-1.94 0.88-0.78 0.4-1.67 0.84-2.13 0.92-0.92 0.14-2.01 0.08-3.16 0.01-1.62-0.09-3.31-0.19-4.72 0.31-1.98 0.7-3.5 2.48-3.92 4.47l-13.33-3.46q-0.06-0.01-0.12-0.02c-2.54-0.09-4.13 1.63-4.59 3.39-0.45 1.72 0.1 3.96 2.32 5.08 1.57 0.79 3.39 1.4 5.14 1.98 1.42 0.47 2.89 0.95 4.16 1.52q0.07 0.04 0.15 0.05c0.78 0.13 1.48-0.26 1.75-0.97 0.27-0.75-0.02-1.56-0.72-1.97q-0.01-0.01-0.03-0.02c-1.37-0.69-2.95-1.2-4.48-1.7-1.51-0.5-3.08-1.01-4.37-1.68-0.81-0.42-0.98-1.06-0.87-1.51 0.11-0.44 0.54-0.94 1.41-0.96l16.09 4.25q0.1 0.02 0.22 0.01c1.54-0.15 3.34-0.05 5.08 0.03 2 0.11 4.07 0.21 5.85-0.04 0.63-0.09 1.18-0.44 1.45-0.93 0.23-0.4 0.25-0.87 0.05-1.31 0-0.01-0.5-0.93-1.05-0.93h-10.97q0.15-1.05 0.76-1.61c1.07-1 3.19-0.89 5.23-0.79 1.22 0.06 2.38 0.12 3.36-0.05 0.65-0.11 1.55-0.56 2.49-1.04 0.61-0.31 1.23-0.62 1.68-0.78 4.6-1.61 8.14 0.05 12.04 3.04q0.16 0.12 0.37 0.12h4.39v7.25q-0.86 0.01-1.73-0.03c-0.9-0.03-1.82-0.06-2.71 0.01-3.08 0.25-5.91 0.84-8.65 1.42-5.33 1.12-10.37 2.18-16.5 0.54-0.76-0.2-1.67-0.58-2.56-0.94-1.15-0.47-2.24-0.92-3.15-1.08-1.47-0.27-1.88 0.53-1.99 1.02-0.31 1.36 0.54 1.77 1.22 2.1 3.84 1.85 9.11 3.02 13.47 3.02q0.55 0 1.07-0.02c3.11-0.15 6.32-0.83 9.42-1.5 2.59-0.55 5.27-1.13 7.79-1.36 1-0.09 2.09-0.05 3.13-0.02 1.06 0.03 2.15 0.07 3.2-0.02q0.12-0.01 0.24-0.07c0.56-0.3 0.92-0.86 0.94-1.47q0-0.04 0-0.07c-0.11-1.55-0.05-3.25 0.02-4.89 0.07-1.81 0.14-3.68-0.02-5.41z"/>
	<path class="s0" d="m39.35 34.68q-0.61 0.51-1.82 0.51-1.13 0-1.8-0.57-0.48-0.4-0.73-1.13c-0.13-0.38-0.49-0.64-0.89-0.6l-0.78 0.08c-0.51 0.05-0.87 0.54-0.74 1.04q0.37 1.39 1.32 2.21 1.26 1.08 3.6 1.08 1.61 0 2.69-0.45 1.08-0.46 1.67-1.38 0.59-0.93 0.59-1.99 0-1.18-0.5-1.97-0.49-0.8-1.37-1.26-0.87-0.45-2.69-0.88-1.82-0.43-2.29-0.83-0.37-0.31-0.38-0.75 0-0.48 0.4-0.77 0.61-0.45 1.7-0.45 1.05 0 1.58 0.42 0.35 0.28 0.54 0.79c0.13 0.35 0.49 0.56 0.87 0.55l0.83-0.04c0.54-0.02 0.94-0.55 0.79-1.08q-0.29-1-1.08-1.69-1.18-1.02-3.51-1.01-1.42 0-2.43 0.43-1 0.43-1.54 1.25-0.53 0.82-0.53 1.77 0 1.47 1.14 2.49 0.81 0.72 2.81 1.22 1.56 0.39 2 0.54 0.64 0.23 0.9 0.53 0.25 0.31 0.26 0.75 0 0.68-0.62 1.19z"/>
	<path class="s0" d="m46.21 24.49h-0.03c-0.4 0-0.74 0.27-0.83 0.66l-2.64 11.09c-0.13 0.53 0.28 1.04 0.82 1.04 0.39 0 0.74-0.26 0.83-0.64l2.67-11.09c0.13-0.54-0.27-1.05-0.82-1.05z"/>
</svg>