<svg version="1.2" xmlns="http://www.w3.org/2000/svg" viewBox="0 0 70 70" width="70" height="70">
	<style>
		.s0 { fill: #0865d8 } 
	</style>
	<path class="s0" d="m64.21 44.6v-13.81q0.98 0.35 2.02 0.21 1.04-0.15 1.9-0.75 0.85-0.6 1.34-1.53 0.48-0.93 0.49-1.97c0-2.45 0.42-1.35-23.26-25.06q-0.81-0.81-1.87-1.25-1.06-0.44-2.2-0.44-1.15 0-2.21 0.44-1.05 0.44-1.86 1.25c-23.57 23.59-23.27 22.58-23.27 25.06q0.02 1.04 0.51 1.96 0.49 0.92 1.34 1.52 0.86 0.6 1.89 0.74 1.03 0.14 2.02-0.21v8.63c-2.23-0.14-2.78 0-8.63 0.76v-1.3c0-0.39-0.15-0.75-0.42-1.02-0.27-0.27-0.64-0.42-1.02-0.42h-8.63c-0.38 0-0.75 0.15-1.02 0.42-0.27 0.27-0.42 0.63-0.42 1.02v24.45c0 0.38 0.15 0.75 0.42 1.02 0.27 0.27 0.64 0.42 1.02 0.42h8.63c0.38 0 0.75-0.15 1.02-0.42 0.27-0.27 0.42-0.64 0.42-1.02v-1.44c2.37 0 3.68-0.16 5.42 0.65 21.58 9.78 15.98 9.84 49-7.03 1.15-0.59 2.07-1.55 2.61-2.73 0.53-1.17 0.66-2.49 0.36-3.75-0.31-1.26-1.02-2.37-2.04-3.17-1.02-0.8-2.27-1.23-3.56-1.23zm-45.61-18.87l21.98-22c0.55-0.53 1.29-0.82 2.05-0.82 0.76 0 1.49 0.29 2.04 0.82 23.94 23.95 22.41 22.17 22.41 23.02q-0.01 0.43-0.25 0.79-0.24 0.35-0.64 0.52-0.4 0.16-0.82 0.08-0.42-0.09-0.73-0.39l-20.99-20.97q-0.2-0.2-0.47-0.31-0.26-0.11-0.55-0.12-0.29 0.01-0.56 0.12-0.26 0.11-0.46 0.31l-20.99 20.97c-0.28 0.22-0.63 0.33-0.98 0.31-0.35-0.02-0.69-0.17-0.93-0.42-0.25-0.25-0.4-0.59-0.42-0.94-0.02-0.35 0.09-0.7 0.31-0.97zm5.33 2.79l18.7-18.7 18.7 18.7v16.84l-15.83 8.09c0.05-1.13-0.24-2.25-0.83-3.21-0.58-0.96-1.44-1.73-2.46-2.22-16.66-7.82-16.04-7.66-18.28-8.24zm-14.39 33.35h-5.75v-21.58h5.75zm55.99-8.95c-25.18 12.86-24.97 13.26-29.06 13.26-2.1 0.11-4.2-0.29-6.13-1.15-14.54-6.6-12.17-6.04-17.92-6.04v-16c11.84-1.43 7.84-2.1 28.55 7.63 0.7 0.32 1.23 0.91 1.49 1.63 0.26 0.72 0.23 1.51-0.1 2.2-0.32 0.69-0.91 1.23-1.63 1.49-0.72 0.26-1.51 0.22-2.2-0.1l-11.35-5.34c-0.34-0.13-0.72-0.13-1.06 0-0.33 0.14-0.61 0.39-0.77 0.72-0.15 0.33-0.18 0.71-0.07 1.05 0.11 0.35 0.34 0.64 0.66 0.82l11.35 5.34c0.9 0.43 1.89 0.62 2.89 0.55 0.99-0.08 1.94-0.42 2.76-0.98l19.94-10.2q0.51-0.26 1.08-0.31 0.57-0.05 1.12 0.12 0.55 0.18 0.99 0.55 0.43 0.37 0.7 0.88 0.26 0.51 0.31 1.08 0.05 0.57-0.13 1.11-0.17 0.55-0.54 0.99-0.37 0.44-0.88 0.7z"/>
	<path class="s0" d="m35.43 40.28c0.87 0-0.14 0.74 15.41-14.8 0.27-0.27 0.42-0.64 0.42-1.02 0-0.38-0.15-0.75-0.42-1.02-0.27-0.27-0.64-0.42-1.02-0.42-0.38 0-0.75 0.15-1.02 0.42l-14.39 14.38q-0.31 0.31-0.39 0.74-0.09 0.43 0.08 0.84 0.17 0.4 0.53 0.64 0.37 0.24 0.8 0.24z"/>
	<path class="s0" d="m38.31 30.21c0.86 0 1.69-0.25 2.4-0.72 0.71-0.48 1.26-1.15 1.59-1.94 0.33-0.79 0.41-1.66 0.24-2.49-0.16-0.84-0.57-1.61-1.18-2.21-0.6-0.61-1.37-1.02-2.21-1.18-0.83-0.17-1.7-0.09-2.49 0.24-0.79 0.33-1.46 0.88-1.94 1.59-0.47 0.71-0.72 1.55-0.72 2.4 0 1.14 0.45 2.24 1.26 3.05 0.81 0.81 1.91 1.26 3.05 1.26zm0-5.75c0.38 0 0.75 0.15 1.02 0.42 0.27 0.27 0.42 0.64 0.42 1.02 0 0.38-0.15 0.75-0.42 1.02-0.27 0.27-0.64 0.42-1.02 0.42-0.38 0-0.75-0.15-1.02-0.42-0.27-0.27-0.42-0.64-0.42-1.02 0-0.38 0.15-0.75 0.42-1.02 0.27-0.27 0.64-0.42 1.02-0.42z"/>
	<path class="s0" d="m46.94 33.09c-0.85 0-1.68 0.25-2.39 0.73-0.71 0.47-1.27 1.15-1.59 1.94-0.33 0.78-0.42 1.65-0.25 2.49 0.17 0.84 0.58 1.61 1.18 2.21 0.6 0.6 1.37 1.01 2.21 1.18 0.84 0.17 1.71 0.08 2.49-0.25 0.79-0.32 1.47-0.88 1.94-1.59 0.48-0.7 0.73-1.54 0.73-2.39 0-1.15-0.46-2.25-1.27-3.05-0.8-0.81-1.9-1.27-3.05-1.27zm0 5.76c-0.38 0-0.74-0.16-1.01-0.43-0.27-0.27-0.43-0.63-0.43-1.01 0-0.38 0.16-0.75 0.43-1.02 0.27-0.27 0.63-0.42 1.01-0.42 0.38 0 0.75 0.15 1.02 0.42 0.27 0.27 0.42 0.64 0.42 1.02 0 0.38-0.15 0.74-0.42 1.01-0.27 0.27-0.64 0.43-1.02 0.43z"/>
</svg>