<svg version="1.2" xmlns="http://www.w3.org/2000/svg" viewBox="0 0 60 70" width="60" height="70">
	<style>
		.s0 { fill: #0865d8 } 
	</style>
	<path class="s0" d="m39.02 58.94c0.29-1.1 0.84-2.12 1.62-2.95 14.88-8.93 18.55-31.02 18.65-34.98 0.06-0.86-0.57-1.6-1.41-1.67q-0.04 0-0.09 0c-3.94-0.07-7.43-3-9.71-5.52 0.3-0.84 0.28-1.75-0.05-2.59-0.37-0.91-1.06-1.63-1.95-2.01q-0.69-0.29-1.47-0.3-0.1 0.01-0.2 0.02-1.36-2.14-2.48-4.41c-0.64-3.13-6.54-4.53-12.14-4.53h-0.01c-5.59 0-11.5 1.4-12.14 4.52q-1.04 2.12-2.29 4.12-0.02 0-0.05 0c-1.99 0-3.62 1.64-3.63 3.66q-0.01 0.58 0.17 1.13c-2.35 2.7-5.96 5.84-10.06 5.9-0.41 0.01-0.8 0.18-1.08 0.48-0.28 0.3-0.43 0.69-0.43 1.11q0 0.04 0 0.06c0.05 2.54 1.17 9.14 3.94 16.03 2.45 6.11 7 14.35 14.74 18.99 0.76 0.83 1.31 1.84 1.6 2.93-7.11 0.82-10.57 2.39-10.57 4.81 0 5.05 16.49 5.31 19.8 5.31 3.31 0 19.8-0.26 19.8-5.31 0-2.42-3.46-3.99-10.57-4.81zm-24.58-43.02c-0.07 2.22 1.55 4.17 3.77 4.43q0.22 0.03 0.44 0.03c0.09 2.57 2.13 4.7 4.72 4.82q0.16 0.01 0.33 0.01 0.23-0.01 0.45-0.04c0.11 2.99 2.49 5.45 5.5 5.58 3.07 0.13 5.71-2.24 5.95-5.32q0.34 0.04 0.67 0.05c2.72 0.05 4.95-2.11 5.05-4.83 2.29-0.02 4.17-1.9 4.2-4.23q0-0.11 0-0.22 0.24-0.05 0.47-0.14c3.27 3.58 6.66 5.67 10.09 6.22-0.7 6.42-4.89 23.45-16.71 30.86q-0.29 0.13-0.54 0.33c-2.74 1.62-5.86 2.65-9.03 2.96-3.17-0.31-6.3-1.34-9.05-2.96q-0.24-0.19-0.53-0.33c-11.8-7.4-16.01-24.44-16.71-30.86 3.54-0.56 7.03-2.75 10.39-6.53q0.27 0.1 0.55 0.17zm15.35-5.9c3.48 0 7.95-0.58 10.4-2.19 0.36 0.66 0.87 1.56 1.52 2.58q-0.45 0.64-0.6 1.4c-2.03 0-3.77 1.48-4.14 3.47q-0.34-0.06-0.69-0.07-0.04 0-0.09 0c-2.37 0-4.41 1.74-4.84 4.06q-0.71-0.19-1.48-0.22-0.62 0.02-1.22 0.16c-0.35-2.48-2.47-4.32-4.98-4.27q-0.34 0.01-0.68 0.06c-0.37-1.98-2.11-3.46-4.14-3.46q-0.18-0.87-0.71-1.56 0.66-1.07 1.24-2.15c2.46 1.61 6.93 2.19 10.41 2.19zm8.46 10.74c-0.11 0.54-0.42 1-0.88 1.3q-0.5 0.33-1.09 0.34c-0.54-0.01-1.04-0.23-1.42-0.62-0.38-0.39-0.58-0.91-0.57-1.46 0.01-1.11 0.89-2 1.99-2.02q0.02 0 0.03 0c0.53 0 1.04 0.22 1.4 0.6q0.12 0.17 0.25 0.34c0.29 0.45 0.39 0.99 0.28 1.52zm-5.66 4.18c-0.02 1.48-1.23 2.71-2.69 2.73-0.74-0.01-1.42-0.31-1.93-0.83-0.51-0.53-0.78-1.23-0.78-1.97 0.02-1.49 1.23-2.71 2.7-2.73 0.73 0.01 1.41 0.3 1.92 0.83 0.51 0.53 0.79 1.23 0.78 1.97zm-6.87-4.87c0 0.55-0.21 1.06-0.59 1.45-0.38 0.38-0.89 0.6-1.43 0.6-0.55 0.02-1.05-0.21-1.43-0.6-0.38-0.38-0.59-0.89-0.59-1.44q0-0.61 0.32-1.12 0.13-0.16 0.25-0.34c0.37-0.38 0.88-0.59 1.41-0.59q0.02 0 0.04 0c1.11 0 2.02 0.91 2.02 2.04zm16.3-2.8q-0.34 0.26-0.77 0.29-0.68-0.19-1.19-0.68c-0.34-0.62-0.13-1.42 0.48-1.79q0.29-0.17 0.63-0.18 0.58 0.15 1.07 0.51c0.43 0.57 0.33 1.39-0.23 1.84zm-23.2-2.63q0.51 0.03 0.89 0.39c0.24 0.26 0.38 0.59 0.38 0.95q-0.01 0.34-0.17 0.63-0.5 0.5-1.18 0.68-0.52-0.02-0.89-0.4-0.37-0.39-0.37-0.95 0.01-0.44 0.27-0.79 0.48-0.36 1.07-0.51zm2.09 47.38c0 0.35-0.05 0.48-0.13 1.01-0.05 0.41 0.05 0.82 0.3 1.15 0.24 0.32 0.6 0.54 1.01 0.6 0.83 0.11 1.6-0.47 1.72-1.31 0 0 0.56-3.14-0.3-5.32 2.02 0.73 4.11 1.19 6.22 1.39h0.04 0.08q3.22-0.31 6.26-1.39c-0.52 1.91-0.63 3.35-0.31 5.31 0.12 0.84 0.89 1.43 1.72 1.32 0.83-0.12 1.41-0.88 1.31-1.72 0 0-0.12-0.51-0.13-1.04 4.21 0.49 6.49 1.23 7.46 1.74-1.71 0.89-7.37 2.21-16.35 2.21-8.98 0-14.64-1.31-16.34-2.21 0.96-0.51 3.24-1.25 7.45-1.74zm23.78-48.78q-0.28-0.08-0.51-0.25c-0.18-0.29-0.12-0.66 0.15-0.87q0.02 0 0.02-0.01 0.16-0.06 0.32-0.09c0.32 0.02 0.57 0.3 0.57 0.62-0.01 0.32-0.25 0.57-0.55 0.6zm-23.99-8.2c0.48-0.52 3.29-1.91 9.1-1.91 5.81 0 8.61 1.38 9.1 1.9-0.5 0.53-3.32 1.91-9.1 1.91-5.78 0-8.62-1.39-9.1-1.9zm-4.89 7.66q0 0.01 0 0.01-0.23 0.18-0.51 0.25-0.23-0.02-0.38-0.18-0.18-0.18-0.17-0.44c0-0.31 0.25-0.57 0.56-0.59q0.17 0.03 0.33 0.08c0.27 0.2 0.36 0.58 0.17 0.87z"/>
</svg>