<svg width="38" height="38" viewBox="0 0 38 38" fill="none" xmlns="http://www.w3.org/2000/svg">
<path d="M37.4617 19.0001C37.4617 8.72292 29.1166 0.39209 18.8218 0.39209C8.52702 0.39209 0.185547 8.72292 0.185547 19.0001C0.185547 29.2774 8.53064 37.6082 18.8254 37.6082C18.934 37.6082 19.0425 37.6082 19.1546 37.601V23.124H15.1503V18.4657H19.1546V15.0351C19.1546 11.0593 21.5854 8.89264 25.1376 8.89264C26.8414 8.89264 28.3064 9.01542 28.726 9.0732V13.2296H26.2807C24.3527 13.2296 23.9729 14.1468 23.9729 15.4901V18.4549H28.5957L27.9917 23.1132H23.9729V36.886C31.7645 34.6543 37.4653 27.4971 37.4653 19.0001H37.4617Z" fill="white"/>
</svg>
