<svg width="38" height="38" viewBox="0 0 38 38" fill="none" xmlns="http://www.w3.org/2000/svg">
<path d="M22.9097 19.0003C22.9097 20.9683 21.3108 22.5608 19.343 22.5608C17.3752 22.5608 15.7764 20.9647 15.7764 19.0003C15.7764 17.0358 17.3752 15.4397 19.343 15.4397C21.3108 15.4397 22.9097 17.0358 22.9097 19.0003Z" fill="white"/>
<path d="M27.6886 12.6987C27.5186 12.2365 27.2437 11.814 26.8892 11.4709C26.5455 11.1171 26.1223 10.8426 25.6593 10.6729C25.2831 10.5284 24.7152 10.3515 23.6734 10.3046C22.5448 10.254 22.2048 10.2432 19.3471 10.2432C16.4895 10.2432 16.1494 10.254 15.0208 10.3046C13.9791 10.3515 13.4111 10.5248 13.0349 10.6729C12.5683 10.8426 12.1487 11.1171 11.8051 11.4709C11.4506 11.814 11.1757 12.2365 11.0057 12.6987C10.861 13.0743 10.6837 13.6412 10.6367 14.6812C10.586 15.8079 10.5752 16.1473 10.5752 19.0001C10.5752 21.8529 10.586 22.1923 10.6367 23.319C10.6837 24.359 10.8573 24.9259 11.0057 25.3015C11.1757 25.7673 11.4506 26.1862 11.8051 26.5293C12.1487 26.8832 12.5719 27.1576 13.0349 27.3273C13.4111 27.4754 13.9791 27.6487 15.0208 27.6957C16.1494 27.7462 16.4858 27.7571 19.3471 27.7571C22.2084 27.7571 22.5448 27.7462 23.6734 27.6957C24.7152 27.6487 25.2831 27.4754 25.6593 27.3273C26.5926 26.9662 27.3305 26.2332 27.6922 25.2979C27.8369 24.9223 28.0142 24.3554 28.0612 23.3154C28.1118 22.1887 28.1227 21.8493 28.1227 18.9965C28.1227 16.1437 28.1118 15.8043 28.0612 14.6776C28.0142 13.6376 27.8405 13.0707 27.6922 12.6951L27.6886 12.6987ZM19.3435 24.4854C16.3086 24.4854 13.8488 22.0298 13.8488 19.0001C13.8488 15.9704 16.3086 13.5148 19.3435 13.5148C22.3784 13.5148 24.8382 15.9704 24.8382 19.0001C24.8382 22.0298 22.3784 24.4854 19.3435 24.4854ZM25.0552 14.5801C24.3462 14.5801 23.7711 14.0059 23.7711 13.2982C23.7711 12.5904 24.3462 12.0162 25.0552 12.0162C25.7642 12.0162 26.3393 12.5904 26.3393 13.2982C26.3393 14.0059 25.7642 14.5801 25.0552 14.5801Z" fill="white"/>
<path d="M19.343 0.39209C9.05183 0.39209 0.703125 8.72292 0.703125 19.0001C0.703125 29.2774 9.04821 37.6082 19.343 37.6082C29.6378 37.6082 37.9829 29.2774 37.9829 19.0001C37.9829 8.72292 29.6378 0.39209 19.343 0.39209ZM29.9815 23.4057C29.9308 24.5432 29.75 25.3196 29.4823 25.9985C28.9252 27.4321 27.7894 28.5696 26.3533 29.1221C25.6733 29.3857 24.8956 29.5663 23.7561 29.6204C22.6131 29.671 22.2513 29.6854 19.343 29.6854C16.4347 29.6854 16.073 29.6746 14.9299 29.6204C13.7905 29.5699 13.0128 29.3893 12.3327 29.1221C11.6201 28.8549 10.9726 28.4324 10.4373 27.8907C9.89466 27.3563 9.47144 26.7099 9.20376 25.9985C8.9397 25.3196 8.75883 24.5432 8.70457 23.4057C8.65031 22.2646 8.63946 21.9035 8.63946 19.0001C8.63946 16.0968 8.65031 15.7357 8.70457 14.5946C8.75521 13.4571 8.93608 12.6807 9.20014 12.0018C9.46782 11.2904 9.89104 10.644 10.4336 10.1096C10.969 9.56431 11.6165 9.14542 12.3291 8.8782C13.0092 8.61459 13.7869 8.43403 14.9263 8.37987C16.0694 8.32931 16.4311 8.31487 19.3394 8.31487C22.2477 8.31487 22.6094 8.3257 23.7525 8.37987C24.8919 8.43042 25.6697 8.61098 26.3497 8.87459C27.0623 9.14181 27.7098 9.56431 28.2452 10.106C28.7878 10.6404 29.211 11.2868 29.4787 11.9982C29.7427 12.6771 29.9236 13.4535 29.9779 14.591C30.0285 15.7321 30.043 16.0932 30.043 18.9965C30.043 21.8999 30.0321 22.261 29.9779 23.4021L29.9815 23.4057Z" fill="white"/>
</svg>
