<svg width="25" height="25" viewBox="0 0 25 25" fill="none" xmlns="http://www.w3.org/2000/svg">
<path d="M12.5037 0C5.6125 0 0 5.6125 0 12.5037C0 19.395 5.6125 25 12.5037 25C19.395 25 25 19.395 25 12.5037C25 5.6125 19.395 0 12.5037 0ZM12.5037 2.08375C18.27 2.08375 22.9163 6.7375 22.9163 12.5037C22.9163 18.27 18.27 22.9163 12.5037 22.9163C6.7375 22.9163 2.08375 18.27 2.08375 12.5037C2.08375 6.7375 6.7375 2.08375 12.5037 2.08375Z" fill="white"/>
<path d="M13.5425 5.20625C12.9675 5.20875 12.5025 5.67625 12.5037 6.25125V12.5037H6.25125C5.67625 12.5013 5.2075 12.9663 5.205 13.5413C5.2025 14.1163 5.6675 14.585 6.2425 14.5875C6.245 14.5875 6.2475 14.5875 6.25125 14.5875H13.5413C14.1163 14.59 14.585 14.125 14.5875 13.55C14.5875 13.5475 14.5875 13.545 14.5875 13.5425V6.2525C14.59 5.6775 14.125 5.20875 13.55 5.20625C13.5475 5.20625 13.545 5.20625 13.5413 5.20625H13.5425Z" fill="white"/>
</svg>

