<svg width="25" height="25" viewBox="0 0 25 25" fill="none" xmlns="http://www.w3.org/2000/svg">
<path d="M13.8526 8.02411C13.694 8.15609 13.4593 8.22335 13.1471 8.22335C12.8527 8.22335 12.618 8.14974 12.4454 8.00127C12.3223 7.89721 12.2284 7.75 12.1637 7.56218C12.113 7.4137 11.9734 7.31599 11.8173 7.33122L11.514 7.36167C11.3161 7.38198 11.174 7.57107 11.2247 7.76396C11.3212 8.12436 11.4925 8.4099 11.7399 8.62183C12.066 8.90228 12.5317 9.04188 13.1395 9.04188C13.557 9.04188 13.9047 8.98223 14.1838 8.86675C14.4643 8.74873 14.6787 8.57107 14.8322 8.33122C14.9858 8.09137 15.0606 7.83376 15.0606 7.55837C15.0606 7.25508 14.9972 7 14.8678 6.79442C14.7396 6.58883 14.5632 6.4264 14.3374 6.30711C14.1115 6.18782 13.7613 6.0736 13.2905 5.96193C12.8197 5.85152 12.5228 5.74365 12.3997 5.64086C12.3033 5.56091 12.2564 5.4632 12.2551 5.34898C12.2551 5.22462 12.3071 5.12563 12.4086 5.05076C12.5685 4.93401 12.7893 4.8769 13.0697 4.8769C13.3502 4.8769 13.5481 4.93147 13.6839 5.03934C13.7752 5.11041 13.845 5.2132 13.8932 5.34645C13.944 5.48223 14.0848 5.56472 14.2295 5.55711L14.5543 5.54315C14.765 5.53426 14.9172 5.32868 14.8589 5.12437C14.7853 4.86548 14.6444 4.64594 14.4389 4.46827C14.1343 4.20431 13.6801 4.07233 13.0773 4.0736C12.7081 4.0736 12.3934 4.13071 12.132 4.24112C11.8719 4.35152 11.6714 4.51396 11.5343 4.72843C11.396 4.94035 11.3275 5.16878 11.3275 5.41497C11.3275 5.79568 11.476 6.11675 11.7704 6.38198C11.9797 6.5698 12.3452 6.72843 12.8642 6.85533C13.2677 6.95558 13.5265 7.02538 13.6407 7.06472C13.807 7.12436 13.9237 7.19289 13.9897 7.27157C14.0557 7.35025 14.0899 7.44797 14.0899 7.56091C14.0899 7.73731 14.0113 7.89213 13.8526 8.02411Z" fill="white"/>
<path d="M16.5186 4.0698H16.5072C16.3537 4.0698 16.2217 4.17386 16.1862 4.3236L15.1596 8.63071C15.1114 8.83756 15.2675 9.0368 15.4806 9.0368C15.6329 9.0368 15.7661 8.93274 15.8017 8.78426L16.8409 4.47716C16.8917 4.2703 16.7343 4.07107 16.5199 4.07107L16.5186 4.0698Z" fill="white"/>
<path fill-rule="evenodd" clip-rule="evenodd" d="M14.0316 0C10.4177 0 7.47639 2.94036 7.47639 6.55584C7.47639 10.1713 10.4177 13.1104 14.0316 13.1104C17.6454 13.1104 20.5867 10.1701 20.5867 6.55584C20.5867 2.94162 17.6467 0 14.0316 0ZM14.0316 11.6789C11.207 11.6789 8.90898 9.38071 8.90898 6.55584C8.90898 5.18782 9.44192 3.90102 10.4101 2.93401C11.3783 1.96574 12.6637 1.43274 14.0316 1.43274C16.8561 1.43274 19.1541 3.73096 19.1541 6.55584C19.1541 9.38071 16.8561 11.6789 14.0316 11.6789Z" fill="white"/>
<path fill-rule="evenodd" clip-rule="evenodd" d="M23.3136 14.0863C22.9037 13.8845 22.4444 13.7779 21.9876 13.7779C21.3189 13.7779 20.659 14.0051 20.1325 14.4162L17.9093 16.1523L17.6987 16.3173L17.6124 16.0635C17.2647 15.0368 16.3016 14.3477 15.2167 14.3477H10.2325C10.1373 14.3477 10.0447 14.3668 9.9571 14.4023L5.71007 16.1726L5.5007 16.2602L5.45122 16.0381C5.34844 15.5647 5.11242 15.1332 4.76981 14.7906C4.29144 14.3135 3.65699 14.0495 2.98193 14.0495H2.52766C1.8526 14.0495 1.21815 14.3135 0.739772 14.7906C0.262663 15.269 0 15.9036 0 16.5787V22.4708C0 23.1459 0.262663 23.7817 0.739772 24.2589C1.21815 24.7373 1.8526 25 2.52766 25H2.98193C3.65699 25 4.29144 24.7373 4.76981 24.2589C5.24692 23.7817 5.50959 23.1459 5.50959 22.4708V17.8071L5.62759 17.7589L10.3403 15.7944L10.3758 15.7805H15.2167C15.822 15.7805 16.3143 16.2716 16.3143 16.8769V16.9505C16.3143 17.1396 16.2648 17.3261 16.1722 17.4898L16.1532 17.5228L16.124 17.5457L15.5745 17.9746L15.5454 17.9987L15.5086 18.0089C15.4159 18.0343 15.3182 18.047 15.2167 18.047H11.5914C11.1968 18.047 10.8758 18.3693 10.8758 18.764C10.8758 19.1586 11.1968 19.4797 11.5914 19.4797H15.2167C15.9831 19.4797 16.6988 19.1383 17.1822 18.5444L17.1949 18.5266L17.2127 18.514L21.0131 15.5457C21.291 15.3299 21.6361 15.2107 21.9876 15.2107C22.2274 15.2107 22.4672 15.2665 22.6829 15.3718C23.2235 15.6371 23.5712 16.1967 23.5686 16.7982C23.5674 17.25 23.3961 17.6777 23.0865 18.0038L18.7455 22.6015L18.6897 22.6612H7.74032C7.34442 22.6612 7.02339 22.9822 7.02339 23.3769C7.02339 23.7716 7.34442 24.0939 7.74032 24.0939H18.998C19.1947 24.0939 19.3838 24.0114 19.5183 23.8693C19.5183 23.8693 22.7045 20.4949 24.1282 18.9873C24.6878 18.3947 24.9974 17.6206 25 16.8058C25.005 15.6574 24.3427 14.5901 23.3136 14.0863ZM4.07826 22.4708C4.07826 22.7602 3.96152 23.0419 3.75723 23.2462C3.55293 23.4505 3.26997 23.5673 2.98193 23.5673H2.52766C2.23962 23.5673 1.95665 23.4505 1.75236 23.2462C1.54806 23.0419 1.43133 22.7602 1.43133 22.4708V16.5787C1.43133 16.2906 1.54806 16.0076 1.75236 15.8033C1.95665 15.599 2.23962 15.4822 2.52766 15.4822H2.98193C3.26997 15.4822 3.55293 15.599 3.75723 15.8033C3.96152 16.0076 4.07826 16.2906 4.07826 16.5787V22.4708Z" fill="white"/>
</svg>

