<svg width="15" height="25" viewBox="0 0 15 25" fill="none" xmlns="http://www.w3.org/2000/svg">
<path d="M2.77291 0C1.24303 0 0 1.27139 0 2.83619V22.1638C0 23.7286 1.24303 25 2.77291 25H12.2271C13.757 25 15 23.7286 15 22.1638V2.83619C15 1.27139 13.757 0 12.2271 0H2.77291ZM1.33865 21.7726H13.6375V22.1638C13.6375 22.9707 12.992 23.6186 12.2151 23.6186H2.77291C1.98406 23.6186 1.3506 22.9584 1.3506 22.1638V21.7726H1.33865ZM1.33865 2.83619C1.33865 2.02934 1.98406 1.38142 2.76096 1.38142H12.2151C13.004 1.38142 13.6375 2.04156 13.6375 2.83619V20.4034H1.33865V2.83619Z" fill="white"/>
<path d="M5.41434 3.38631H7.51793C7.82869 3.38631 8.06773 3.12958 8.06773 2.82396C8.06773 2.51834 7.81673 2.26161 7.51793 2.26161H5.41434C5.10359 2.26161 4.86454 2.51834 4.86454 2.82396C4.86454 3.12958 5.11554 3.38631 5.41434 3.38631Z" fill="white"/>
<path d="M7.49402 23.2641C7.79767 23.2641 8.04382 23.0123 8.04382 22.7017C8.04382 22.3911 7.79767 22.1394 7.49402 22.1394C7.19038 22.1394 6.94422 22.3911 6.94422 22.7017C6.94422 23.0123 7.19038 23.2641 7.49402 23.2641Z" fill="white"/>
<path d="M4.46873 23.2433C4.76423 23.1719 4.94716 22.869 4.8773 22.5667C4.80745 22.2645 4.51127 22.0774 4.21577 22.1488C3.92026 22.2203 3.73734 22.5232 3.80719 22.8254C3.87705 23.1277 4.17323 23.3148 4.46873 23.2433Z" fill="white"/>
<path d="M11.033 23.0948C11.2477 22.8752 11.2477 22.5191 11.033 22.2995C10.8183 22.0799 10.4702 22.0799 10.2555 22.2995C10.0408 22.5191 10.0408 22.8752 10.2555 23.0948C10.4702 23.3144 10.8183 23.3144 11.033 23.0948Z" fill="white"/>
<path d="M10.1205 3.03406C10.2367 2.74713 10.1035 2.41817 9.82295 2.29932C9.54242 2.18047 9.2208 2.31673 9.1046 2.60366C8.9884 2.8906 9.12162 3.21955 9.40215 3.3384C9.68269 3.45726 10.0043 3.321 10.1205 3.03406Z" fill="white"/>
<path d="M12.2151 11.577V10.8924C12.2151 10.1589 11.7251 9.53545 11.0677 9.33985L10.757 8.05623C10.6135 7.49389 10.0518 7.13936 9.50199 7.27384L3.99203 8.56968C3.2749 8.74083 2.77291 9.38875 2.77291 10.1345V15.1834C2.77291 16.0758 3.47809 16.7971 4.3506 16.7971H10.6494C11.5219 16.7971 12.2271 16.0758 12.2271 15.1834V14.4988C12.5378 14.3154 12.753 13.9731 12.753 13.5697V12.4939C12.753 12.1027 12.5378 11.7604 12.2271 11.5648L12.2151 11.577ZM9.72908 8.31296L9.96813 9.27873H5.62948L9.74104 8.31296H9.72908ZM11.1633 15.1834C11.1633 15.4768 10.9243 15.7213 10.6375 15.7213H4.33865C4.05179 15.7213 3.81275 15.4768 3.81275 15.1834V10.3545H10.6494C10.9363 10.3545 11.1633 10.599 11.1633 10.8924V11.4303H10.1116C9.23904 11.4303 8.53386 12.1516 8.53386 13.044C8.53386 13.9364 9.23904 14.6577 10.1116 14.6577H11.1633V15.1956V15.1834ZM11.6892 13.5697H10.1116C9.8247 13.5697 9.58566 13.3252 9.58566 13.0318C9.58566 12.7384 9.8247 12.4939 10.1116 12.4939H11.6892V13.5697Z" fill="white"/>
</svg>

